<?xml version="1.0" encoding="UTF-8"?>
<svg width="24px" height="24px" viewBox="0 0 24 24" version="1.1" xmlns="http://www.w3.org/2000/svg" xmlns:xlink="http://www.w3.org/1999/xlink">
    <title>aave</title>
    <defs>
        <rect id="path-1" x="0" y="0" width="24" height="24"></rect>
        <linearGradient x1="90.7%" y1="22.7%" x2="16.3%" y2="85.3%" id="linearGradient-3">
            <stop stop-color="#B6509E" offset="0%"></stop>
            <stop stop-color="#2EBAC6" offset="100%"></stop>
        </linearGradient>
    </defs>
    <g id="Symbols" stroke="none" stroke-width="1" fill="none" fill-rule="evenodd">
        <g id="aave">
            <mask id="mask-2" fill="white">
                <use xlink:href="#path-1"></use>
            </mask>
            <g id="Rectangle"></g>
            <g id="b" mask="url(#mask-2)" fill-rule="nonzero">
                <g transform="translate(0.360000, 0.360000)">
                    <circle id="Oval" fill="url(#linearGradient-3)" cx="11.64" cy="11.64" r="11.64"></circle>
                    <path d="M16.73358,16.27743 L12.79659,6.76266 C12.57411,6.27099 12.24522,6.03 11.80992,6.03 L11.46171,6.03 C11.02641,6.03 10.69752,6.27099 10.47504,6.76266 L8.763,10.908 L7.46667,10.908 C7.07823828,10.909502 6.76335447,11.2233156 6.76053,11.61174 L6.76053,11.62137 C6.76335447,12.0097944 7.07823828,12.323608 7.46667,12.32511 L8.163,12.32511 L6.52836,16.27743 C6.49744511,16.3641431 6.48110404,16.4553774 6.48,16.54743 C6.48,16.76916 6.54771,16.94268 6.67347,17.07765 C6.79923,17.21262 6.97332,17.28003 7.19583,17.28003 C7.34191413,17.2780335 7.48380415,17.230873 7.602,17.145 C7.72776,17.05824 7.81482,16.93293 7.88253,16.78833 L9.68175,12.32496 L10.9296,12.32496 C11.3180317,12.323458 11.6329155,12.0096444 11.63574,11.62122 L11.63574,11.60193 C11.6329155,11.2135056 11.3180317,10.899692 10.9296,10.89819 L10.26222,10.89819 L11.6358,7.476 L15.37935,16.78836 C15.44706,16.93296 15.53412,17.05836 15.65988,17.14503 C15.7781092,17.2309265 15.9200448,17.2780882 16.06617,17.28003 C16.28865,17.28003 16.46277,17.21255 16.58853,17.07759 C16.71429,16.94259 16.782,16.7691 16.782,16.54737 C16.7856386,16.4549425 16.7691162,16.3628306 16.73358,16.27743 L16.73358,16.27743 Z" id="Path" fill="#FFFFFF"></path>
                </g>
            </g>
        </g>
    </g>
</svg>