<?xml version="1.0" encoding="UTF-8"?>
<!DOCTYPE svg PUBLIC "-//W3C//DTD SVG 1.1//EN" "http://www.w3.org/Graphics/SVG/1.1/DTD/svg11.dtd">
<!-- Creator: CorelDRAW 2018 (64-Bit) -->
<svg xmlns="http://www.w3.org/2000/svg" xml:space="preserve" width="12.192mm" height="12.192mm" version="1.1" style="shape-rendering:geometricPrecision; text-rendering:geometricPrecision; image-rendering:optimizeQuality; fill-rule:evenodd; clip-rule:evenodd"
viewBox="0 0 34.01 34.01"
 xmlns:xlink="http://www.w3.org/1999/xlink">
 <defs>
  <style type="text/css">
   <![CDATA[
    .fil1 {fill:#FEFEFE}
    .fil0 {fill:#443061}
   ]]>
  </style>
 </defs>
 <g id="Слой_x0020_1">
  <metadata id="CorelCorpID_0Corel-Layer"/>
  <rect class="fil0" width="34.01" height="34.01"/>
  <path class="fil1" d="M9.34 19.91c0.24,-3.32 2.15,-4.63 4.34,-6.56 0.81,-0.71 1.59,-1.49 2.12,-2.33 0.35,-0.55 0.64,-1.03 0.79,-1.67 0.04,-0.16 0.08,-0.25 0.25,-0.25 0.17,0 0.21,0.08 0.25,0.25 0.14,0.63 0.53,1.28 0.89,1.82 1.45,2.13 4.23,3.57 5.48,5.76 1.22,2.14 1.73,5.46 0.23,7.58 -0.31,0.44 -0.25,0.65 0.16,1 0.1,0.08 0.37,0.26 0.64,0.37 0.56,0.23 0.67,0.03 1,-0.55 0.65,-1.14 1.06,-2.59 1.08,-4.07 0.04,-3.2 -1.26,-5.71 -3.61,-7.81 -1.23,-1.1 -2.57,-2.06 -3.61,-3.4 -0.58,-0.75 -1.26,-2.61 -1.57,-3.58 -0.17,-0.54 -0.25,-0.77 -0.95,-0.77 -0.69,-0 -0.78,0.23 -0.95,0.77 -0.36,1.15 -0.94,2.7 -1.57,3.56 -1.3,1.78 -3.47,3.03 -4.93,4.74 -1.87,2.2 -2.38,5.26 -1.61,7.91 0.64,2.23 2.14,3.84 4.02,4.83 1.63,0.75 3.42,0.99 5.08,0.67 3.12,-0.59 5.27,-2.87 5.56,-6.02 0.31,-3.34 -2.22,-6.69 -5.65,-6.61 -2.43,0.06 -4.48,1.9 -4.48,4.39 -0,1.35 0.56,2.63 1.89,3.39 0.55,0.31 1.23,0.57 1.99,0.6 0.3,0.05 0.65,-0.2 0.65,-0.55l-0 -0.61c0.01,-0.31 -0.22,-0.54 -0.53,-0.6 -2.18,-0.44 -2.75,-2.5 -1.7,-3.73 0.99,-1.14 2.3,-1.31 3.45,-0.87 3.18,1.21 3.43,5.79 0.89,7.79 -4.02,3.15 -9.92,-0.12 -9.61,-5.43z"/>
 </g>
</svg>
