<?xml version="1.0" encoding="utf-8"?>
<svg viewBox="168.784 69.643 39.5 39.5" xmlns="http://www.w3.org/2000/svg">
  <defs>
    <linearGradient id="paint0_linear" x1="19.75" y1="0" x2="19.75" y2="39.5" gradientUnits="userSpaceOnUse" gradientTransform="matrix(1, 0, 0, 1, 168.783829, 69.643478)">
      <stop stop-color="#F4336E"/>
      <stop offset="1" stop-color="#9D1F46"/>
    </linearGradient>
  </defs>
  <circle cx="188.534" cy="89.393" r="19.75" fill="url(#paint0_linear)"/>
  <path d="M 196.57 88.609 C 194.577 88.609 192.913 88.169 191.58 87.289 C 190.24 86.416 189.237 85.219 188.57 83.699 C 187.897 82.179 187.56 80.452 187.56 78.519 L 187.56 78.229 C 187.56 76.276 187.913 74.542 188.62 73.029 C 189.32 71.509 190.327 70.312 191.64 69.439 C 192.953 68.566 194.52 68.129 196.34 68.129 C 197.627 68.129 198.803 68.329 199.87 68.729 C 200.937 69.129 201.82 69.639 202.52 70.259 L 202.52 74.549 L 200.37 74.549 L 200.09 71.409 C 199.797 71.182 199.46 70.989 199.08 70.829 C 198.7 70.676 198.28 70.559 197.82 70.479 C 197.36 70.399 196.863 70.359 196.33 70.359 C 195.023 70.359 193.92 70.692 193.02 71.359 C 192.12 72.026 191.437 72.949 190.97 74.129 C 190.503 75.302 190.27 76.659 190.27 78.199 L 190.27 78.519 C 190.27 80.186 190.52 81.609 191.02 82.789 C 191.513 83.969 192.237 84.869 193.19 85.489 C 194.143 86.109 195.303 86.419 196.67 86.419 C 197.31 86.419 197.933 86.342 198.54 86.189 C 199.153 86.029 199.66 85.829 200.06 85.589 L 200.36 82.809 L 202.47 82.809 L 202.47 87.129 C 201.723 87.596 200.83 87.959 199.79 88.219 C 198.75 88.479 197.677 88.609 196.57 88.609 ZM 221.033 70.489 L 209.943 82.559 L 208.503 80.899 L 217.953 70.409 L 218.003 70.339 L 216.513 70.149 L 216.513 68.409 L 222.903 68.409 L 222.903 70.149 L 221.033 70.489 Z M 212.363 88.319 L 205.213 88.319 L 205.213 86.599 L 207.443 86.209 L 207.443 70.529 L 205.213 70.149 L 205.213 68.409 L 212.363 68.409 L 212.363 70.149 L 210.133 70.529 L 210.133 86.209 L 212.363 86.599 L 212.363 88.319 Z M 223.613 88.319 L 216.973 88.319 L 216.973 86.599 L 218.613 86.409 L 218.593 86.389 L 213.083 78.749 L 214.593 76.629 L 221.783 86.259 L 223.613 86.599 L 223.613 88.319 ZM 235.161 88.319 L 225.731 88.319 L 225.731 86.599 L 227.961 86.209 L 227.961 70.529 L 225.731 70.149 L 225.731 68.409 L 227.961 68.409 L 234.311 68.409 C 236.391 68.409 238.018 68.859 239.191 69.759 C 240.358 70.659 240.941 72.006 240.941 73.799 C 240.941 74.686 240.661 75.476 240.101 76.169 C 239.541 76.869 238.801 77.386 237.881 77.719 C 238.681 77.886 239.371 78.209 239.951 78.689 C 240.524 79.169 240.968 79.752 241.281 80.439 C 241.594 81.126 241.751 81.879 241.751 82.699 C 241.751 84.526 241.158 85.919 239.971 86.879 C 238.791 87.839 237.188 88.319 235.161 88.319 Z M 230.651 78.979 L 230.651 86.209 L 235.161 86.209 C 236.394 86.209 237.351 85.909 238.031 85.309 C 238.704 84.702 239.041 83.842 239.041 82.729 C 239.041 81.942 238.918 81.272 238.671 80.719 C 238.418 80.159 238.034 79.729 237.521 79.429 C 237.008 79.129 236.358 78.979 235.571 78.979 L 230.651 78.979 Z M 230.651 70.529 L 230.651 76.879 L 235.011 76.879 C 235.978 76.879 236.761 76.599 237.361 76.039 C 237.954 75.472 238.251 74.709 238.251 73.749 C 238.251 72.669 237.914 71.862 237.241 71.329 C 236.568 70.796 235.591 70.529 234.311 70.529 L 230.651 70.529 Z" transform="matrix(0.5176020264625549, 0, 0, 0.4922730326652527, 77.57582092285156, 50.722389221191406)" style="fill: rgb(255, 255, 255); white-space: pre;"/>
</svg>