<?xml version="1.0" encoding="UTF-8"?>
<svg width="24px" height="24px" viewBox="0 0 24 24" version="1.1" xmlns="http://www.w3.org/2000/svg" xmlns:xlink="http://www.w3.org/1999/xlink">
    <!-- Generator: Sketch 61.2 (89653) - https://sketch.com -->
    <title>COMP</title>
    <desc>Created with Sketch.</desc>
    <g id="COMP" stroke="none" stroke-width="1" fill="none" fill-rule="evenodd">
        <g id="compound-interface" transform="translate(0.000000, 0.000000)">
            <circle id="Oval" fill="#070A0F" fill-rule="nonzero" cx="12" cy="12" r="12"></circle>
            <path d="M6.9517875,16.2731625 C6.5938875,16.0504125 6.375,15.6537 6.375,15.2277375 L6.375,12.849075 C6.375,12.758025 6.3989625,12.6702 6.4437,12.5921625 C6.5827125,12.3483 6.891075,12.26535 7.1307375,12.40845 L12.40665,15.538275 C12.7150125,15.7219875 12.9051375,16.0569375 12.9051375,16.4211375 L12.9051375,18.885975 C12.9051375,18.9981375 12.8748,19.1103375 12.817275,19.2062625 C12.643125,19.4956875 12.2724375,19.5867 11.988,19.4095125 L6.9517875,16.2731625 Z M14.8161,11.756475 C15.1244625,11.9401875 15.3145875,12.2751375 15.3145875,12.6393375 L15.3145875,17.640525 C15.3145875,17.7885 15.236325,17.925075 15.1101,17.9965875 L13.954875,18.65835 C13.9405125,18.66645 13.9245375,18.672975 13.9085625,18.67785 L13.9085625,15.900825 C13.9085625,15.5415375 13.7232,15.2082 13.4196375,15.022875 L8.7860625,12.201975 L8.7860625,9.0672375 C8.7860625,8.9761875 8.810025,8.8884 8.8547625,8.8103625 C8.993775,8.5665 9.3021375,8.48355 9.5418,8.62665 L14.8161,11.756475 Z M17.1249,8.0624625 C17.434875,8.2445625 17.625,8.5827375 17.625,8.9469375 L17.625,16.25205 C17.625,16.4016 17.5435125,16.539825 17.4141,16.6113375 L16.319625,17.2129125 L16.319625,12.1271625 C16.319625,11.7678375 16.1342625,11.43615 15.832275,11.250825 L11.0964375,8.3599875 L11.0964375,5.3862375 C11.0964375,5.2951875 11.1204375,5.2074 11.1635625,5.1293625 C11.302575,4.8855 11.6109375,4.80255 11.8506,4.944 L17.1249,8.0624625 Z" id="Shape" fill="#00D395"></path>
        </g>
    </g>
</svg>