<svg xmlns="http://www.w3.org/2000/svg" xmlns:xlink="http://www.w3.org/1999/xlink" viewBox="0 0 100 100"><defs><style>.a{fill:url(#a);}.b{fill:url(#b);}.c{fill:url(#c);}.d{fill:url(#d);}</style><linearGradient id="a" x1="50" y1="0.67" x2="50" y2="98.48" gradientUnits="userSpaceOnUse"><stop offset="0" stop-color="#3a72b9"/><stop offset="1" stop-color="#282e71"/></linearGradient><linearGradient id="b" x1="20.36" y1="70.06" x2="78.29" y2="67.77" gradientUnits="userSpaceOnUse"><stop offset="0" stop-color="#f37336"/><stop offset="1" stop-color="#f7b519"/></linearGradient><linearGradient id="c" x1="18.88" y1="32.78" x2="76.81" y2="30.49" xlink:href="#b"/><linearGradient id="d" x1="18.94" y1="34.13" x2="76.87" y2="31.84" xlink:href="#b"/></defs><rect class="a" width="100" height="100"/><path class="b" d="M77.34,59.29A3.44,3.44,0,0,0,73.86,58a3.71,3.71,0,0,0-2.71,2.19,26.06,26.06,0,0,1-1.56,2.9c-4.22,6.36-10.27,9.67-17.79,10.31A23.61,23.61,0,0,1,42,72.15a21.48,21.48,0,0,1-11.14-8.37c-.83-1.24-1.45-2.63-2.17-3.94a3.63,3.63,0,0,0-6.4,0,9.75,9.75,0,0,0-.45,1v1.32c.1.26.18.51.29.76a28,28,0,0,0,9.41,11.88A30.75,30.75,0,0,0,46,80.53a31.68,31.68,0,0,0,10.77-.45,30.1,30.1,0,0,0,11.39-5,28.73,28.73,0,0,0,9.74-12A3.44,3.44,0,0,0,77.34,59.29Z"/><path class="c" d="M33.48,39.74A7.54,7.54,0,1,0,26,32.21,7.55,7.55,0,0,0,33.48,39.74Z"/><path class="d" d="M67.64,39.74a7.54,7.54,0,1,0-7.54-7.55A7.53,7.53,0,0,0,67.64,39.74Z"/></svg>