<svg width="40" height="40" viewBox="0 0 40 40" fill="none" xmlns="http://www.w3.org/2000/svg">
<rect width="40" height="40" fill="white"/>
<mask id="mask0" mask-type="alpha" maskUnits="userSpaceOnUse" x="0" y="0" width="40" height="40">
<path d="M19.75 39.5C30.6576 39.5 39.5 30.6576 39.5 19.75C39.5 8.84238 30.6576 0 19.75 0C8.84238 0 0 8.84238 0 19.75C0 30.6576 8.84238 39.5 19.75 39.5Z" fill="white"/>
</mask>
<g mask="url(#mask0)">
<path d="M19.75 39.5C30.6576 39.5 39.5 30.6576 39.5 19.75C39.5 8.84238 30.6576 0 19.75 0C8.84238 0 0 8.84238 0 19.75C0 30.6576 8.84238 39.5 19.75 39.5Z" fill="url(#paint0_linear)"/>
<path d="M10.7812 9.71497V16.988L16.9455 19.7348L10.7812 9.71497Z" fill="white" fill-opacity="0.602"/>
<path d="M10.7813 9.71497L4.61621 19.7348L10.7813 16.988V9.71497Z" fill="white"/>
<path d="M10.7812 24.4478V29.3897L16.9496 20.8794L10.7812 24.4478Z" fill="white" fill-opacity="0.602"/>
<path d="M10.7813 29.3897V24.447L4.61621 20.8794L10.7813 29.3897Z" fill="white"/>
<path d="M10.7812 23.304L16.9455 19.7347L10.7812 16.9895V23.304Z" fill="white" fill-opacity="0.2"/>
<path d="M4.61621 19.7347L10.7813 23.304V16.9895L4.61621 19.7347Z" fill="white" fill-opacity="0.602"/>
<path fill-rule="evenodd" clip-rule="evenodd" d="M19.7501 39.5C30.6577 39.5 39.5001 30.6576 39.5001 19.75C39.5001 8.84238 30.6577 0 19.7501 0C19.7114 0 19.7754 39.5 19.7501 39.5Z" fill="url(#paint1_linear)"/>
<path fill-rule="evenodd" clip-rule="evenodd" d="M27.1367 9.71497L27.1363 12.2746L29.6737 12.2755C29.8701 12.2755 30.0604 12.2806 30.2448 12.2908L30.2442 9.71497H32.1087L32.1099 12.6334C33.6149 13.1678 34.3872 14.2947 34.3872 15.9747V16.0543C34.3872 17.5459 33.6712 18.6397 32.0802 19.0971C33.9297 19.475 34.9241 20.5291 34.9241 22.4383V22.5179C34.9241 24.4673 33.9665 25.7264 32.1096 26.2368L32.1087 29.2984H30.2442L30.2447 26.4912C30.1422 26.494 30.038 26.4955 29.9323 26.4955L27.1363 26.4946L27.1367 29.2984H25.2722L25.2719 26.4946H25.259L25.2598 26.5576H22.1523V24.6931L24.0849 24.6924V14.1271L22.1647 14.1276V12.2631H25.2722V9.71497H27.1367ZM29.2759 20.191H27.2275V24.268H29.4351C31.0261 24.268 31.7421 23.552 31.7421 22.2593V22.1798C31.7421 20.8672 31.0261 20.191 29.2759 20.191ZM29.1367 14.4831H27.2275V18.1226H29.1566C30.7079 18.1226 31.3244 17.5658 31.3244 16.2929V16.2134C31.3244 15.0201 30.6482 14.4831 29.1367 14.4831Z" fill="white"/>
</g>
<defs>
<linearGradient id="paint0_linear" x1="19.75" y1="0.672216" x2="19.75" y2="39.5" gradientUnits="userSpaceOnUse">
<stop stop-color="#627EEA"/>
<stop offset="1" stop-color="#343BD5"/>
</linearGradient>
<linearGradient id="paint1_linear" x1="29.6187" y1="0" x2="29.6187" y2="38.9076" gradientUnits="userSpaceOnUse">
<stop stop-color="#FFA20C"/>
<stop offset="1" stop-color="#E7613B"/>
</linearGradient>
</defs>
</svg>
