<?xml version="1.0" encoding="utf-8"?>
<!-- Generator: Adobe Illustrator 26.0.1, SVG Export Plug-In . SVG Version: 6.00 Build 0)  -->
<svg version="1.1" id="Layer_1" xmlns="http://www.w3.org/2000/svg" xmlns:xlink="http://www.w3.org/1999/xlink" x="0px" y="0px"
	 viewBox="0 0 40 40" style="enable-background:new 0 0 40 40;" xml:space="preserve">
<style type="text/css">
	.st0{filter:url(#Adobe_OpacityMaskFilter);}
	.st1{fill-rule:evenodd;clip-rule:evenodd;fill:#FFFFFF;}
	.st2{mask:url(#mask-2_00000137814126694297139700000006136816783593146753_);fill:#002543;}
	.st3{fill:none;}
	.st4{fill:#001D2D;}
	.st5{fill:#FFFFFF;}
	.st6{fill:#0388F6;}
</style>
<g id="defi_pulse_index_set">
	<g transform="translate(0.144928, 0.000000)">
		<g id="Fill-1-Clipped" transform="translate(0.100966, 0.104348)">
			<g id="path-1_00000181770306726186863970000011584758575471930815_">
			</g>
			<defs>
				<filter id="Adobe_OpacityMaskFilter" filterUnits="userSpaceOnUse" x="0" y="0" width="39.7" height="39.8">
					<feColorMatrix  type="matrix" values="1 0 0 0 0  0 1 0 0 0  0 0 1 0 0  0 0 0 1 0"/>
				</filter>
			</defs>
			
				<mask maskUnits="userSpaceOnUse" x="0" y="0" width="39.7" height="39.8" id="mask-2_00000137814126694297139700000006136816783593146753_">
				<g class="st0">
					<polygon id="path-1_00000115481046429899873680000000981208276644391322_" class="st1" points="0,0 39.7,0 39.7,39.8 0,39.8 
											"/>
				</g>
			</mask>
			<path id="Fill-1" class="st2" d="M39.7,19.9c0,11-8.9,19.9-19.8,19.9S0,30.9,0,19.9S8.9,0,19.8,0S39.7,8.9,39.7,19.9"/>
		</g>
	</g>
</g>
<g id="defi_pulse_index_set_00000111880568927216143870000004383733021156640392_">
	<g transform="translate(0.144928, 0.000000)">
		<g id="Fill-1-Clipped_00000021113858710853209840000014634198422952048050_" transform="translate(0.100966, 0.104348)">
			<g id="path-1_00000014622181124966239860000012773594155710509997_">
			</g>
			<path id="Fill-1_00000131362202642060549640000004174148913464790934_" class="st3" d="M39.7,19.9c0,11-8.9,19.9-19.8,19.9
				S0,30.9,0,19.9S8.9,0,19.8,0S39.7,8.9,39.7,19.9"/>
		</g>
	</g>
</g>
<g id="path-1_00000051375573624629936790000003931469064543248777_">
</g>
<g>
	<path class="st4" d="M39.9,20c0-0.1,0-0.1,0-0.2l-6-6.1l-2.6,3.2l-2.6-2.7l-5.2,1l-0.5,1.3l-0.7,2.9l4,4.1L24,23.6l-9.7-9.9
		l-2.6,2.8l-2.8-2.8l-1.5,2l-1.2,0.7l2.2,2.1l-2.2,6.9l14.4,14.4C31.4,39.5,39.9,30.8,39.9,20z"/>
</g>
<g>
	<g>
		<path class="st5" d="M6.3,18.2h2.6v7.2H6.3V18.2z"/>
		<path class="st5" d="M19.4,23.2v2.3h-7.8V13.7h2.6v9.4H19.4z"/>
		<path class="st5" d="M24.6,23.4c0.4,0,0.7,0,0.9-0.1c0.2-0.1,0.4-0.1,0.6-0.3c0.1-0.1,0.2-0.2,0.3-0.4c0.1-0.1,0.1-0.3,0.1-0.5
			c0-0.4-0.2-0.7-0.5-1c-0.4-0.3-1-0.5-1.9-0.8c-0.4-0.1-0.8-0.3-1.1-0.5c-0.4-0.2-0.7-0.4-1-0.7c-0.3-0.3-0.6-0.6-0.7-1
			C21,18,20.9,17.5,20.9,17c0-0.5,0.1-1,0.3-1.5c0.2-0.4,0.5-0.8,0.9-1.1c0.4-0.3,0.8-0.5,1.4-0.7c0.5-0.2,1.1-0.2,1.8-0.2
			c0.8,0,1.5,0.1,2,0.3c0.6,0.2,1,0.4,1.4,0.6l-0.8,2.1c-0.3-0.2-0.7-0.3-1.1-0.4c-0.4-0.1-0.9-0.2-1.4-0.2c-0.6,0-1.1,0.1-1.4,0.3
			c-0.3,0.2-0.4,0.4-0.4,0.8c0,0.2,0,0.4,0.2,0.5c0.1,0.1,0.2,0.3,0.4,0.4c0.2,0.1,0.4,0.2,0.6,0.3c0.2,0.1,0.5,0.2,0.8,0.3
			c0.6,0.2,1.1,0.4,1.6,0.7c0.5,0.2,0.8,0.5,1.1,0.8c0.3,0.3,0.5,0.6,0.7,1c0.1,0.4,0.2,0.9,0.2,1.4c0,1.1-0.4,1.9-1.1,2.5
			c-0.8,0.6-1.9,0.9-3.5,0.9c-0.5,0-1,0-1.4-0.1c-0.4-0.1-0.8-0.1-1.1-0.2c-0.3-0.1-0.6-0.2-0.8-0.3c-0.2-0.1-0.4-0.2-0.6-0.3
			l0.7-2.1c0.3,0.2,0.8,0.4,1.3,0.5C23.2,23.3,23.9,23.4,24.6,23.4z"/>
		<path class="st5" d="M31.2,13.7h2.6v11.7h-2.6V13.7z"/>
	</g>
	<rect x="6.3" y="13.7" class="st6" width="2.6" height="2.6"/>
</g>
</svg>
