<?xml version="1.0" encoding="utf-8"?>
<svg version="1.0" xmlns="http://www.w3.org/2000/svg"
 width="928.000000pt" height="928.000000pt" 
 viewBox="0 0 928.000000 928.000000">
<g transform="translate(0.000000,928.000000) scale(0.100000,-0.100000)"
fill="#000000" stroke="none">
<path d="M4557 9274 c-3 -3 -15 -7 -28 -8 -41 -6 -140 -45 -151 -61 -4 -5 -8
-6 -8 -2 0 4 -20 -6 -44 -23 -25 -16 -51 -30 -59 -30 -9 0 -17 -3 -19 -7 -3
-8 -105 -73 -114 -73 -3 0 -30 -16 -60 -35 -30 -19 -57 -35 -59 -35 -3 0 -38
-20 -78 -44 -110 -67 -180 -107 -199 -113 -10 -3 -18 -9 -18 -14 0 -5 -4 -9
-9 -9 -5 0 -47 -23 -93 -50 -45 -28 -95 -56 -110 -62 -16 -7 -28 -16 -28 -20
0 -4 -4 -8 -10 -8 -5 0 -69 -35 -142 -78 -74 -43 -140 -81 -148 -85 -8 -4 -37
-21 -65 -37 -27 -17 -57 -34 -65 -37 -8 -4 -17 -9 -20 -12 -3 -4 -16 -12 -30
-19 -56 -28 -135 -76 -142 -86 -4 -6 -8 -7 -8 -2 0 5 -6 4 -12 -2 -13 -10
-269 -161 -298 -176 -8 -4 -24 -12 -35 -19 -11 -7 -63 -37 -115 -67 -52 -30
-103 -59 -112 -65 -9 -5 -47 -28 -85 -49 -37 -21 -101 -59 -140 -82 -40 -24
-77 -44 -83 -44 -5 0 -10 -4 -10 -10 0 -5 -4 -10 -9 -10 -5 0 -49 -23 -98 -51
-48 -29 -108 -63 -133 -77 -25 -14 -73 -43 -108 -64 -34 -21 -64 -38 -66 -38
-2 0 -33 -17 -67 -38 -75 -46 -155 -91 -186 -106 -13 -6 -23 -14 -23 -18 0 -5
-5 -8 -10 -8 -6 0 -91 -47 -190 -105 -99 -58 -183 -105 -189 -105 -5 0 -11 -4
-13 -8 -1 -4 -23 -20 -48 -34 -58 -33 -134 -109 -175 -173 -36 -56 -77 -159
-68 -169 4 -3 2 -6 -3 -6 -5 0 -11 -8 -12 -17 -1 -10 -4 -972 -7 -2138 -5
-1909 -4 -2126 11 -2180 35 -136 112 -247 229 -332 32 -24 62 -43 67 -43 6 0
155 -86 208 -120 8 -5 38 -22 65 -37 28 -15 57 -32 67 -38 9 -5 52 -30 95 -54
43 -24 90 -53 105 -63 14 -10 31 -18 36 -18 11 0 9 31 -3 50 -3 6 -2 10 2 10
5 0 9 8 10 18 1 32 50 243 149 647 25 105 48 198 50 209 2 10 11 44 20 75 9
30 17 65 19 76 1 11 5 27 8 35 6 15 46 162 52 190 2 8 13 51 25 95 12 44 24
90 25 102 2 12 7 28 11 35 5 7 9 18 10 23 1 6 7 28 13 50 6 22 11 45 12 50 1
6 6 21 11 35 6 14 18 54 28 90 48 173 202 667 221 705 6 12 11 27 12 35 2 8 5
20 8 25 5 8 39 105 44 125 1 3 5 14 10 25 4 11 26 65 47 120 22 55 43 109 48
120 30 68 51 118 68 161 40 99 171 371 232 479 129 231 280 404 407 467 58 29
78 33 143 33 105 0 186 -40 290 -144 76 -76 182 -215 218 -288 10 -21 35 -67
55 -103 94 -167 335 -678 352 -745 1 -5 9 -27 19 -47 9 -21 16 -42 16 -48 0
-5 4 -10 10 -10 5 0 9 -3 8 -7 0 -5 2 -17 7 -28 16 -41 68 -162 92 -215 14
-30 43 -95 65 -145 52 -118 237 -488 271 -542 15 -24 27 -45 27 -48 0 -6 121
-197 130 -205 3 -3 13 -17 22 -31 36 -56 146 -188 215 -255 93 -93 190 -165
280 -209 114 -57 179 -75 301 -82 58 -3 117 0 160 8 37 7 70 12 75 11 4 -1 7
2 7 8 0 6 3 9 8 9 4 -1 10 0 15 1 4 1 10 3 15 4 26 7 112 50 112 57 0 5 6 9
13 9 7 0 22 8 33 18 10 10 27 23 37 28 40 23 174 155 232 229 88 113 189 267
281 429 43 76 79 142 80 145 0 3 16 39 36 78 21 40 35 73 32 73 -2 0 3 12 13
27 9 14 18 31 19 37 1 7 11 33 23 58 11 26 21 49 21 51 0 3 8 22 17 43 9 22
17 41 18 44 1 3 5 14 10 25 4 11 20 52 35 90 15 39 31 79 35 90 5 11 9 22 9
25 1 4 32 92 54 150 3 8 6 20 8 25 1 6 27 80 56 165 30 85 54 157 54 160 1 3
9 30 19 60 11 30 20 60 21 66 1 6 16 56 33 110 32 103 111 378 116 404 2 8 4
15 5 15 1 0 3 7 5 15 2 8 15 56 29 105 13 50 36 133 50 185 14 52 30 110 35
128 5 17 7 32 4 32 -3 0 0 6 6 14 6 8 11 18 10 22 -3 10 8 57 22 94 4 14 11
36 13 50 3 14 15 61 27 105 11 44 23 87 25 95 1 8 13 53 25 100 12 47 23 94
24 105 2 11 4 21 5 23 3 2 3 5 14 52 4 19 21 83 37 143 16 59 31 115 32 125 5
24 27 104 34 122 3 8 7 22 9 30 1 8 10 40 19 70 9 30 18 62 20 70 2 8 4 16 5
18 2 1 3 5 4 10 2 4 8 27 15 52 7 25 13 46 13 47 0 1 8 26 19 55 11 29 22 64
25 77 3 13 11 39 19 57 8 19 12 34 10 34 -2 0 3 17 11 37 15 35 15 37 -8 55
-12 9 -26 18 -30 18 -5 0 -50 26 -203 117 -11 6 -36 20 -55 30 -20 10 -80 45
-135 77 -131 77 -271 158 -315 182 -19 10 -37 21 -40 24 -3 3 -18 12 -35 20
-16 8 -32 17 -35 20 -3 3 -16 11 -29 18 -13 8 -40 23 -60 34 -20 12 -56 32
-81 46 -25 13 -52 30 -60 37 -8 6 -30 17 -47 25 -18 7 -33 16 -33 21 0 5 -4 9
-9 9 -8 0 -262 143 -321 180 -20 12 -115 68 -165 96 -22 12 -80 45 -128 73
-49 28 -92 51 -97 51 -5 0 -10 4 -12 8 -3 7 -42 31 -168 100 -25 14 -49 28
-55 32 -5 5 -37 23 -70 40 -33 18 -67 38 -75 44 -8 6 -24 16 -35 22 -87 46
-281 160 -283 166 -2 5 -7 8 -12 8 -4 0 -68 35 -142 77 -175 101 -245 125
-370 129 -53 1 -98 0 -101 -2z"/>
<path d="M7974 7423 c-3 -10 -10 -27 -15 -38 -10 -24 -48 -135 -54 -161 -3
-11 -27 -95 -54 -188 -28 -93 -49 -172 -49 -175 1 -3 -2 -13 -5 -21 -7 -16
-68 -255 -72 -280 -1 -8 -5 -22 -8 -30 -4 -8 -16 -55 -28 -105 -27 -117 -26
-114 -38 -154 -6 -19 -9 -37 -6 -39 3 -3 1 -10 -4 -16 -5 -6 -11 -24 -14 -41
-3 -16 -29 -120 -57 -230 -28 -110 -53 -207 -55 -215 -1 -8 -8 -35 -15 -60 -7
-25 -13 -49 -14 -55 -1 -5 -5 -16 -9 -22 -5 -7 -6 -13 -3 -13 3 0 1 -11 -4
-25 -5 -14 -12 -36 -14 -48 -9 -43 -15 -64 -56 -212 -24 -82 -43 -154 -44
-160 -2 -9 -17 -59 -53 -178 -8 -26 -16 -53 -17 -60 -2 -7 -11 -39 -21 -72
-10 -33 -20 -64 -21 -70 -1 -5 -11 -35 -22 -67 -11 -31 -18 -59 -15 -62 4 -3
2 -6 -4 -6 -5 0 -10 -6 -10 -12 0 -32 -192 -570 -256 -718 -5 -14 -11 -27 -12
-30 -1 -3 -9 -22 -18 -44 -9 -21 -17 -40 -17 -41 0 -2 -10 -25 -22 -52 -11
-26 -22 -52 -23 -58 -5 -20 -130 -270 -137 -273 -5 -2 -8 -8 -8 -13 0 -9 -75
-141 -113 -197 -9 -15 -20 -35 -23 -44 -4 -10 -10 -18 -14 -18 -4 0 -12 -11
-18 -25 -7 -14 -17 -31 -22 -38 -6 -7 -34 -43 -61 -82 -56 -78 -105 -140 -131
-167 -10 -10 -18 -20 -18 -22 0 -7 -111 -111 -160 -149 -25 -20 -52 -42 -61
-50 -37 -32 -180 -105 -256 -130 -164 -54 -351 -55 -533 -2 -106 31 -273 118
-347 181 -12 11 -33 28 -47 38 -55 40 -205 196 -256 265 -14 19 -34 46 -46 60
-33 41 -164 241 -164 252 0 5 -3 9 -8 9 -4 0 -15 17 -25 38 -9 20 -29 57 -43
82 -45 77 -232 455 -240 485 -1 6 -16 42 -34 80 -53 118 -57 128 -85 195 -14
36 -32 79 -40 95 -7 17 -23 55 -35 85 -12 30 -28 69 -35 85 -8 17 -26 59 -40
95 -15 36 -34 81 -42 100 -8 19 -19 44 -23 55 -29 73 -121 275 -141 313 -10
17 -17 32 -14 32 2 0 -12 27 -31 61 -18 33 -34 63 -34 65 0 3 -16 30 -35 60
-19 30 -35 57 -35 60 0 11 -127 169 -158 196 -94 83 -204 104 -295 58 -63 -31
-155 -121 -204 -197 -9 -15 -20 -30 -24 -33 -13 -11 -104 -169 -140 -243 -21
-43 -42 -84 -47 -90 -7 -10 -38 -81 -109 -247 -8 -19 -19 -44 -24 -55 -11 -25
-28 -68 -49 -125 -9 -25 -33 -90 -54 -145 -61 -164 -70 -190 -72 -200 -1 -5
-11 -35 -22 -65 -18 -49 -120 -359 -126 -385 -2 -5 -6 -17 -9 -25 -8 -20 -28
-88 -31 -103 -2 -7 -11 -39 -21 -72 -10 -33 -20 -64 -21 -70 -1 -5 -13 -46
-26 -90 -13 -44 -25 -83 -26 -88 -1 -4 -8 -31 -17 -61 -9 -29 -18 -62 -20 -72
-2 -11 -11 -44 -20 -74 -9 -30 -18 -62 -20 -70 -2 -8 -4 -15 -5 -15 -2 0 -5
-14 -14 -53 -3 -13 -8 -32 -11 -42 -3 -10 -8 -27 -10 -37 -9 -41 -36 -139 -42
-153 -3 -8 -8 -24 -10 -35 -8 -43 -35 -151 -43 -175 -5 -14 -12 -38 -15 -55
-2 -16 -13 -60 -24 -97 -11 -38 -18 -68 -16 -68 2 0 -2 -18 -10 -40 -8 -22
-12 -40 -9 -40 2 0 0 -8 -5 -17 -5 -10 -12 -34 -15 -53 -5 -30 -11 -53 -30
-130 -4 -14 -23 -95 -31 -130 -2 -8 -13 -55 -24 -103 -12 -48 -21 -89 -21 -91
0 -2 46 -30 103 -62 56 -33 110 -63 119 -69 9 -5 29 -17 45 -26 49 -27 86 -49
246 -142 18 -11 111 -64 207 -120 96 -55 255 -147 353 -204 98 -56 181 -103
184 -103 4 0 14 -6 22 -14 9 -7 48 -31 86 -51 39 -21 75 -41 80 -45 6 -5 26
-17 45 -28 19 -11 75 -43 123 -71 49 -28 93 -51 98 -51 5 0 9 -4 9 -9 0 -5 8
-11 18 -14 9 -4 42 -21 73 -39 31 -18 82 -48 113 -66 31 -17 60 -32 66 -32 5
0 10 -3 10 -8 0 -4 21 -18 48 -32 26 -13 71 -39 100 -57 29 -18 54 -33 57 -33
2 0 45 -25 95 -55 50 -30 93 -55 95 -55 2 0 28 -14 57 -31 144 -86 291 -169
298 -169 5 0 10 -4 12 -8 3 -8 70 -34 123 -48 11 -3 59 -7 107 -10 96 -4 226
22 261 54 10 9 20 15 21 13 1 -4 64 28 96 49 15 9 152 89 220 127 19 11 133
77 252 147 120 69 222 126 228 126 5 0 10 5 10 10 0 6 4 10 9 10 4 0 86 46
182 102 207 120 406 235 457 263 20 11 39 23 40 28 2 4 8 7 13 7 7 0 108 57
159 90 8 6 22 13 30 17 16 7 276 157 300 173 8 5 33 19 55 31 22 12 72 41 110
64 39 23 90 53 115 66 25 13 47 27 50 30 3 3 35 22 72 42 37 20 112 64 167 97
55 33 105 60 111 60 5 0 10 5 10 10 0 6 4 10 9 10 4 0 48 23 97 51 49 29 105
61 124 72 19 10 76 43 125 72 50 29 106 62 125 73 19 10 102 58 183 106 82 47
150 86 153 86 12 0 135 91 168 125 47 49 97 125 120 185 18 45 22 59 32 115
12 62 15 4238 3 4285 -19 81 -66 181 -105 225 -14 17 -29 35 -32 40 -4 6 -23
24 -43 40 -70 58 -77 63 -179 118 -30 17 -68 39 -85 49 -16 10 -38 21 -47 24
-10 4 -18 10 -18 14 0 4 -8 10 -17 13 -10 3 -45 22 -78 41 -126 75 -135 79
-141 59z"/>
</g>
</svg>
