<svg width="40" height="40" viewBox="0 0 40 40" fill="none" xmlns="http://www.w3.org/2000/svg">
<rect width="40" height="40" fill="white"/>
<mask id="mask0" mask-type="alpha" maskUnits="userSpaceOnUse" x="0" y="0" width="40" height="40">
<circle cx="19.75" cy="19.75" r="19.75" fill="#8F5AE8"/>
</mask>
<g mask="url(#mask0)">
<circle cx="19.75" cy="19.75" r="19.75" fill="url(#paint0_linear)"/>
<path d="M39.5458 17.4522C39.197 17.2658 38.8077 17.1682 38.4122 17.1682C38.0167 17.1682 37.6273 17.2658 37.2785 17.4522L32.1681 20.4756L28.5974 22.4606L23.487 25.4861C23.1382 25.6726 22.7488 25.7702 22.3533 25.7702C21.9578 25.7702 21.5685 25.6726 21.2197 25.4861L17.1581 23.1215C16.8239 22.9288 16.5445 22.654 16.3461 22.323C16.1477 21.9921 16.037 21.616 16.0244 21.2303V16.5077C16.0171 16.1178 16.1195 15.7337 16.3199 15.3993C16.5204 15.0649 16.8108 14.7936 17.1581 14.6165L21.2197 12.3479C21.5685 12.1614 21.9578 12.0639 22.3533 12.0639C22.7488 12.0639 23.1382 12.1614 23.487 12.3479L27.5486 14.6165C27.8827 14.8092 28.1622 15.0841 28.3605 15.415C28.5589 15.7459 28.6696 16.122 28.6822 16.5077V19.5311L32.1681 17.4523V14.5227C32.1771 14.1347 32.0773 13.7519 31.8801 13.4176C31.6829 13.0834 31.3961 12.811 31.0522 12.6315L23.5807 8.28402C23.2319 8.09755 22.8425 8 22.4471 8C22.0516 8 21.6622 8.09755 21.3134 8.28402L13.7571 12.6315C13.3799 12.7778 13.0583 13.0392 12.838 13.3787C12.6177 13.7182 12.5098 14.1184 12.5297 14.5227V23.3113C12.524 23.6997 12.6272 24.0819 12.8276 24.4146C13.0279 24.7473 13.3175 25.0172 13.6633 25.1937L21.2197 29.55C21.5685 29.7365 21.9578 29.834 22.3533 29.834C22.7488 29.834 23.1382 29.7365 23.487 29.55L28.5974 26.6205L32.0922 24.5416L37.1848 21.621C37.5336 21.4346 37.923 21.337 38.3185 21.337C38.7139 21.337 39.1033 21.4346 39.4521 21.621L43.5137 23.8896C43.8478 24.0824 44.1273 24.3572 44.3257 24.6882C44.524 25.0191 44.6348 25.3952 44.6474 25.7809V30.4119C44.6547 30.8018 44.5523 31.1859 44.3518 31.5203C44.1514 31.8548 43.8609 32.126 43.5137 32.3031L39.4521 34.6655C39.1033 34.852 38.7139 34.9496 38.3185 34.9496C37.923 34.9496 37.5336 34.852 37.1848 34.6655L33.1232 32.3969C32.7891 32.2042 32.5096 31.9293 32.3112 31.5984C32.1129 31.2674 32.0021 30.8913 31.9895 30.5057V27.4712L28.5974 29.454V32.4773C28.5901 32.8672 28.6925 33.2513 28.893 33.5857C29.0934 33.9202 29.3839 34.1914 29.7311 34.3685L37.2874 38.716C37.6363 38.9024 38.0256 39 38.4211 39C38.8166 39 39.206 38.9024 39.5548 38.716L47.1111 34.3686C47.4432 34.1749 47.7207 33.8999 47.9175 33.5695C48.1142 33.2391 48.2238 32.864 48.2358 32.4795V23.6887C48.2432 23.2988 48.1408 22.9147 47.9403 22.5802C47.7398 22.2458 47.4494 21.9745 47.1022 21.7974L39.5458 17.4522Z" fill="#D95892"/>
<path d="M36.2841 17.4522C35.9353 17.2658 35.5459 17.1682 35.1505 17.1682C34.755 17.1682 34.3656 17.2658 34.0168 17.4522L28.9063 20.4756L25.3357 22.4606L20.2253 25.4861C19.8765 25.6726 19.4871 25.7702 19.0916 25.7702C18.6961 25.7702 18.3068 25.6726 17.9579 25.4861L13.8964 23.1215C13.5622 22.9288 13.2828 22.654 13.0844 22.323C12.886 21.9921 12.7753 21.616 12.7627 21.2303V16.5077C12.7553 16.1178 12.8577 15.7337 13.0582 15.3993C13.2587 15.0649 13.5491 14.7936 13.8964 14.6165L17.9579 12.3479C18.3068 12.1614 18.6961 12.0639 19.0916 12.0639C19.4871 12.0639 19.8765 12.1614 20.2253 12.3479L24.2869 14.6165C24.621 14.8092 24.9005 15.0841 25.0988 15.415C25.2972 15.7459 25.4079 16.122 25.4205 16.5077V19.5311L28.9063 17.4523V14.5227C28.9154 14.1347 28.8156 13.7519 28.6184 13.4176C28.4212 13.0834 28.1344 12.811 27.7905 12.6315L20.319 8.28402C19.9702 8.09755 19.5808 8 19.1853 8C18.7899 8 18.4005 8.09755 18.0517 8.28402L10.4953 12.6315C10.1182 12.7778 9.7966 13.0392 9.57629 13.3787C9.35597 13.7182 9.24809 14.1184 9.26795 14.5227V23.3113C9.26228 23.6997 9.36548 24.0819 9.56586 24.4146C9.76623 24.7473 10.0558 25.0172 10.4016 25.1937L17.9579 29.55C18.3068 29.7365 18.6961 29.834 19.0916 29.834C19.4871 29.834 19.8765 29.7365 20.2253 29.55L25.3357 26.6205L28.8305 24.5416L33.9231 21.621C34.2719 21.4346 34.6613 21.337 35.0567 21.337C35.4522 21.337 35.8416 21.4346 36.1904 21.621L40.252 23.8896C40.5861 24.0824 40.8656 24.3572 41.064 24.6882C41.2623 25.0191 41.3731 25.3952 41.3857 25.7809V30.4119C41.393 30.8018 41.2906 31.1859 41.0901 31.5203C40.8897 31.8548 40.5992 32.126 40.252 32.3031L36.1904 34.6655C35.8416 34.852 35.4522 34.9496 35.0567 34.9496C34.6613 34.9496 34.2719 34.852 33.9231 34.6655L29.8615 32.3969C29.5274 32.2042 29.2479 31.9293 29.0495 31.5984C28.8511 31.2674 28.7404 30.8913 28.7278 30.5057V27.4712L25.3357 29.454V32.4773C25.3284 32.8672 25.4308 33.2513 25.6312 33.5857C25.8317 33.9202 26.1222 34.1914 26.4694 34.3685L34.0257 38.716C34.3745 38.9024 34.7639 39 35.1594 39C35.5549 39 35.9442 38.9024 36.2931 38.716L43.8494 34.3686C44.1815 34.1749 44.459 33.8999 44.6558 33.5695C44.8525 33.2391 44.9621 32.864 44.9741 32.4795V23.6887C44.9815 23.2988 44.8791 22.9147 44.6786 22.5802C44.4781 22.2458 44.1877 21.9745 43.8405 21.7974L36.2841 17.4522Z" fill="white"/>
<path d="M33.0185 17.4522C32.6697 17.2658 32.2803 17.1682 31.8848 17.1682C31.4894 17.1682 31.1 17.2658 30.7512 17.4522L25.6407 20.4756L22.0701 22.4606L16.9597 25.4861C16.6108 25.6726 16.2215 25.7702 15.826 25.7702C15.4305 25.7702 15.0411 25.6726 14.6923 25.4861L10.6307 23.1215C10.2966 22.9288 10.0171 22.654 9.81876 22.323C9.62039 21.9921 9.50967 21.616 9.49706 21.2303V16.5077C9.48971 16.1178 9.59212 15.7337 9.79259 15.3993C9.99305 15.0649 10.2835 14.7936 10.6307 14.6165L14.6923 12.3479C15.0411 12.1614 15.4305 12.0639 15.826 12.0639C16.2215 12.0639 16.6108 12.1614 16.9597 12.3479L21.0212 14.6165C21.3554 14.8092 21.6348 15.0841 21.8332 15.415C22.0316 15.7459 22.1423 16.122 22.1549 16.5077V19.5311L25.6407 17.4523V14.5227C25.6497 14.1347 25.55 13.7519 25.3528 13.4176C25.1556 13.0834 24.8688 12.811 24.5249 12.6315L17.0534 8.28402C16.7046 8.09755 16.3152 8 15.9197 8C15.5242 8 15.1349 8.09755 14.786 8.28402L7.22972 12.6315C6.85253 12.7778 6.53098 13.0392 6.31066 13.3787C6.09035 13.7182 5.98247 14.1184 6.00232 14.5227V23.3113C5.99665 23.6997 6.09986 24.0819 6.30023 24.4146C6.50061 24.7473 6.79013 25.0172 7.13599 25.1937L14.6923 29.55C15.0411 29.7365 15.4305 29.834 15.826 29.834C16.2215 29.834 16.6108 29.7365 16.9597 29.55L22.0701 26.6205L25.5648 24.5416L30.6574 21.621C31.0063 21.4346 31.3956 21.337 31.7911 21.337C32.1866 21.337 32.576 21.4346 32.9248 21.621L36.9864 23.8896C37.3205 24.0824 37.6 24.3572 37.7983 24.6882C37.9967 25.0191 38.1074 25.3952 38.12 25.7809V30.4119C38.1274 30.8018 38.025 31.1859 37.8245 31.5203C37.624 31.8548 37.3336 32.126 36.9864 32.3031L32.9248 34.6655C32.576 34.852 32.1866 34.9496 31.7911 34.9496C31.3956 34.9496 31.0062 34.852 30.6574 34.6655L26.5959 32.3969C26.2617 32.2042 25.9823 31.9293 25.7839 31.5984C25.5855 31.2674 25.4748 30.8913 25.4622 30.5057V27.4712L22.0701 29.454V32.4773C22.0628 32.8672 22.1652 33.2513 22.3656 33.5857C22.5661 33.9202 22.8565 34.1914 23.2038 34.3685L30.7601 38.716C31.1089 38.9024 31.4983 39 31.8938 39C32.2892 39 32.6786 38.9024 33.0274 38.716L40.5838 34.3686C40.9159 34.1749 41.1934 33.8999 41.3901 33.5695C41.5869 33.2391 41.6964 32.864 41.7085 32.4795V23.6887C41.7158 23.2988 41.6134 22.9147 41.413 22.5802C41.2125 22.2458 40.9221 21.9745 40.5748 21.7974L33.0185 17.4522Z" fill="url(#paint1_linear)"/>
</g>
<defs>
<linearGradient id="paint0_linear" x1="19.75" y1="0" x2="19.75" y2="39.5" gradientUnits="userSpaceOnUse">
<stop stop-color="#8F5AE8"/>
<stop offset="1" stop-color="#300776" stop-opacity="0.72"/>
</linearGradient>
<linearGradient id="paint1_linear" x1="23.8544" y1="8" x2="23.8544" y2="39" gradientUnits="userSpaceOnUse">
<stop stop-color="#81CFEA"/>
<stop offset="1" stop-color="#8E5AA2"/>
</linearGradient>
</defs>
</svg>
