<?xml version="1.0" encoding="UTF-8"?>
<svg width="24px" height="24px" viewBox="0 0 24 24" version="1.1" xmlns="http://www.w3.org/2000/svg" xmlns:xlink="http://www.w3.org/1999/xlink">
    <title>REP</title>
    <g id="REP" stroke="none" stroke-width="1" fill="none" fill-rule="evenodd">
        <g id="rep" fill-rule="nonzero">
            <circle id="Oval" fill="#0E0E21" cx="12" cy="12.000125" r="12"></circle>
            <path d="M18.698325,14.78885 L17.2706,12.3676 C17.217575,12.2776 17.10045,12.2501 17.014125,12.30635 L16.0845,12.9101 C16.00065,12.96385 15.974775,13.07635 16.025325,13.1626 L16.841525,14.54635 C16.867425,14.5901 16.85385,14.6451 16.811925,14.6726 L12.0491,17.76635 C12.018275,17.78635 11.98005,17.78635 11.95045,17.76635 L7.18885,14.6726 C7.146925,14.6451 7.1346,14.58885 7.15925,14.54635 L7.975475,13.1626 C8.026025,13.07635 8.000125,12.96385 7.916275,12.9101 L6.98665,12.30635 C6.8991,12.2501 6.783225,12.2776 6.7302,12.3676 L5.30245,14.78885 C5.200125,14.96135 5.2519,15.1851 5.419575,15.29385 L11.8025,19.44135 C11.923325,19.5201 12.078675,19.5201 12.199525,19.44135 L18.582425,15.29385 C18.74765,15.1851 18.799425,14.96135 18.698325,14.78885 Z" id="Path" fill="#FFFFFF"></path>
            <path d="M7.732575,11.017625 L8.662225,11.621375 C8.74975,11.677625 8.86565,11.650125 8.918675,11.560125 L11.920875,6.470125 C11.956625,6.410125 12.042925,6.410125 12.078675,6.470125 L15.0809,11.560125 C15.1339,11.650125 15.251025,11.677625 15.33735,11.621375 L16.266975,11.017625 C16.350825,10.963875 16.3767,10.851375 16.32615,10.765125 L12.7383,4.681375 C12.671725,4.568875 12.552125,4.500125 12.422675,4.500125 L11.576875,4.500125 C11.447425,4.500125 11.327825,4.568875 11.26125,4.681375 L7.6734,10.765125 C7.62285,10.851375 7.64875,10.963875 7.732575,11.017625 Z" id="Path" fill="#2AE7A8"></path>
        </g>
    </g>
</svg>