<svg id="Layer_1" data-name="Layer 1" xmlns="http://www.w3.org/2000/svg" xmlns:xlink="http://www.w3.org/1999/xlink" viewBox="0 0 300 300"><defs><style>.cls-1{fill:#ff33a0;}.cls-2{fill:url(#linear-gradient);}.cls-3{fill:url(#linear-gradient-2);}</style><linearGradient id="linear-gradient" x1="30.83" y1="175.41" x2="292.58" y2="80.14" gradientUnits="userSpaceOnUse"><stop offset="0.18" stop-color="#ff33a0"/><stop offset="0.4" stop-color="#ff3b51"/><stop offset="0.98" stop-color="#ff7bab" stop-opacity="0"/></linearGradient><linearGradient id="linear-gradient-2" x1="-7441.88" y1="-28.57" x2="-7180.13" y2="-123.84" gradientTransform="translate(-7172.72 96.02) rotate(180)" xlink:href="#linear-gradient"/></defs><circle class="cls-1" cx="150" cy="150" r="37.57"/><path class="cls-2" d="M150,264c61.22,0,110.85-43.2,110.85-96.49L259,150c-9.48,44.91-54.69,78.94-109,78.94-61.22,0-110.85-43.2-110.85-96.49S88.78,36,150,36c82.84,0,150,58.46,150,130.57V133.47C300,61.36,232.84,2.9,150,2.9S0,61.36,0,133.47,67.16,264,150,264"/><path class="cls-3" d="M150,36C88.78,36,39.15,79.16,39.15,132.45L41,150c9.48-44.91,54.69-78.94,109-78.94,61.22,0,110.85,43.2,110.85,96.49S211.22,264,150,264C67.16,264,0,205.58,0,133.47v33.06C0,238.64,67.16,297.1,150,297.1s150-58.46,150-130.57S232.84,36,150,36"/></svg>