<svg width="40" height="40" viewBox="0 0 40 40" fill="none" xmlns="http://www.w3.org/2000/svg">
<rect width="40" height="40" fill="white"/>
<circle cx="19.75" cy="19.75" r="19.75" fill="#FF85B9"/>
<path fill-rule="evenodd" clip-rule="evenodd" d="M19.6851 17.5911L29.0053 28.7341L31.3065 26.8094L20.6973 14.1252L11.7345 16.9567L3.4988 8.5021L1.91944 11.1437L10.8709 20.3757L19.6851 17.5911Z" fill="#E51E25"/>
<path d="M22.7396 30.6106C22.5442 30.774 22.5182 31.0651 22.6817 31.2604C22.8451 31.4559 23.136 31.4818 23.3314 31.3183C23.5269 31.1549 23.5528 30.864 23.3894 30.6685C23.226 30.4732 22.935 30.4473 22.7396 30.6106Z" fill="#E51E25"/>
<path d="M22.8425 29.7176C22.9228 29.6503 22.9335 29.5308 22.8663 29.4506C22.7991 29.3701 22.6796 29.3595 22.5992 29.4268C22.5189 29.4939 22.5082 29.6134 22.5754 29.6938C22.6426 29.7741 22.7622 29.7847 22.8425 29.7176" fill="#E51E25"/>
<path d="M20.3832 28.2217C20.2396 28.3417 20.2206 28.5552 20.3406 28.699C20.4606 28.8425 20.6743 28.8614 20.8178 28.7414C20.9613 28.6215 20.9804 28.4077 20.8603 28.2642C20.7403 28.1207 20.5267 28.1016 20.3832 28.2217" fill="#E51E25"/>
<path d="M18.1105 27.8305C17.9799 27.9396 17.9626 28.134 18.0718 28.2646C18.1809 28.3951 18.3753 28.4123 18.5059 28.3032C18.6364 28.1941 18.6538 27.9997 18.5446 27.8691C18.4354 27.7386 18.241 27.7211 18.1105 27.8305Z" fill="#E51E25"/>
<path d="M19.5865 26.5949C19.5212 26.6495 19.5126 26.7467 19.5671 26.8119C19.6217 26.8772 19.7189 26.8859 19.7842 26.8312C19.8495 26.7766 19.8581 26.6794 19.8035 26.6142C19.7489 26.5488 19.6518 26.5404 19.5865 26.5949" fill="#E51E25"/>
<path d="M20.5562 25.4807C20.4188 25.3164 20.1743 25.2948 20.0101 25.4321C19.8458 25.5695 19.824 25.8138 19.9614 25.9781C20.0987 26.1424 20.3433 26.1643 20.5075 26.0269C20.6718 25.8896 20.6936 25.645 20.5562 25.4807Z" fill="#E51E25"/>
<path d="M22.9466 26.5181C23.0628 26.4209 23.0783 26.2479 22.981 26.1316C22.8838 26.0153 22.7107 25.9998 22.5945 26.097C22.4782 26.1942 22.4628 26.3674 22.56 26.4835C22.6572 26.5999 22.8303 26.6154 22.9466 26.5181Z" fill="#E51E25"/>
<path d="M22.6819 25.0905C22.7803 25.0081 22.7933 24.8617 22.7111 24.7634C22.6288 24.6651 22.4824 24.6519 22.384 24.7343C22.2857 24.8165 22.2726 24.9629 22.3549 25.0612C22.4371 25.1597 22.5835 25.1727 22.6819 25.0905Z" fill="#E51E25"/>
<path d="M23.0778 24.1529C23.2048 24.0468 23.2216 23.8577 23.1155 23.7307C23.0093 23.6038 22.8203 23.587 22.6934 23.6931C22.5664 23.7993 22.5496 23.9882 22.6557 24.1152C22.7619 24.2421 22.9509 24.2591 23.0778 24.1529" fill="#E51E25"/>
<path d="M23.9661 23.2294C24.1459 23.0789 24.1698 22.8114 24.0195 22.6316C23.8691 22.4518 23.6015 22.4278 23.4217 22.5783C23.2419 22.7286 23.218 22.9963 23.3684 23.1759C23.5187 23.3557 23.7863 23.3797 23.9661 23.2294" fill="#E51E25"/>
<path d="M24.8381 32.8997C24.5963 32.8781 24.3827 33.0566 24.3611 33.2986C24.3396 33.5404 24.5182 33.7539 24.76 33.7756C25.0019 33.797 25.2155 33.6185 25.237 33.3767C25.2586 33.1347 25.08 32.9212 24.8381 32.8997Z" fill="#E51E25"/>
<path d="M24.7803 32.122C24.8354 32.076 24.8428 31.9938 24.7966 31.9386C24.7504 31.8834 24.6683 31.876 24.6131 31.9223C24.5579 31.9683 24.5506 32.0505 24.5968 32.1057C24.6429 32.1609 24.7251 32.1681 24.7803 32.122Z" fill="#E51E25"/>
<path d="M25.1974 32.275C25.2372 32.2417 25.2425 32.1824 25.2092 32.1425C25.1759 32.1026 25.1166 32.0973 25.0767 32.1306C25.0368 32.164 25.0316 32.2234 25.0649 32.2631C25.0982 32.303 25.1575 32.3083 25.1974 32.275" fill="#E51E25"/>
<path d="M25.8936 32.6579C25.8116 32.7265 25.8007 32.8485 25.8693 32.9307C25.9379 33.0126 26.06 33.0235 26.142 32.9549C26.224 32.8863 26.2349 32.7643 26.1663 32.6823C26.0977 32.6002 25.9757 32.5893 25.8936 32.6579Z" fill="#E51E25"/>
<path d="M25.0632 31.4592C24.97 31.5371 24.9577 31.6757 25.0356 31.7689C25.1135 31.8619 25.2521 31.8744 25.3453 31.7965C25.4384 31.7186 25.4508 31.58 25.3729 31.4868C25.295 31.3936 25.1563 31.3813 25.0632 31.4592Z" fill="#E51E25"/>
<path d="M35.1751 23.8405C34.8246 23.4212 34.2007 23.3656 33.7816 23.7161C33.4081 24.0283 33.3236 24.5578 33.5574 24.9658C33.5164 24.9794 33.4771 25.0004 33.4419 25.0297C33.2936 25.1539 33.2739 25.3746 33.398 25.523C33.522 25.6712 33.7428 25.6909 33.8911 25.567C33.9522 25.5158 33.9911 25.4483 34.0075 25.3761C34.3427 25.5279 34.7497 25.4859 35.0508 25.2339C35.47 24.8834 35.5256 24.2595 35.1751 23.8405Z" fill="#E51E25"/>
<path d="M35.4245 25.8143C35.3106 25.9094 35.2955 26.079 35.3907 26.1928C35.4859 26.3066 35.6553 26.3216 35.7691 26.2265C35.8831 26.1312 35.8982 25.9618 35.8029 25.848C35.7078 25.7343 35.5384 25.7192 35.4245 25.8143Z" fill="#E51E25"/>
<path d="M36.2107 25.346C36.1279 25.4154 36.1169 25.5385 36.1863 25.6213C36.2555 25.7041 36.3786 25.7151 36.4614 25.6459C36.5442 25.5767 36.5552 25.4534 36.486 25.3706C36.4168 25.2878 36.2935 25.2768 36.2107 25.346Z" fill="#E51E25"/>
<path d="M36.2422 24.2568C36.1223 24.3572 36.1062 24.536 36.2066 24.6561C36.307 24.7763 36.4857 24.7922 36.6059 24.6918C36.726 24.5914 36.7419 24.4127 36.6415 24.2925C36.5411 24.1726 36.3624 24.1564 36.2422 24.2568Z" fill="#E51E25"/>
<path d="M37.8527 23.0785C37.6277 22.8096 37.2273 22.7739 36.9582 22.9989C36.6892 23.224 36.6533 23.6243 36.8783 23.8935C37.1034 24.1625 37.5039 24.1981 37.7729 23.9733C38.0421 23.7483 38.0777 23.3477 37.8527 23.0785Z" fill="#E51E25"/>
<path d="M35.5212 23.1417C35.5902 23.0842 35.5993 22.9814 35.5416 22.9124C35.4841 22.8435 35.3813 22.8343 35.3123 22.8919C35.2433 22.9496 35.2341 23.0523 35.2918 23.1213C35.3495 23.1903 35.4522 23.1995 35.5212 23.1417" fill="#E51E25"/>
<path d="M32.7043 25.6903C32.5991 25.5644 32.4795 25.4579 32.3504 25.3698C32.3518 25.3685 32.3531 25.367 32.3545 25.3657C32.5252 25.2108 32.6959 25.056 32.8667 24.9013C32.9292 24.8446 32.9974 24.7741 32.9428 24.6677C32.9258 24.6346 32.8999 24.6066 32.8709 24.583C32.6747 24.4238 32.4323 24.33 32.1958 24.3207C31.8541 24.3073 31.4791 24.4497 31.1943 24.2217C30.996 24.0632 30.9369 23.7779 30.9836 23.546C31.0121 23.4047 31.072 23.2775 31.1404 23.1548C31.3415 23.241 31.5826 23.214 31.7619 23.064C32.0158 22.8517 32.0495 22.4738 31.8372 22.2197C31.7881 22.1611 31.7302 22.1144 31.667 22.0796C31.6807 22.041 31.6941 22.0023 31.7069 21.9635C31.7773 21.7495 31.8298 21.4971 31.7038 21.2865C31.5578 21.0424 31.2367 20.9717 30.979 21.0108C30.3129 21.112 29.8565 21.8155 30.002 22.5169C30.0245 22.625 30.0583 22.743 30.0131 22.8351C29.9287 23.0071 29.6434 22.9544 29.4834 22.8793C29.3982 22.8391 29.3062 22.8211 29.2192 22.8345C28.7978 22.8994 29.0403 23.4337 28.8973 23.7416C28.8487 23.8462 28.7485 23.905 28.6352 23.9211C28.5611 23.8914 28.4831 23.8815 28.407 23.8986C28.3006 23.8626 28.2047 23.7912 28.1504 23.6864C28.0357 23.4652 28.1089 23.2179 28.1572 22.9911C28.2054 22.7644 28.2032 22.4742 28.0062 22.3216C27.8513 22.2015 27.6459 22.2254 27.4749 22.2751C27.2214 22.3483 26.9544 22.5067 26.9434 22.7827C26.9286 23.1527 27.372 23.4359 27.4573 23.808C27.1755 23.85 26.8778 23.7605 26.589 23.6851C26.3001 23.6095 25.9924 23.5482 25.7293 23.6439C25.5695 23.7021 25.4374 23.839 25.3861 24.0008C25.1997 23.9859 25.0179 24.0309 24.8444 24.0831C24.7855 24.1007 24.7225 24.1228 24.6928 24.1767C24.6636 24.2296 24.6745 24.2994 24.6898 24.3629C24.7606 24.6563 24.9133 24.9382 25.1243 25.1647C25.3086 25.3625 25.5616 25.5878 25.5044 25.8308C25.4571 26.0314 25.2123 26.0956 25.0035 26.0605C24.8773 26.0395 24.7477 25.9934 24.6268 26.0162C24.506 26.0389 24.4045 26.1711 24.4679 26.2898C24.2894 26.27 24.1352 26.1336 23.9815 26.0227C23.8278 25.9121 23.6279 25.8196 23.4774 25.8988C23.3043 25.9898 23.3059 26.2505 23.3781 26.4541C23.5029 26.8058 23.7826 27.1137 24.1188 27.269C24.2739 27.3406 24.4523 27.3915 24.5563 27.5306C24.3325 27.7511 24.2922 28.0969 24.4543 28.3619C24.4032 28.5132 24.3828 28.6746 24.4692 28.8183C24.5602 28.9694 24.7561 29.0698 24.7757 29.2388C24.796 29.4135 24.6151 29.5084 24.467 29.5774C24.2819 29.6638 24.0992 29.7869 24.0359 29.9865C23.9725 30.186 24.0881 30.4713 24.3007 30.5204C24.5783 30.5845 24.7281 30.2495 24.9673 30.1323C25.2452 29.9962 25.6464 30.213 25.7715 30.5314C25.8221 30.6605 25.844 30.8127 25.9534 30.8995C26.0996 31.0154 26.2888 30.936 26.457 30.9059C26.6733 30.8672 26.9334 30.939 27.0792 31.1311C27.1677 31.2479 27.2041 31.3918 27.2618 31.5247C27.349 31.7257 27.4958 31.9127 27.6886 32.0125C27.8813 32.1121 28.1211 32.1091 28.2646 31.9751C28.4534 31.7987 28.4264 31.4816 28.4316 31.206C28.4368 30.9303 28.5449 30.6065 28.8144 30.5989C29.1184 30.5902 29.354 30.9963 29.6609 31.0194C29.9004 31.0373 30.0953 30.5685 29.8786 30.2351H29.8787C29.8117 30.1124 29.678 30.013 29.5499 29.947C29.3622 29.85 29.148 29.7712 29.0365 29.5833C29.0259 29.5657 29.0182 29.5464 29.0163 29.5267C29.0083 29.4435 29.0886 29.4233 29.149 29.3953C29.4226 29.2683 29.393 28.8327 29.6211 28.6389C29.6635 28.6028 29.7159 28.5733 29.7512 28.5319C29.8089 28.5604 29.8636 28.596 29.9137 28.6402C30.1919 28.8849 30.2343 29.2857 30.3159 29.6381C30.4112 30.0497 30.68 30.5221 31.0857 30.5609C31.449 30.5957 31.7104 30.2219 31.6796 29.851C31.6487 29.48 31.4036 29.1363 31.1262 28.8648C31.0272 28.7678 30.9112 28.6459 30.9369 28.5198C30.9394 28.5073 30.9434 28.4954 30.9484 28.4839C31.4691 28.6153 32.0431 28.5041 32.4865 28.1335C33.2213 27.5189 33.3188 26.425 32.7043 25.6903" fill="#E51E25"/>
<path d="M33.1603 28.6606C32.9478 28.8382 32.9196 29.1545 33.0973 29.367C33.275 29.5795 33.5913 29.6078 33.8038 29.4301C34.0163 29.2524 34.0445 28.9361 33.8668 28.7236C33.6891 28.5111 33.3728 28.4829 33.1603 28.6606Z" fill="#E51E25"/>
<path d="M33.3957 26.5309C33.2374 26.6634 33.2163 26.899 33.3488 27.0574C33.4812 27.2157 33.7169 27.2367 33.8753 27.1045C34.0336 26.972 34.0546 26.7362 33.9222 26.5778C33.7898 26.4195 33.5541 26.3984 33.3957 26.5309" fill="#E51E25"/>
<path d="M33.035 21.6332C32.9752 21.6833 32.9672 21.7724 33.0173 21.8323C33.0673 21.8919 33.1564 21.9 33.2162 21.8499C33.276 21.7998 33.284 21.7109 33.2339 21.651C33.1839 21.5911 33.0948 21.5833 33.035 21.6332" fill="#E51E25"/>
<path d="M32.9393 22.6289C32.9962 22.5814 33.0038 22.4965 32.9562 22.4396C32.9086 22.3827 32.8238 22.3753 32.7669 22.4228C32.71 22.4704 32.7024 22.5551 32.7501 22.612C32.7976 22.6688 32.8824 22.6765 32.9393 22.6289" fill="#E51E25"/>
<path d="M30.7594 32.1335C30.4852 32.3628 30.4488 32.771 30.6781 33.0453C30.9074 33.3196 31.3157 33.3559 31.5899 33.1266C31.8641 32.8973 31.9006 32.4891 31.6712 32.2149C31.4419 31.9406 31.0337 31.9043 30.7594 32.1335" fill="#E51E25"/>
<path d="M32.5981 32.4464C32.4776 32.5473 32.4616 32.7267 32.5624 32.8472C32.6631 32.9678 32.8426 32.9837 32.9631 32.8829C33.0836 32.7821 33.0996 32.6027 32.9988 32.4821C32.898 32.3617 32.7186 32.3456 32.5981 32.4464Z" fill="#E51E25"/>
<path d="M32.2379 31.5642C32.1783 31.6141 32.1705 31.7026 32.2202 31.7621C32.27 31.8217 32.3586 31.8296 32.4181 31.7797C32.4776 31.73 32.4855 31.6415 32.4357 31.5818C32.3859 31.5224 32.2974 31.5145 32.2379 31.5642Z" fill="#E51E25"/>
<path d="M31.6488 31.4242C31.6802 31.3979 31.6843 31.3512 31.6581 31.32C31.6319 31.2886 31.5852 31.2843 31.5539 31.3106C31.5225 31.3368 31.5184 31.3835 31.5446 31.4149C31.5708 31.4463 31.6175 31.4503 31.6488 31.4242Z" fill="#E51E25"/>
</svg>
