<svg width="42" height="42" viewBox="0 0 42 42" fill="none" xmlns="http://www.w3.org/2000/svg">
<rect width="42" height="42" fill="white"/>
<circle cx="21" cy="21" r="20" fill="#3100FF"/>
<path fill-rule="evenodd" clip-rule="evenodd" d="M39.7548 24.0602L34.8191 23.261C34.9378 22.528 35 21.7731 35 21C35 20.2269 34.9378 19.472 34.8191 18.739L39.7548 17.9398C39.9162 18.936 40 19.9582 40 21C40 22.0418 39.9162 23.064 39.7548 24.0602ZM36.424 9.90253L32.3678 12.8261C31.4824 11.5976 30.4024 10.5176 29.1739 9.63221L32.0975 5.576C33.7619 6.77566 35.2243 8.23809 36.424 9.90253ZM24.0602 2.24515L23.261 7.18087C22.528 7.06218 21.7731 7 21 7C20.2269 7 19.472 7.06218 18.739 7.18087L17.9398 2.24515C18.936 2.08384 19.9582 2 21 2C22.0418 2 23.064 2.08384 24.0602 2.24515ZM9.90253 5.576L12.8261 9.63221C11.5976 10.5176 10.5176 11.5976 9.63221 12.8261L5.576 9.90253C6.77566 8.23809 8.23809 6.77566 9.90253 5.576ZM2.24515 17.9398C2.08384 18.936 2 19.9582 2 21C2 22.0418 2.08384 23.064 2.24515 24.0602L7.18087 23.261C7.06218 22.528 7 21.7731 7 21C7 20.2269 7.06218 19.472 7.18087 18.739L2.24515 17.9398ZM5.576 32.0975L9.63221 29.1739C10.5176 30.4024 11.5976 31.4824 12.8261 32.3678L9.90253 36.424C8.23809 35.2243 6.77566 33.7619 5.576 32.0975ZM17.9398 39.7548L18.739 34.8191C19.472 34.9378 20.2269 35 21 35C21.7731 35 22.528 34.9378 23.261 34.8191L24.0602 39.7548C23.064 39.9162 22.0418 40 21 40C19.9582 40 18.936 39.9162 17.9398 39.7548ZM32.0975 36.424L29.1739 32.3678C30.4024 31.4824 31.4824 30.4024 32.3678 29.1739L36.424 32.0975C35.2243 33.7619 33.7619 35.2243 32.0975 36.424Z" fill="white"/>
</svg>
