<?xml version="1.0" standalone="no"?>
<!DOCTYPE svg PUBLIC "-//W3C//DTD SVG 20010904//EN"
 "http://www.w3.org/TR/2001/REC-SVG-20010904/DTD/svg10.dtd">
<svg version="1.0" xmlns="http://www.w3.org/2000/svg"
 width="600.000000pt" height="600.000000pt" viewBox="0 0 600.000000 600.000000"
 preserveAspectRatio="xMidYMid meet">

<g transform="translate(0.000000,600.000000) scale(0.100000,-0.100000)"
fill="#000000" stroke="none">
<path d="M920 5244 c-58 -11 -123 -38 -151 -61 -83 -70 -87 -199 -8 -267 47
-40 78 -50 246 -76 72 -11 139 -23 150 -26 46 -17 64 -54 47 -99 -12 -29 -65
-48 -139 -48 -92 -1 -141 20 -160 68 l-15 35 -100 0 c-112 0 -110 2 -84 -73
34 -102 142 -148 344 -150 250 -1 360 67 360 221 0 122 -59 161 -302 201 -90
15 -173 33 -185 39 -29 16 -31 71 -5 95 41 37 193 38 234 1 11 -11 24 -29 29
-41 8 -22 14 -23 109 -23 l100 0 -6 28 c-18 75 -75 132 -156 157 -52 17 -256
29 -308 19z"/>
<path d="M1480 4895 l0 -335 85 0 85 0 0 260 c0 143 4 260 8 260 5 0 55 -117
111 -260 l102 -260 74 0 74 0 103 260 c56 143 106 260 110 260 5 0 8 -117 8
-260 l0 -260 85 0 85 0 0 335 0 335 -133 0 -132 0 -96 -232 c-53 -128 -100
-232 -104 -231 -5 1 -30 55 -57 120 -27 65 -70 169 -96 231 l-47 112 -132 0
-133 0 0 -335z"/>
<path d="M2520 4895 l0 -335 90 0 90 0 0 335 0 335 -90 0 -90 0 0 -335z"/>
<path d="M2810 4895 l0 -335 85 0 85 0 0 33 c1 17 0 118 0 224 0 105 3 194 8
197 5 3 89 -98 188 -224 l178 -230 98 0 98 0 0 335 0 336 -87 -3 -88 -3 -2
-223 c-1 -123 -3 -225 -5 -227 -2 -2 -81 100 -176 226 l-172 229 -105 0 -105
0 0 -335z"/>
<path d="M3650 5171 c0 -55 2 -59 26 -65 14 -4 114 -6 222 -6 l196 2 -1 -49
c0 -26 -1 -58 -2 -70 l-1 -23 -210 0 -211 0 3 -57 3 -58 210 -5 209 -5 -1 -65
c-1 -36 -2 -68 -2 -72 -1 -5 -100 -8 -221 -8 l-220 0 0 -65 0 -65 310 0 310 0
0 335 0 335 -310 0 -310 0 0 -59z"/>
<path d="M4370 4895 l0 -335 85 0 85 0 0 260 c0 143 3 260 8 260 4 0 53 -116
108 -258 l102 -257 74 -3 75 -3 104 263 104 262 5 -259 5 -260 88 -3 87 -3 0
336 0 335 -134 0 -133 0 -94 -229 c-52 -125 -98 -229 -104 -231 -5 -1 -53 102
-105 229 l-95 231 -132 0 -133 0 0 -335z"/>
<path d="M3013 4346 c2 -75 -13 -99 -31 -49 l-10 28 -1 -28 c-1 -24 -5 -28
-23 -25 -16 2 -24 12 -28 33 -4 24 -7 26 -12 13 -11 -27 -31 -22 -71 18 l-36
37 9 -33 c12 -42 8 -46 -23 -25 -25 16 -25 16 -20 -4 5 -19 1 -21 -39 -21 -40
0 -45 -2 -44 -22 1 -23 -1 -24 -71 -27 -16 -1 -21 -5 -16 -17 5 -14 -1 -16
-40 -13 -57 5 -61 -5 -10 -22 33 -10 35 -13 18 -20 -29 -11 -67 -11 -60 1 10
16 -11 11 -26 -6 -10 -12 -24 -15 -52 -11 -29 4 -36 2 -28 -6 17 -17 13 -25
-21 -43 -18 -9 -51 -31 -73 -49 -22 -18 -55 -36 -74 -40 -28 -6 -31 -9 -18
-17 30 -16 20 -55 -20 -84 -52 -38 -62 -48 -40 -41 14 5 12 -1 -9 -28 -14 -19
-32 -35 -40 -35 -19 0 -37 -37 -21 -44 9 -3 8 -8 -3 -18 -8 -7 -22 -21 -30
-31 -13 -18 -12 -19 20 -16 40 4 41 -7 9 -53 -35 -49 -2 -30 47 27 26 30 51
55 56 55 4 0 5 -15 1 -32 l-6 -33 48 48 c44 44 48 47 61 30 17 -23 18 -43 1
-43 -12 0 -86 -143 -91 -175 -1 -8 -8 -21 -14 -27 -7 -7 -12 -19 -12 -28 1
-19 40 25 40 45 0 7 9 15 19 18 11 2 31 28 45 56 38 74 53 66 47 -25 -3 -42
15 -51 44 -24 13 12 29 19 35 15 7 -4 14 1 17 14 11 42 23 8 23 -64 0 -74 14
-107 26 -60 7 28 14 31 32 13 9 -9 14 -4 23 21 11 30 13 32 22 15 15 -28 15
-28 32 -14 13 11 18 10 29 -5 13 -18 14 -18 24 1 10 19 11 19 17 -1 3 -11 17
-42 30 -70 28 -61 45 -121 46 -166 0 -34 0 -34 16 -11 8 12 22 22 29 22 8 0
16 12 20 28 3 15 12 47 19 72 13 44 14 44 30 -5 7 -24 35 -18 36 8 1 17 2 18
6 4 2 -9 26 -40 53 -67 26 -27 50 -55 52 -62 4 -10 8 -10 20 -1 12 11 18 9 35
-10 11 -12 24 -32 28 -44 7 -24 31 -31 37 -11 3 7 18 12 34 13 28 0 29 2 32
53 2 28 7 52 13 52 5 0 9 7 9 16 0 9 9 18 20 21 11 3 20 9 20 14 0 21 22 6 32
-21 13 -38 30 -34 39 8 7 32 25 62 39 62 4 0 15 -21 25 -47 22 -59 39 -80 31
-38 -8 45 -11 124 -4 131 10 9 50 -36 45 -50 -3 -7 1 -13 9 -13 9 0 14 11 14
29 0 34 17 37 29 4 5 -13 17 -26 26 -30 14 -5 17 -1 13 23 -3 21 -1 28 9 24 7
-3 19 0 27 6 10 8 16 8 26 -4 18 -21 33 -19 27 5 -3 12 1 23 10 29 12 6 14 17
10 39 -8 37 12 35 38 -4 8 -13 20 -24 25 -24 13 0 13 37 0 45 -5 3 -10 13 -10
21 0 8 5 14 10 14 6 0 10 -6 10 -13 0 -14 31 -47 43 -47 11 0 -13 53 -30 65
-11 8 -14 19 -9 31 6 16 9 15 32 -11 l24 -28 -6 33 c-5 24 -4 31 4 26 7 -4 12
-13 12 -19 0 -7 12 -26 27 -42 24 -26 28 -27 31 -11 2 10 -1 29 -8 41 -7 12
-10 31 -8 41 2 13 10 2 22 -31 10 -27 36 -87 57 -131 39 -81 39 -82 38 -200 0
-66 -4 -128 -9 -139 -8 -18 -9 -17 -9 7 -1 15 -5 30 -11 33 -6 4 -10 -38 -10
-118 0 -94 4 -137 18 -178 19 -53 50 -180 71 -289 6 -30 12 -111 14 -180 2
-139 11 -154 54 -91 19 28 71 68 78 59 1 -2 12 -26 25 -55 38 -86 67 -81 89
17 11 47 11 73 2 117 -16 80 -14 148 4 163 8 7 15 19 15 28 0 12 4 12 21 -4
12 -10 28 -32 36 -47 25 -49 45 -67 69 -61 18 5 26 -3 47 -48 26 -52 33 -49
28 12 -2 26 -49 148 -63 164 -4 6 -8 24 -8 41 0 36 -8 49 -24 36 -6 -4 -27
-11 -46 -15 -19 -3 -42 -16 -50 -27 -10 -12 -22 -18 -32 -14 -36 14 -25 84 14
86 40 3 103 -3 108 -10 3 -3 11 -7 18 -9 16 -3 16 15 -1 21 -18 7 -47 68 -47
99 0 28 -34 104 -60 133 -10 11 -20 40 -23 65 -6 52 -41 208 -59 256 -10 29
-13 31 -24 16 -11 -15 -13 -15 -17 -2 -28 88 -38 132 -33 137 3 3 13 -10 21
-30 8 -21 17 -37 20 -37 7 0 -6 60 -26 115 -9 28 -23 75 -30 105 -13 53 -48
117 -72 132 -8 5 -6 11 7 21 19 14 18 15 -15 22 -29 6 -125 49 -139 62 -2 2 2
8 9 13 10 6 3 11 -25 19 -21 6 -44 11 -50 11 -6 0 -16 11 -22 25 -15 33 -15
33 6 38 16 4 16 5 0 6 -22 1 -23 13 -2 54 16 31 16 32 -2 16 -11 -9 -27 -19
-37 -22 -15 -6 -16 -2 -12 24 3 17 2 28 -3 25 -5 -3 -8 3 -8 12 1 23 -18 28
-22 5 -7 -43 -12 -47 -31 -27 -10 11 -22 33 -28 49 l-10 30 -7 -37 c-4 -21
-10 -38 -15 -38 -4 0 -20 16 -34 37 -20 28 -24 41 -16 55 11 21 -1 24 -20 6
-10 -11 -15 -9 -27 6 -13 18 -11 23 13 48 15 15 22 28 15 28 -6 0 -14 -5 -17
-10 -9 -15 -25 -2 -25 21 0 10 -4 19 -10 19 -5 0 -10 -11 -10 -24 0 -13 -8
-34 -18 -46 l-19 -23 -23 37 c-17 28 -25 34 -31 24 -7 -10 -14 -6 -34 16 -14
16 -25 33 -25 38 0 4 -4 8 -10 8 -5 0 -10 -14 -10 -31 0 -20 -4 -29 -12 -26
-7 2 -13 11 -13 19 0 8 -5 22 -11 29 -6 8 -14 22 -17 32 -8 23 -24 22 -32 -3
-10 -32 -42 -24 -61 15 -20 43 -34 53 -34 26 0 -27 -8 -30 -63 -24 -34 4 -47
10 -47 22 -1 9 -7 30 -15 46 -14 29 -14 27 -12 -39z m407 -430 c0 -15 -7 -11
-30 20 -38 51 -38 66 0 29 17 -16 30 -38 30 -49z m-1178 -48 c-7 -7 -12 -8
-12 -2 0 14 12 26 19 19 2 -3 -1 -11 -7 -17z m1466 -203 c-3 -3 -9 2 -12 12
-6 14 -5 15 5 6 7 -7 10 -15 7 -18z m38 -53 c-9 -8 -26 10 -26 26 1 15 2 15
15 -2 8 -11 13 -21 11 -24z m-63 -32 c-6 -22 -18 -26 -28 -10 -8 13 3 30 20
30 8 0 11 -7 8 -20z m330 -119 c2 -11 0 -24 -7 -31 -8 -8 -8 -13 1 -18 7 -4
16 -25 22 -47 5 -22 14 -58 20 -80 16 -64 25 -205 13 -205 -6 0 -13 18 -17 40
-7 39 -19 52 -28 28 -2 -7 -7 -10 -11 -6 -4 3 -2 16 4 29 15 28 16 117 1 132
-8 8 -11 -7 -11 -58 0 -37 -3 -65 -7 -62 -10 11 -35 157 -33 202 0 21 7 47 15
55 8 9 15 22 15 28 0 19 17 14 23 -7z m126 -239 c18 -51 29 -97 26 -103 -4 -5
-1 -16 5 -24 7 -8 9 -15 4 -15 -23 1 -41 30 -53 85 -7 33 -17 76 -22 96 -12
47 -12 76 0 64 5 -6 23 -52 40 -103z m61 23 c0 -39 -15 -64 -24 -40 -8 22 -8
80 1 88 10 11 23 -15 23 -48z m-4 -102 c-10 -10 -19 5 -10 18 6 11 8 11 12 0
2 -7 1 -15 -2 -18z m23 -680 c1 -14 -5 -23 -14 -23 -25 0 -36 42 -17 63 16 18
17 18 23 0 4 -10 8 -28 8 -40z m-69 27 c0 -5 -4 -10 -10 -10 -5 0 -10 5 -10
10 0 6 5 10 10 10 6 0 10 -4 10 -10z"/>
<path d="M2045 3509 c-4 -6 -5 -12 -2 -15 2 -3 7 2 10 11 7 17 1 20 -8 4z"/>
<path d="M1991 3401 c-6 -21 -17 -41 -25 -44 -7 -3 -16 -22 -20 -41 -8 -41
-22 -46 -36 -13 -8 20 -9 19 -9 -10 -1 -25 -5 -31 -16 -27 -11 4 -19 -3 -26
-25 -8 -23 -16 -30 -28 -26 -12 4 -22 -5 -34 -30 -9 -20 -17 -43 -17 -53 0 -9
-9 -39 -19 -67 -10 -27 -24 -68 -31 -90 -7 -22 -15 -46 -17 -52 -3 -7 -1 -13
5 -13 5 0 12 9 15 20 9 35 27 22 27 -20 0 -42 12 -51 30 -22 8 12 13 13 16 4
3 -6 10 -9 16 -6 6 4 8 -17 6 -57 -3 -54 -6 -64 -21 -63 -10 1 -17 -5 -17 -15
0 -9 -3 -12 -8 -6 -13 18 -51 35 -78 35 -55 0 -114 -109 -127 -237 -6 -52 7
-80 23 -53 5 8 10 2 15 -19 9 -41 23 -48 31 -15 4 15 27 65 51 111 39 73 47
82 63 73 11 -6 25 -9 32 -8 7 2 14 -8 16 -22 2 -14 8 -29 13 -35 25 -26 -10
-65 -60 -65 -14 0 -24 -17 -40 -63 -26 -78 -26 -103 -1 -169 11 -29 20 -60 20
-68 0 -28 80 -109 118 -120 46 -12 123 -13 103 -1 -7 5 -17 30 -22 56 -5 27
-16 56 -24 65 -16 17 -18 77 -6 120 7 24 8 23 19 -15 7 -22 12 -49 12 -60 1
-22 27 -62 35 -53 3 3 -1 34 -10 69 -17 72 -19 190 -4 264 18 91 50 397 59
560 5 88 13 189 18 225 9 54 8 69 -6 92 -9 16 -19 28 -23 28 -3 0 -11 -18 -18
-39z m-106 -1112 c9 -13 -3 -59 -14 -59 -11 0 -24 48 -16 60 8 13 22 13 30 -1z
m45 -149 c0 -5 -4 -10 -10 -10 -5 0 -10 5 -10 10 0 6 5 10 10 10 6 0 10 -4 10
-10z"/>
<path d="M4166 3361 c-4 -7 -5 -15 -2 -18 9 -9 19 4 14 18 -4 11 -6 11 -12 0z"/>
<path d="M2235 2871 c-45 -21 -113 -83 -124 -115 -4 -11 -7 -55 -6 -97 2 -73
3 -78 37 -112 24 -24 48 -37 77 -42 23 -4 45 -13 48 -20 2 -8 11 -11 18 -9 7
3 16 0 20 -5 3 -6 11 -9 16 -6 5 4 17 1 26 -4 16 -9 14 -10 -9 -11 -16 0 -28
-6 -28 -13 0 -23 64 -73 123 -97 48 -19 68 -21 119 -16 86 10 131 30 123 55
-9 29 24 36 57 11 48 -35 59 -28 107 71 53 112 63 164 33 173 -12 4 -28 26
-39 52 -13 32 -25 46 -43 50 -14 3 -32 9 -40 15 -46 28 -130 60 -182 69 -32 5
-75 19 -94 31 -19 11 -41 18 -49 15 -8 -3 -33 1 -56 9 -54 20 -85 19 -134 -4z
m406 -409 c-6 -11 -11 -30 -11 -41 0 -16 -6 -21 -27 -21 -24 0 -25 1 -11 18 8
9 21 32 28 50 8 21 16 30 22 24 6 -6 6 -17 -1 -30z m-186 -51 c-13 -12 -87 1
-93 17 -5 16 35 16 42 0 3 -9 8 -8 17 6 10 17 13 17 27 2 10 -10 13 -19 7 -25z
m91 -1 c14 0 22 -4 19 -10 -8 -12 -72 -13 -79 -1 -8 12 6 22 22 16 7 -3 25 -5
38 -5z"/>
<path d="M3515 2833 c-11 -3 -27 -11 -35 -17 -17 -14 -44 -25 -145 -56 -55
-16 -77 -19 -98 -11 -15 6 -27 15 -27 21 0 5 -4 10 -10 10 -5 0 -10 -10 -10
-22 0 -22 -36 -48 -65 -48 -6 0 -23 -12 -37 -27 -20 -22 -26 -39 -27 -84 -2
-51 1 -58 24 -73 15 -10 35 -35 44 -57 12 -26 21 -35 28 -28 7 7 14 5 23 -6 7
-8 23 -15 36 -15 12 0 40 -16 61 -35 45 -41 76 -49 148 -40 59 7 80 23 70 55
-5 17 -10 19 -21 9 -15 -12 -95 -19 -127 -11 -18 5 -47 61 -47 90 0 24 23 -2
36 -41 10 -31 13 -32 67 -32 66 1 100 25 114 82 10 43 28 40 27 -5 -1 -22 2
-30 9 -23 5 5 15 7 22 4 7 -2 37 7 67 20 29 13 61 27 71 30 9 4 22 18 27 32 8
21 6 32 -12 55 -12 17 -27 30 -34 30 -6 0 -14 8 -18 18 -3 9 -9 23 -12 31 -4
9 -2 12 7 9 8 -3 15 -10 15 -16 1 -7 2 -16 3 -22 2 -16 31 -11 31 5 0 8 7 15
15 15 15 0 45 48 45 73 0 7 -17 27 -37 44 -41 32 -123 49 -142 30 -8 -8 -14
-8 -23 1 -12 12 -28 13 -63 5z"/>
<path d="M1614 2318 c-4 -7 -4 -10 1 -6 4 4 14 0 21 -10 12 -15 15 -15 23 -2
7 10 6 17 -2 22 -18 11 -35 10 -43 -4z"/>
<path d="M1635 2260 c4 -14 14 -41 22 -60 12 -29 16 -32 24 -18 10 18 2 48
-13 48 -5 0 -6 10 -2 23 3 12 3 19 -1 15 -5 -4 -15 -2 -23 5 -13 10 -14 8 -7
-13z"/>
<path d="M1973 2043 c-4 -9 3 -33 15 -54 24 -42 32 -110 14 -131 -6 -8 -16
-27 -22 -43 l-11 -30 26 25 c54 50 65 96 43 174 -18 65 -51 95 -65 59z"/>
<path d="M2700 2008 c-12 -28 -21 -68 -21 -87 1 -20 2 -48 3 -63 1 -44 12 -33
27 29 7 31 18 68 23 82 18 42 19 68 4 80 -11 9 -18 1 -36 -41z"/>
<path d="M2153 1898 c-1 -10 3 -18 9 -16 18 6 21 25 5 31 -8 3 -13 -3 -14 -15z"/>
<path d="M3947 1854 c-4 -4 -7 -21 -7 -38 0 -27 2 -29 15 -15 11 11 13 22 7
38 -4 12 -11 19 -15 15z"/>
<path d="M2233 1795 c0 -22 2 -30 4 -17 2 12 2 30 0 40 -3 9 -5 -1 -4 -23z"/>
<path d="M2795 1820 c-3 -5 -24 -10 -46 -10 -29 0 -39 -4 -39 -16 0 -41 106
-163 142 -164 9 0 20 -5 23 -10 4 -6 15 -8 25 -5 10 3 25 -1 33 -10 18 -17 43
-20 52 -5 4 6 15 8 26 5 16 -5 19 -1 19 27 0 42 7 51 50 68 51 19 100 58 100
79 0 28 -56 33 -107 10 -23 -10 -45 -23 -48 -29 -10 -16 -62 -12 -69 5 -3 8
-14 15 -25 15 -11 0 -21 6 -24 13 -3 9 -7 9 -20 -2 -14 -11 -18 -11 -24 5 -11
32 -54 47 -68 24z"/>
<path d="M1906 1797 c6 -18 44 -19 44 -1 0 8 -10 14 -25 14 -16 0 -23 -5 -19
-13z"/>
<path d="M2361 1584 c0 -11 3 -14 6 -6 3 7 2 16 -1 19 -3 4 -6 -2 -5 -13z"/>
<path d="M2414 1499 c-16 -18 -16 -21 -2 -36 13 -12 14 -22 7 -42 -12 -30 -26
-41 -56 -41 -16 0 -21 -6 -21 -22 1 -13 6 -29 11 -36 6 -7 13 -30 16 -50 5
-27 14 -40 33 -49 43 -21 72 -123 35 -123 -6 0 -7 3 -4 6 9 10 -12 46 -24 39
-14 -10 -11 -25 7 -25 8 0 13 -4 10 -8 -7 -12 182 -194 194 -187 6 4 9 1 8 -7
-4 -19 225 -132 296 -146 59 -12 137 -3 181 21 11 6 22 12 25 12 3 1 16 5 30
9 24 8 24 9 5 16 -11 4 -44 6 -72 3 -36 -3 -53 -1 -53 7 0 6 -5 8 -12 4 -30
-19 -69 -11 -89 18 -11 15 -29 28 -39 28 -10 0 -25 11 -34 25 -9 14 -27 27
-41 31 -14 3 -25 9 -25 14 0 9 -70 30 -100 30 -17 0 -21 -4 -17 -20 3 -11 2
-20 -3 -20 -20 0 -78 31 -83 45 -4 8 -14 15 -24 16 -12 1 -9 3 7 8 28 8 42 51
17 51 -8 0 -20 6 -26 14 -9 10 -4 19 23 40 19 14 43 26 53 26 10 0 26 9 36 20
9 11 25 20 36 20 10 0 24 7 31 15 10 12 15 12 36 -1 39 -26 233 -11 354 28 52
16 101 35 108 40 19 17 14 46 -10 54 -26 8 -226 6 -240 -2 -5 -3 -28 4 -53 16
-24 12 -50 20 -57 19 -30 -4 -68 2 -68 10 0 5 39 9 88 9 66 0 105 6 164 26 79
26 215 42 326 39 53 -1 62 1 62 16 0 20 -35 61 -53 61 -7 0 -45 -9 -85 -19
-54 -14 -92 -18 -146 -14 -55 4 -79 2 -104 -11 -35 -18 -99 -21 -152 -6 -48
13 -117 14 -169 2 -37 -8 -52 -6 -103 15 l-60 24 -54 -20 c-52 -18 -55 -18
-64 -1 -15 27 -36 31 -56 9z m222 -245 c2 -18 -2 -24 -16 -24 -23 0 -33 29
-24 66 l7 28 15 -23 c9 -12 17 -33 18 -47z m-160 -154 c0 -11 -4 -20 -8 -20
-10 0 -11 24 -1 33 9 9 9 10 9 -13z m184 -155 c0 -2 -9 -3 -19 -2 -11 0 -18 5
-15 9 4 6 34 0 34 -7z m20 -20 c-7 -8 -17 -15 -22 -15 -11 0 14 29 26 30 5 0
3 -7 -4 -15z"/>
<path d="M2295 1259 c-4 -6 -5 -12 -2 -15 2 -3 7 2 10 11 7 17 1 20 -8 4z"/>
<path d="M2365 1170 c-3 -6 1 -7 9 -4 18 7 21 14 7 14 -6 0 -13 -4 -16 -10z"/>
</g>
</svg>
