<?xml version="1.0" encoding="UTF-8"?>
<svg width="319px" height="251px" viewBox="0 0 319 251" version="1.1" xmlns="http://www.w3.org/2000/svg" xmlns:xlink="http://www.w3.org/1999/xlink">
    <!-- Generator: Sketch 56.2 (81672) - https://sketch.com -->
    <title>Group 4</title>
    <desc>Created with Sketch.</desc>
    <g id="✅-Getting-Started" stroke="none" stroke-width="1" fill="none" fill-rule="evenodd">
        <g id="Onboarding-Mobile---Your-Ethereum-Accoun-Is-Live" transform="translate(0.000000, -134.000000)">
            <g id="Group-4" transform="translate(-1.500000, 134.902344)">
                <g id="Group-3">
                    <path d="M118.89564,87.3378051 C122.318544,86.150644 143.005579,45.1922703 135.536167,23.4995229 C128.066755,1.80677542 111.749501,-3.70443525 94.5065479,2.23278963 C77.2635948,8.17001452 69.0202719,27.8491679 76.4896838,49.5419154 C83.9590958,71.2346628 115.472735,88.5249662 118.89564,87.3378051 Z" id="Oval" fill="#2D2CE5"></path>
                    <path d="M117.020393,90.4885074 C111.847398,118.636889 101.351295,144.293001 85.5320862,167.456843 C69.7128771,190.620685 41.4642896,214.773227 0.786323456,239.91447" id="Path-14" stroke="#1D144F" stroke-width="2"></path>
                    <path d="M115.049006,86.4063221 C111.901178,92.2825236 111.274078,94.8655694 113.167704,94.1554595 C116.008144,93.0902946 115.653089,92.0251297 116.718254,92.0251297 C117.783419,92.0251297 119.710023,95.728356 121.404938,95.3046272 C123.099853,94.8808984 121.828667,90.6436103 123.099853,90.2198815 C124.37104,89.7961526 128.838576,91.4610944 129.032057,90.2198815 C129.225537,88.9786685 121.9777,85.1351357 120.55748,85.1351357 C119.610667,85.1351357 117.774509,85.5588645 115.049006,86.4063221 Z" id="Path-13" fill="#2D2CE5"></path>
                    <path d="M122.442903,84.4571173 C117.825407,85.3035892 101.247056,90.2961225 122.940459,84.9963215" id="Path-15" stroke="#FFFFFF"></path>
                    <path d="M117.16765,12.2537798 C120.274995,15.0786385 122.252396,17.9034973 123.099853,20.728356 C123.099853,20.728356 124.653526,20.4458702 127.76087,19.8808984 C126.065955,16.208582 123.664825,13.3837233 120.55748,11.4063221 C120.55748,11.4063221 119.427537,11.688808 117.16765,12.2537798 Z" id="Path-29" fill="#FFFFFF"></path>
                </g>
                <g id="Group-3-Copy" transform="translate(33.050847, 60.793716)">
                    <path d="M47.936017,74.5257627 C50.5458397,73.6206017 66.3188444,42.3915427 60.6237279,25.8517236 C54.9286115,9.31190456 42.4873831,5.1098353 29.3403474,9.63672271 C16.1933118,14.1636101 9.90812038,29.1681474 15.6032368,45.7079664 C21.2983532,62.2477855 45.3261942,75.4309238 47.936017,74.5257627 Z" id="Oval" fill="#2BB160" transform="translate(37.676277, 41.252028) rotate(30.000000) translate(-37.676277, -41.252028) "></path>
                    <path d="M27.1180604,78.5593015 C15.7782584,100.120044 13.6394308,117.39759 20.7015777,130.39194 C27.7637246,143.386291 22.1140071,162.736573 3.75242515,188.442788" id="Path-14" stroke="#1D144F" stroke-width="2"></path>
                    <path d="M25.317337,75.638745 C22.9172493,80.1191046 22.4391112,82.0885697 23.8829227,81.5471404 C26.04864,80.7349964 25.7779254,79.9228525 26.5900693,79.9228525 C27.4022133,79.9228525 28.8711688,82.7464087 30.1634713,82.4233331 C31.4557738,82.1002575 30.4865469,78.8695012 31.4557738,78.5464256 C32.4250007,78.22335 35.8313118,79.4927989 35.9788325,78.5464256 C36.1263533,77.6000523 30.6001787,74.6695181 29.5173201,74.6695181 C28.7954143,74.6695181 27.3954199,74.9925937 25.317337,75.638745 Z" id="Path-13" fill="#2BB160" transform="translate(29.525594, 78.559301) rotate(36.000000) translate(-29.525594, -78.559301) "></path>
                    <path d="M33.3047826,72.9607325 C29.7841337,73.6061322 17.1438293,77.4127314 33.6841479,73.3718533" id="Path-15" stroke="#FFFFFF" transform="translate(29.525594, 74.082778) rotate(30.000000) translate(-29.525594, -74.082778) "></path>
                    <path d="M51.7643766,22.9023202 C54.1335978,25.0561577 55.6412841,27.2099952 56.2874353,29.3638327 C56.2874353,29.3638327 57.472046,29.1484489 59.8412672,28.7176814 C58.5489647,25.9176927 56.7182028,23.7638552 54.3489816,22.256169 C54.3489816,22.256169 53.4874466,22.4715527 51.7643766,22.9023202 Z" id="Path-29" fill="#FFFFFF"></path>
                </g>
                <circle id="Oval" fill="#837AFF" cx="33.9219482" cy="82.038752" r="32.3785194"></circle>
                <polygon id="Path-30" stroke="#E6AE31" stroke-width="4" transform="translate(59.197071, 50.486770) rotate(-34.000000) translate(-59.197071, -50.486770) " points="59.1970709 38.6223634 40.1292743 62.3511769 78.2648675 62.3511769"></polygon>
                <path d="M210.108357,230.168707 L255.023612,192.033114" id="Line-5" stroke="#837AFF" stroke-width="3" stroke-linecap="square"></path>
                <g id="Group-2" transform="translate(121.125307, 114.322858)">
                    <path d="M66.0109119,17.8757017 L-1.33758381,17.8757017 L-0.112199154,16.6050706 C8.3289911,7.85219601 19.9326914,2.81637963 32.336664,2.81637963 C44.7406367,2.81637963 56.344337,7.85219601 64.7855273,16.6050706 L66.0109119,17.8757017 Z" id="Combined-Shape" stroke="#1D144F" stroke-width="1.5" fill="#FFFFFF"></path>
                    <path d="M81.1936229,48.4521242 L17.3756063,48.4521242 C25.4374806,40.0925715 36.753812,34.8928022 49.2846146,34.8928022 C61.8154172,34.8928022 73.1317486,40.0925715 81.1936229,48.4521242 Z" id="Combined-Shape-Copy" stroke="#1D144F" stroke-width="1.5" fill="#1D144F" transform="translate(49.284615, 41.672463) scale(1, -1) rotate(-315.000000) translate(-49.284615, -41.672463) "></path>
                    <path d="M37.4078075,35.6903733 L3.9149439,69.1832369 L3.9149439,35.6903733 L37.4078075,35.6903733 Z" id="Path-32" stroke="#1D144F" stroke-width="1.5"></path>
                    <path d="M22.8852829,42.3728814 L58.6174463,6.64049055 C61.3579663,2.21349685 64.4147,0 67.7876476,0 C71.1605952,0 74.1119243,2.21349685 76.641635,6.64049055 L72.847069,6.64049055 C69.4741214,6.64049055 67.7876476,8.53777357 67.7876476,12.3323396 C67.7876476,14.8068998 71.2091292,26.5576836 58.4785032,34.3217293 C53.9512338,37.0827817 42.086827,39.7664991 22.8852829,42.3728814 Z" id="Path-33" stroke="#1D144F" stroke-width="1.5" fill="#FFFFFF"></path>
                    <circle id="Oval" fill="#1D144F" cx="70.574525" cy="3.56637963" r="1"></circle>
                    <polygon id="Path-32-Copy" fill="#FFFFFF" points="35.5971473 36.4403733 4.6649439 67.3725767 4.6649439 36.4403733"></polygon>
                    <path d="M64.2456723,17.1257017 L0.427655766,17.1257017 C8.48953006,8.76614894 19.8058615,3.56637963 32.336664,3.56637963 C44.8674666,3.56637963 56.183798,8.76614894 64.2456723,17.1257017 Z" id="Combined-Shape-Copy-2" fill="#FFFFFF"></path>
                    <circle id="Oval" fill="#1D144F" cx="70.574525" cy="3.56637963" r="1"></circle>
                </g>
                <circle id="Oval" stroke="#2D2CE5" stroke-width="2" cx="203.347375" cy="203.034967" r="11.883085"></circle>
                <circle id="Oval-Copy-5" stroke="#F1CD41" stroke-width="2" cx="237.74244" cy="33.1138888" r="17.3728814"></circle>
                <path d="M108.413442,231.439894 C109.804142,227.093957 111.629435,224.920989 113.889322,224.920989 C117.279153,224.920989 118.84369,228.832332 122.494277,226.22477 C124.928001,224.486395 126.144863,222.834939 126.144863,221.270402" id="Path-31" stroke="#DF4857" stroke-width="3"></path>
                <path d="M185.142256,208.683199 C187.068717,209.887237 188.995178,210.489256 190.921639,210.489256 C193.81133,210.489256 193.227835,208.73877 196.339811,206.515931 C198.414461,205.034037 200.220518,205.034037 201.757982,206.515931" id="Path-31-Copy" stroke="#E6AE31" stroke-width="3"></path>
                <polygon id="Rectangle" fill="#2D2CE5" transform="translate(110.629038, 171.314828) rotate(-30.000000) translate(-110.629038, -171.314828) " points="107.021945 167.713133 114.236131 167.713133 114.236131 174.916523 107.021945 174.916523"></polygon>
                <polygon id="Rectangle-Copy" fill="#837AFF" transform="translate(124.601553, 203.034967) rotate(-30.000000) translate(-124.601553, -203.034967) " points="122.055369 200.492594 127.147736 200.492594 127.147736 205.57734 122.055369 205.57734"></polygon>
                <polygon id="Rectangle-Copy-3" fill="#DAD7E2" transform="translate(70.762712, 221.270402) rotate(-30.000000) translate(-70.762712, -221.270402) " points="68.2165284 218.728029 73.3088954 218.728029 73.3088954 223.812775 68.2165284 223.812775"></polygon>
                <polygon id="Rectangle-Copy-2" fill="#F1CD41" transform="translate(226.213863, 226.580053) rotate(-30.000000) translate(-226.213863, -226.580053) " points="223.667679 224.03768 228.760046 224.03768 228.760046 229.122426 223.667679 229.122426"></polygon>
                <circle id="Oval-Copy-8" fill="#2BB160" cx="287.493841" cy="151.435864" r="32.3785194"></circle>
                <path d="M159.915171,84.0922551 L210.376256,18.1208422" id="Line-6" stroke="#DF4857" stroke-width="2" stroke-linecap="square"></path>
                <path d="M121.125307,110.677182 L170.277849,36.9483682" id="Line-6-Copy-2" stroke="#2D2CE5" stroke-width="2" stroke-linecap="square"></path>
                <path d="M255.16606,98.7028881 L314.58957,43.084425" id="Line-6-Copy" stroke="#2D2CE5" stroke-width="2" stroke-linecap="square"></path>
            </g>
        </g>
    </g>
</svg>