<?xml version="1.0" encoding="UTF-8"?>
<svg width="144px" height="156px" viewBox="0 0 144 156" version="1.1" xmlns="http://www.w3.org/2000/svg" xmlns:xlink="http://www.w3.org/1999/xlink">
    <!-- Generator: Sketch 57.1 (83088) - https://sketch.com -->
    <title>Person</title>
    <desc>Created with Sketch.</desc>
    <g id="✅-Getting-Started" stroke="none" stroke-width="1" fill="none" fill-rule="evenodd">
        <g id="Onboarding-Mobile---Track-Your-Portfolio" transform="translate(-87.000000, -144.000000)">
            <g id="Group-6" transform="translate(24.317323, 144.000000)">
                <g transform="translate(-28.670270, 0.000000)" id="Person">
                    <g transform="translate(91.780396, 0.000000)">
                        <g id="Group-3" transform="translate(21.486948, 0.000000)">
                            <rect id="Rectangle" fill="#1D144F" x="36.9622598" y="48.835217" width="47.2216216" height="45.5351351" rx="4"></rect>
                            <rect id="Rectangle" fill="#0A806D" x="35.2757733" y="94.4432432" width="48.9081081" height="4.63783784" rx="2.31891892"></rect>
                            <path d="M30.7941332,49.3297297 C26.8589981,50.4540541 22.5022413,53.4054054 17.7238629,58.1837838 C10.5562954,65.3513514 -3.72056179,77.1268252 1.28061968,81.7945946 C4.61474066,84.9064408 18.6687947,83.5010354 43.4427818,77.5783784 C61.8854306,83.0593145 75.517863,84.745801 84.3400791,82.6378378 C97.5734033,79.4758931 94.7837239,73.0091615 95.7238629,66.6162162 C96.6640019,60.2232709 85.604944,44.2702703 74.6427818,42.5837838 C72.1130521,42.5837838 57.4968359,44.8324324 30.7941332,49.3297297 Z" id="Path-16" fill="#837AFF"></path>
                            <path d="M51.0954778,32.3451827 L49.8904009,46.2586962 C51.4971702,47.9451827 53.3047855,48.7884259 55.3132471,48.7884259 C57.3217086,48.7884259 59.129324,47.9451827 60.7360933,46.2586962 L59.5310164,32.3451827 L51.0954778,32.3451827 Z" id="Path-10" fill="#F6D9D0" transform="translate(55.313247, 40.566804) rotate(-21.000000) translate(-55.313247, -40.566804) "></path>
                            <g id="Group-2" transform="translate(27.443351, 6.905664)">
                                <ellipse id="Oval" fill="#F6D9D0" cx="18.1420275" cy="18.6162831" rx="17.6514193" ry="17.9025153"></ellipse>
                                <path d="M18.1420275,0.713767832 C8.39341781,0.713767832 0.490608209,8.72899694 0.490608209,18.6162831 C6.07307426,18.7561426 27.8906372,0.713767832 18.1420275,0.713767832 Z" id="Oval-Copy-8" fill="#1D144F"></path>
                                <path d="M33.3185084,0.713767832 C23.5698988,0.713767832 15.6670892,8.72899694 15.6670892,18.6162831 C21.2495552,18.7561426 43.0671181,0.713767832 33.3185084,0.713767832 Z" id="Oval-Copy-9" fill="#1D144F" transform="translate(25.730268, 9.665430) scale(-1, 1) translate(-25.730268, -9.665430) "></path>
                                <path d="M33.1192817,9.13785938 C30.0002575,4.07884242 24.4586083,0.713767832 18.1420275,0.713767832 C11.8122094,0.713767832 6.26057437,4.09296111 3.14519628,9.1696872 C2.28411678,10.5728764 10.0454652,15.5562427 18.1420275,15.515974 C25.8670351,15.4775532 33.9467225,10.4799577 33.1192817,9.13785938 Z" id="Oval-Copy-7" fill="#1D144F"></path>
                                <g id="Group-4" transform="translate(32.405331, 17.807815) rotate(-16.000000) translate(-32.405331, -17.807815) translate(29.405331, 13.807815)">
                                    <path d="M4.05715242,1.32453427 C4.87523054,1.59034397 5.32293256,2.46900865 5.05712286,3.28708677 L4.28705722,5.65710513 C4.02124752,6.47518325 3.14258284,6.92288527 2.32450472,6.65707558 C1.50642659,6.39126588 1.05872458,5.5126012 1.32453427,4.69452308 L2.09459992,2.32450472 C2.36040961,1.50642659 3.2390743,1.05872458 4.05715242,1.32453427 Z" id="Rectangle-Copy-2" fill="#F6D9D0" transform="translate(3.190829, 3.990805) rotate(2.000000) translate(-3.190829, -3.990805) "></path>
                                    <polygon id="Line" fill="#1D144F" fill-rule="nonzero" points="3.34319319 2.23143679 2.26583874 5.54719285 3.06781072 5.80776935 4.14516517 2.49201329"></polygon>
                                </g>
                            </g>
                            <rect id="Rectangle-Copy-6" fill="#FFFFFF" x="34.3354221" y="29.9301122" width="2.99546418" height="5.01998449" rx="1.49773209"></rect>
                            <rect id="Rectangle-Copy-5" fill="#FFFFFF" x="47.827314" y="29.9301122" width="2.99546418" height="5.01998449" rx="1.49773209"></rect>
                            <path d="M35.8331542,29.9301122 C36.6603288,29.9301122 37.3308863,30.6006697 37.3308863,31.4278443 L37.3308863,33.4523646 C37.3308863,34.2795392 36.6603288,34.9500967 35.8331542,34.9500967 C35.0059796,34.9500967 34.3354221,34.2795392 34.3354221,33.4523646 L34.3354221,31.4278443 C34.3354221,30.6006697 35.0059796,29.9301122 35.8331542,29.9301122 Z M35.8331542,30.7733554 C35.47169,30.7733554 35.1786654,31.0663801 35.1786654,31.4278443 L35.1786654,33.4523646 C35.1786654,33.8138288 35.47169,34.1068534 35.8331542,34.1068534 C36.1946184,34.1068534 36.4876431,33.8138288 36.4876431,33.4523646 L36.4876431,31.4278443 C36.4876431,31.0663801 36.1946184,30.7733554 35.8331542,30.7733554 Z" id="Rectangle-Copy-4" fill="#1D144F" fill-rule="nonzero"></path>
                            <path d="M49.3250461,29.9301122 C50.1522207,29.9301122 50.8227782,30.6006697 50.8227782,31.4278443 L50.8227782,33.4523646 C50.8227782,34.2795392 50.1522207,34.9500967 49.3250461,34.9500967 C48.4978715,34.9500967 47.827314,34.2795392 47.827314,33.4523646 L47.827314,31.4278443 C47.827314,30.6006697 48.4978715,29.9301122 49.3250461,29.9301122 Z M49.3250461,30.7733554 C48.9635819,30.7733554 48.6705572,31.0663801 48.6705572,31.4278443 L48.6705572,33.4523646 C48.6705572,33.8138288 48.9635819,34.1068534 49.3250461,34.1068534 C49.6865103,34.1068534 49.9795349,33.8138288 49.9795349,33.4523646 L49.9795349,31.4278443 C49.9795349,31.0663801 49.6865103,30.7733554 49.3250461,30.7733554 Z" id="Rectangle-Copy-3" fill="#1D144F" fill-rule="nonzero"></path>
                            <polygon id="Line-3" fill="#1D144F" fill-rule="nonzero" points="40.9413056 32.0184828 40.9413056 36.6158206 41.9413056 36.6158206 41.9413056 32.0184828"></polygon>
                            <polygon id="Line" fill="#1D144F" fill-rule="nonzero" points="41.3169134 36.7725774 43.9386708 36.7725774 43.9386708 35.7725774 41.3169134 35.7725774"></polygon>
                            <path d="M56.9346737,64.5081081 C53.8782969,64.5081081 52.1729954,66.5234644 51.8764562,70.3784739 L52.7172156,70.4431477 C52.9828386,66.9900491 54.369429,65.3513514 56.9346737,65.3513514 C66.1239473,65.3513514 76.3385691,66.3127275 77.2170234,68.069636 L77.5117176,68.6590245 L77.9233644,68.144466 C79.101733,66.6715052 79.9668105,64.2204525 80.5397479,60.7828277 L79.7079779,60.6441993 C79.2096542,63.6341415 78.4907792,65.8228167 77.5669663,67.2039649 C75.3360301,65.3096822 66.1225377,64.5081081 56.9346737,64.5081081 Z" id="Path-24" fill="#F4F4FA" fill-rule="nonzero"></path>
                            <path d="M57.4989493,71.2540541 C55.8124628,69.0054054 53.2827331,67.8810811 49.9097601,67.8810811 C46.5367871,67.8810811 44.2405872,69.427027 43.0211602,72.5189189 C48.3715827,75.7556229 51.792107,77.1610283 53.2827331,76.7351351 C54.7733592,76.309242 56.1787646,74.4822149 57.4989493,71.2540541 Z" id="Path-27" fill="#F6D9D0"></path>
                            <path d="M32.7567532,58.3435019 L39.0776091,58.3435019 C40.6215408,58.3435019 42.0276293,59.2320544 42.6903575,60.6265135 L48.1057324,72.0211081 C49.0539989,74.0163739 48.2052382,76.4025784 46.2099724,77.3508449 C45.6734945,77.6058104 45.0869671,77.7380965 44.492984,77.7380965 L38.1721281,77.7380965 C36.6281964,77.7380965 35.222108,76.8495441 34.5593798,75.4550849 L29.1440048,64.0604903 C28.1957383,62.0652245 29.044499,59.6790201 31.0397648,58.7307536 C31.5762427,58.475788 32.1627701,58.3435019 32.7567532,58.3435019 Z" id="Rectangle" fill="#FFFFFF"></path>
                            <path d="M31.2157548,77.5783784 C34.6159824,78.402676 39.2265656,75.8918919 43.0211602,73.3621622 C45.55089,71.6756757 44.004944,71.6756757 38.3833224,73.3621622 C43.4427818,70.5513514 45.831971,68.8648649 45.55089,68.3027027 C45.2698089,67.7405405 42.4589981,68.7243243 37.1184575,71.2540541 C41.3346737,69.0054054 42.8806197,67.6 41.7562954,67.0378378 C40.0698089,66.1945946 35.431971,69.9891892 31.2157548,71.2540541 C26.9995386,72.5189189 27.8155272,76.7540808 31.2157548,77.5783784 Z" id="Path-17" fill="#F6D9D0"></path>
                            <path d="M43.0171527,39.8385863 C45.9279039,40.1296614 48.1427219,39.6866978 49.6468149,38.4834234 L49.120045,37.8249611 C47.8133272,38.8703353 45.8119291,39.2706149 43.1010586,38.9995279 L43.0171527,39.8385863 Z" id="Path-12" fill="#1D144F" fill-rule="nonzero"></path>
                            <ellipse id="Oval" fill="#1D144F" cx="45.9348961" cy="4.01924451" rx="1.08005622" ry="3.60018742"></ellipse>
                            <path d="M45.618555,7.55751505 C46.0403432,7.97930324 47.5220264,7.18147384 48.927987,5.77551319 C50.3339476,4.36955255 51.131777,2.88786937 50.7099888,2.46608118 C50.2882007,2.04429299 48.8065175,2.84212239 47.4005568,4.24808303 C45.9945962,5.65404367 45.1967668,7.13572686 45.618555,7.55751505 Z" id="Oval-Copy-5" fill="#1D144F"></path>
                        </g>
                        <rect id="Rectangle" fill="#CECDD9" x="-5.68434189e-14" y="108.778378" width="143.351351" height="12.6486486" rx="6.32432432"></rect>
                        <path d="M56.7701026,98.6594595 C34.0704887,106.248649 26.7963574,113.837838 34.9477088,121.427027 C34.9477088,121.427027 42.817979,128.594595 58.5585196,142.92973 C44.2233845,147.708108 36.9152763,151.924324 36.6341953,155.578378 C36.6341953,155.578378 55.3260872,155.578378 92.7098709,155.578378 L65.7260872,118.054054 C67.7336749,117.863488 70.1228641,116.036461 72.8936547,112.572973 C75.6644454,109.109485 78.1601983,104.471647 80.3809134,98.6594595 L56.7701026,98.6594595 Z" id="Path-19-Copy-2" fill="#1D144F"></path>
                        <path d="M77.4295621,99.0810811 C57.1917242,106.389189 51.148481,113.837838 59.2998323,121.427027 C59.2998323,121.427027 67.1701026,128.594595 82.9106431,142.92973 C68.575508,147.708108 61.2673999,151.924324 60.9863188,155.578378 C60.9863188,155.578378 79.6782107,155.578378 117.061994,155.578378 L90.0782107,118.054054 C94.1525769,117.863488 97.5751553,116.036461 100.345946,112.572973 C103.116737,109.109485 104.241061,104.612187 103.718919,99.0810811 L77.4295621,99.0810811 Z" id="Path-19-Copy" fill="#E6AE31"></path>
                        <path d="M71.4382057,42.2832792 C73.7496045,42.2832792 75.7815392,41.8478646 77.5294633,40.9739025 L77.1523535,40.2196828 C75.5273046,41.0322073 73.6241043,41.4400359 71.4382057,41.4400359 L71.4382057,42.2832792 Z" id="Path-20" fill="#1D144F" fill-rule="nonzero" transform="translate(74.483835, 41.251481) rotate(-15.000000) translate(-74.483835, -41.251481) "></path>
                        <path d="M73.3194983,45.8820441 C74.7997818,47.9544409 76.6092336,49.0099545 78.7220454,49.0099545 C80.8137963,49.0099545 82.8822801,47.9757126 84.9228796,45.935113 L84.3266166,45.33885 C82.432081,47.2333856 80.5654297,48.1667112 78.7220454,48.1667112 C76.8997221,48.1667112 75.336201,47.2546573 74.0056736,45.3919189 L73.3194983,45.8820441 Z" id="Path-21" fill="#1D144F" fill-rule="nonzero" transform="translate(79.121189, 47.174402) rotate(-17.000000) translate(-79.121189, -47.174402) "></path>
                        <path d="M53.9860486,68.4446481 C52.4466086,66.2894321 49.5824507,65.9879418 45.4903434,67.4494087 L45.7739568,68.2435262 C49.5521199,66.8941823 52.0285025,67.1548541 53.2998733,68.9347733 L53.9860486,68.4446481 Z" id="Path-25" fill="#F4F4FA" fill-rule="nonzero"></path>
                        <path d="M90.3763422,117.755923 C88.3864752,115.766055 86.6752992,114.340076 85.2356738,113.4763 L84.8018287,114.199375 C86.1730141,115.022087 87.8348111,116.406917 89.7800792,118.352186 L90.3763422,117.755923 Z" id="Path-26" fill="#F4F4FA" fill-rule="nonzero"></path>
                    </g>
                </g>
            </g>
        </g>
    </g>
</svg>