<?xml version="1.0" encoding="UTF-8"?>
<svg width="144px" height="21px" viewBox="0 0 144 21" version="1.1" xmlns="http://www.w3.org/2000/svg" xmlns:xlink="http://www.w3.org/1999/xlink">
    <title>defi-pulse-logo-vector</title>
    <g id="💠-V5" stroke="none" stroke-width="1" fill="none" fill-rule="evenodd">
        <g id="Home-Page---Asset-Managers-Copy" transform="translate(-343.000000, -1430.000000)" fill="#1D144F" fill-rule="nonzero">
            <g id="Group-13" transform="translate(0.000000, 1268.293119)">
                <g id="defi-pulse-logo-vector" transform="translate(343.070859, 162.332600)">
                    <path d="M14.0238095,5.19047619 C15.7857143,6.95238095 16.5714286,8.9047619 16.5714286,11.4285714 C16.5714286,16.3333333 13,19.7380952 7.9047619,19.7380952 L2.9047619,19.7380952 L0,16.8333333 L0,0.238095238 L5.0952381,0.238095238 C7.83333333,0.238095238 10.1190476,1.21428571 11.6904762,2.85714286 L14.0238095,5.19047619 Z M2.76190476,2.85714286 L2.73809524,2.85714286 L2.73809524,3.45238095 L5.21428571,5.9047619 L5.21428571,5.30952381 L2.76190476,2.85714286 Z M5.61904762,5.23809524 L3.23809524,2.85714286 L2.9047619,2.85714286 L5.28571429,5.23809524 L5.61904762,5.23809524 Z M6.45238095,5.23809524 L4.07142857,2.85714286 L3.4047619,2.85714286 L5.78571429,5.23809524 L6.45238095,5.23809524 Z M5.11904762,2.85714286 L4.23809524,2.85714286 L6.61904762,5.23809524 L7.5,5.23809524 L5.11904762,2.85714286 Z M8.35714286,5.23809524 L6.02380952,2.9047619 C5.78571429,2.88095238 5.54761905,2.85714286 5.28571429,2.85714286 L7.66666667,5.23809524 L7.9047619,5.23809524 C8.04761905,5.23809524 8.21428571,5.23809524 8.35714286,5.23809524 Z M9.0952381,5.30952381 L6.83333333,3.04761905 C6.64285714,3 6.42857143,2.97619048 6.21428571,2.92857143 L8.52380952,5.23809524 C8.71428571,5.26190476 8.92857143,5.28571429 9.0952381,5.30952381 Z M9.78571429,5.47619048 L7.57142857,3.26190476 C7.4047619,3.21428571 7.23809524,3.14285714 7.04761905,3.0952381 L9.30952381,5.35714286 C9.47619048,5.4047619 9.61904762,5.42857143 9.78571429,5.47619048 Z M10.0238095,5.57142857 C10.1666667,5.64285714 10.3333333,5.71428571 10.4761905,5.78571429 L8.33333333,3.64285714 C8.19047619,3.57142857 8.02380952,3.47619048 7.85714286,3.4047619 L10.0238095,5.57142857 Z M2.71428571,8.04761905 L3.14285714,8.47619048 L3.04761905,8.57142857 L2.71428571,8.23809524 L2.71428571,14.3571429 L5.19047619,14.3571429 L5.19047619,6.07142857 L2.71428571,3.61904762 L2.71428571,4.19047619 L5.07142857,6.54761905 L4.97619048,6.61904762 L2.71428571,4.35714286 L2.71428571,4.95238095 L4.66666667,6.92857143 L4.5952381,7.02380952 L2.71428571,5.14285714 L2.71428571,5.73809524 L4.28571429,7.33333333 L4.21428571,7.42857143 L2.71428571,5.92857143 L2.71428571,6.52380952 L3.9047619,7.73809524 L3.83333333,7.83333333 L2.71428571,6.71428571 L2.71428571,7.33333333 L3.52380952,8.14285714 L3.42857143,8.23809524 L2.71428571,7.52380952 L2.71428571,8.04761905 L2.71428571,8.04761905 Z M10.3095238,5.42857143 C9.9047619,4.80952381 9.38095238,4.28571429 8.76190476,3.88095238 L10.3095238,5.42857143 Z M13.7857143,5.4047619 L12.8333333,4.42857143 C13.452381,5.61904762 13.8809524,7.07142857 13.8809524,8.5952381 C13.8809524,8.76190476 13.8809524,8.92857143 13.8809524,9.07142857 L16.2619048,11.4761905 L16.2619048,11.4285714 C16.2380952,8.97619048 15.452381,7.11904762 13.7857143,5.4047619 Z M5.52380952,14.3571429 C8.92857143,14.1666667 11.1190476,11.9285714 11.1190476,8.61904762 C11.1190476,7.76190476 10.9761905,6.95238095 10.6904762,6.26190476 C9.97619048,5.76190476 9.16666667,5.57142857 7.9047619,5.57142857 L5.52380952,5.57142857 L5.52380952,14.3571429 Z M13.3809524,11.5952381 L15.8571429,14.0714286 C16.0952381,13.3095238 16.2380952,12.5 16.2619048,11.6190476 L13.8571429,9.21428571 C13.7857143,10.0952381 13.6190476,10.8571429 13.3809524,11.5952381 Z M15.8095238,14.1904762 L13.3333333,11.7142857 C13.1190476,12.3095238 12.8333333,12.8571429 12.5,13.3333333 L15,15.8571429 C15.3333333,15.3571429 15.5952381,14.7857143 15.8095238,14.1904762 Z M13.9761905,17.1190476 C14.3333333,16.7619048 14.6428571,16.3809524 14.9285714,15.952381 L12.4285714,13.452381 C12.1428571,13.8571429 11.8095238,14.2380952 11.4285714,14.5952381 L13.9761905,17.1190476 Z M10.3333333,15.452381 L12.8809524,18 C13.2380952,17.7619048 13.5714286,17.4761905 13.9047619,17.1904762 L11.3571429,14.6428571 C11.0238095,14.952381 10.6904762,15.2142857 10.3333333,15.452381 Z M9.19047619,16.0714286 L11.7380952,18.6190476 C12.0952381,18.452381 12.4285714,18.2619048 12.7619048,18.0714286 L10.2142857,15.5238095 C9.9047619,15.7380952 9.57142857,15.9047619 9.19047619,16.0714286 Z M8.0952381,16.4761905 L10.6428571,19.0238095 C10.9761905,18.9285714 11.3095238,18.8095238 11.6428571,18.6666667 L9.0952381,16.1190476 C8.76190476,16.2619048 8.45238095,16.3809524 8.0952381,16.4761905 Z M7.04761905,16.7380952 L9.57142857,19.2857143 C9.9047619,19.2380952 10.2142857,19.1666667 10.5238095,19.0714286 L8,16.547619 C7.69047619,16.6190476 7.35714286,16.6904762 7.04761905,16.7380952 Z M6.88095238,16.7619048 C6.5952381,16.8095238 6.30952381,16.8571429 6.02380952,16.8809524 L8.52380952,19.3809524 C8.83333333,19.3809524 9.11904762,19.3333333 9.4047619,19.3095238 L6.88095238,16.7619048 Z M7.57142857,19.4047619 L7.9047619,19.4047619 C8.07142857,19.4047619 8.21428571,19.4047619 8.38095238,19.4047619 L5.88095238,16.9047619 C5.61904762,16.9047619 5.35714286,16.9285714 5.0952381,16.9285714 L5.0952381,16.9285714 L7.57142857,19.4047619 Z M0.571428571,16.9047619 L3.04761905,19.3809524 L3.21428571,19.3809524 L0.738095238,16.9047619 L0.571428571,16.9047619 Z M0.904761905,16.9047619 L3.38095238,19.3809524 L3.5952381,19.3809524 L1.11904762,16.9047619 L0.904761905,16.9047619 Z M1.26190476,16.9047619 L3.73809524,19.3809524 L4,19.3809524 L1.54761905,16.9047619 L1.26190476,16.9047619 Z M1.71428571,16.9047619 L4.19047619,19.3809524 L4.52380952,19.3809524 L2.04761905,16.9047619 L1.71428571,16.9047619 Z M2.21428571,16.9047619 L4.69047619,19.3809524 L5.0952381,19.3809524 L2.61904762,16.9047619 L2.21428571,16.9047619 Z M2.78571429,16.9047619 L5.26190476,19.3809524 L5.76190476,19.3809524 L3.26190476,16.9047619 L2.78571429,16.9047619 Z M3.45238095,16.9047619 L5.92857143,19.3809524 L6.52380952,19.3809524 L4.04761905,16.9047619 L3.45238095,16.9047619 Z M4.21428571,16.9047619 L6.69047619,19.3809524 L7.4047619,19.3809524 L4.9047619,16.9047619 L4.21428571,16.9047619 Z M29.4285714,14.3809524 L32.3333333,17.2857143 L32.3333333,19.7380952 L21.0952381,19.7380952 L18.1904762,16.8333333 L18.1904762,0.238095238 L29.0952381,0.238095238 L32,3.14285714 L32,5.45238095 L23.7142857,5.45238095 L23.7142857,7.11904762 L27.7619048,7.11904762 L30.6666667,10.0238095 L30.6666667,12.3809524 L23.7142857,12.3809524 L23.7142857,14.3809524 L29.4285714,14.3809524 L29.4285714,14.3809524 Z M31.6666667,3.28571429 L29.1904762,0.80952381 L29.1904762,2.76190476 L31.6666667,5.14285714 L31.6666667,3.28571429 Z M23.6190476,5.11904762 L21.1428571,2.73809524 L20.9761905,2.73809524 L23.452381,5.11904762 L23.6190476,5.11904762 Z M24.0952381,5.11904762 L21.6190476,2.73809524 L21.3333333,2.73809524 L23.8095238,5.11904762 L24.0952381,5.11904762 Z M24.6666667,5.11904762 L22.1904762,2.73809524 L21.7857143,2.73809524 L24.2619048,5.11904762 L24.6666667,5.11904762 Z M25.3809524,5.11904762 L22.9047619,2.73809524 L22.3571429,2.73809524 L24.8333333,5.11904762 L25.3809524,5.11904762 Z M26.3095238,5.11904762 L23.8095238,2.73809524 L23.0714286,2.73809524 L25.547619,5.11904762 L26.3095238,5.11904762 Z M27.2380952,5.11904762 L24.7380952,2.73809524 L24,2.73809524 L26.4761905,5.11904762 L27.2380952,5.11904762 Z M28.2142857,5.11904762 L25.7380952,2.73809524 L24.952381,2.73809524 L27.4285714,5.11904762 L28.2142857,5.11904762 Z M29.1428571,5.11904762 L26.6904762,2.73809524 L25.9047619,2.73809524 L28.3809524,5.11904762 L29.1428571,5.11904762 Z M29.9761905,5.11904762 L27.5,2.73809524 L26.8571429,2.73809524 L29.3333333,5.11904762 L29.9761905,5.11904762 Z M30.6666667,5.11904762 L28.1904762,2.73809524 L27.6428571,2.73809524 L30.1428571,5.11904762 L30.6666667,5.11904762 Z M31.1428571,5.11904762 L28.6904762,2.73809524 L28.3809524,2.73809524 L30.8809524,5.11904762 L31.1428571,5.11904762 Z M31.4761905,5.11904762 L29.0238095,2.73809524 L28.8333333,2.73809524 L31.3095238,5.11904762 L31.4761905,5.11904762 Z M20.8809524,6.16666667 L21.452381,6.71428571 L21.3571429,6.78571429 L20.8809524,6.33333333 L20.8809524,7.11904762 L23.3571429,7.11904762 L23.3571429,5.21428571 L20.8809524,2.83333333 L20.8809524,3.33333333 L23.047619,5.4047619 L22.952381,5.47619048 L20.9047619,3.52380952 L20.9047619,4.07142857 L22.6666667,5.76190476 L22.5714286,5.83333333 L20.9047619,4.23809524 L20.9047619,4.78571429 L22.2619048,6.0952381 L22.1666667,6.16666667 L20.9047619,4.95238095 L20.9047619,5.5 L21.8809524,6.42857143 L21.7857143,6.5 L20.9047619,5.66666667 L20.9047619,6.16666667 L20.8809524,6.16666667 Z M27.8571429,7.69047619 L27.8571429,9.69047619 L27.8571429,9.69047619 L30.3571429,12.0714286 L30.3571429,10.1904762 L27.8571429,7.69047619 Z M23.452381,12.047619 L23.6666667,12.047619 L21.1904762,9.66666667 L20.9761905,9.66666667 L23.452381,12.047619 Z M21.3571429,9.66666667 L23.8333333,12.047619 L24.2380952,12.047619 L21.7619048,9.66666667 L21.3571429,9.66666667 Z M21.952381,9.66666667 L24.4285714,12.047619 L25.0714286,12.047619 L22.5714286,9.66666667 L21.952381,9.66666667 Z M22.7619048,9.66666667 L25.2380952,12.047619 L26.1190476,12.047619 L23.6428571,9.66666667 L22.7619048,9.66666667 Z M27.2380952,12.047619 L24.7857143,9.66666667 L23.8333333,9.66666667 L26.3095238,12.047619 L27.2380952,12.047619 Z M28.3571429,12.047619 L25.8809524,9.66666667 L24.952381,9.66666667 L27.4285714,12.047619 L28.3571429,12.047619 Z M29.1666667,12.047619 L26.7142857,9.66666667 L26.0714286,9.66666667 L28.547619,12.047619 L29.1666667,12.047619 Z M29.7619048,12.047619 L27.2857143,9.66666667 L26.8809524,9.66666667 L29.3571429,12.047619 L29.7619048,12.047619 Z M27.452381,9.66666667 L29.952381,12.047619 L30.1666667,12.047619 L27.6904762,9.66666667 L27.452381,9.66666667 Z M20.8809524,13.8333333 L21.1904762,14.1190476 L21.0952381,14.2142857 L20.8809524,14.0238095 L20.8809524,14.4047619 L23.3571429,14.4047619 L23.3571429,12.1428571 L20.8809524,9.76190476 L20.8809524,10.2857143 L23.047619,12.3571429 L22.9761905,12.4285714 L20.9047619,10.452381 L20.9047619,11 L22.7142857,12.7142857 L22.6190476,12.7857143 L20.9047619,11.1428571 L20.9047619,11.6904762 L22.3333333,13.047619 L22.2380952,13.1190476 L20.9047619,11.8571429 L20.9047619,12.4047619 L21.952381,13.4047619 L21.8571429,13.4761905 L20.9047619,12.5714286 L20.9047619,13.1190476 L21.5714286,13.7619048 L21.4761905,13.8333333 L20.8809524,13.2619048 L20.8809524,13.8333333 L20.8809524,13.8333333 Z M29.5238095,14.952381 L29.5238095,16.9285714 L32,19.4047619 L32,17.4285714 L29.5238095,14.952381 Z M19.8809524,16.9047619 L18.7380952,16.9047619 L21.2142857,19.3809524 L22.3571429,19.3809524 L19.8809524,16.9047619 Z M21.0714286,16.9047619 L20.047619,16.9047619 L22.5238095,19.3809524 L23.547619,19.3809524 L21.0714286,16.9047619 Z M21.2380952,16.9047619 L23.7380952,19.3809524 L24.6428571,19.3809524 L22.1428571,16.9047619 L21.2380952,16.9047619 Z M22.3095238,16.9047619 L24.8095238,19.3809524 L25.6190476,19.3809524 L23.1190476,16.9047619 L22.3095238,16.9047619 Z M24,16.9047619 L23.2857143,16.9047619 L25.7619048,19.3809524 L26.4761905,19.3809524 L24,16.9047619 Z M27.2857143,19.4047619 L24.8095238,16.9047619 L24.1666667,16.9047619 L26.6666667,19.3809524 L27.2857143,19.3809524 L27.2857143,19.4047619 Z M24.9761905,16.9047619 L27.452381,19.3809524 L28.0238095,19.3809524 L25.5238095,16.9047619 L24.9761905,16.9047619 Z M25.6904762,16.9047619 L28.1666667,19.3809524 L28.6666667,19.3809524 L26.1904762,16.9047619 L25.6904762,16.9047619 Z M26.3571429,16.9047619 L28.8571429,19.3809524 L29.2857143,19.3809524 L26.7857143,16.9047619 L26.3571429,16.9047619 Z M26.952381,16.9047619 L29.452381,19.3809524 L29.8333333,19.3809524 L27.3095238,16.9047619 L26.952381,16.9047619 Z M27.4761905,16.9047619 L29.9761905,19.3809524 L30.3095238,19.3809524 L27.8095238,16.9047619 L27.4761905,16.9047619 Z M27.9761905,16.9047619 L30.4761905,19.3809524 L30.7619048,19.3809524 L28.2380952,16.9047619 L27.9761905,16.9047619 Z M28.4047619,16.9047619 L30.9047619,19.3809524 L31.1428571,19.3809524 L28.6666667,16.9047619 L28.4047619,16.9047619 Z M28.8095238,16.9047619 L31.2857143,19.3809524 L31.5,19.3809524 L29.0238095,16.9047619 L28.8095238,16.9047619 Z M29.1904762,16.9047619 L31.6904762,19.3809524 L31.8571429,19.3809524 L29.3571429,16.9047619 L29.1904762,16.9047619 Z M47.9285714,5.54761905 L39.3333333,5.54761905 L39.3333333,7.69047619 L43.5714286,7.69047619 L46.4761905,10.5952381 L46.4761905,12.9761905 L39.3095238,12.9761905 L39.3095238,19.7380952 L36.7142857,19.7380952 L33.8095238,16.8333333 L33.8095238,0.238095238 L45,0.238095238 L47.9047619,3.14285714 L47.9047619,5.54761905 L47.9285714,5.54761905 Z M45.1190476,0.80952381 L45.1190476,2.85714286 L47.5952381,5.23809524 L47.5952381,5.23809524 L47.5952381,3.30952381 L45.1190476,0.80952381 Z M39.0714286,5.21428571 L39.2619048,5.21428571 L36.7857143,2.83333333 L36.6190476,2.83333333 L39.0714286,5.21428571 Z M39.7142857,5.21428571 L37.2142857,2.83333333 L36.952381,2.83333333 L39.4047619,5.21428571 L39.7142857,5.21428571 Z M40.3095238,5.21428571 L37.8095238,2.83333333 L37.4047619,2.83333333 L39.8809524,5.21428571 L40.3095238,5.21428571 Z M41.0714286,5.21428571 L38.5952381,2.83333333 L38,2.83333333 L40.4761905,5.21428571 L41.0714286,5.21428571 Z M42.1190476,5.21428571 L39.6428571,2.83333333 L38.7857143,2.83333333 L41.2380952,5.21428571 L42.1190476,5.21428571 Z M43.1190476,5.21428571 L40.6428571,2.83333333 L39.8095238,2.83333333 L42.2857143,5.21428571 L43.1190476,5.21428571 Z M44.2142857,5.21428571 L41.7380952,2.83333333 L40.8095238,2.83333333 L43.2857143,5.21428571 L44.2142857,5.21428571 Z M45.2619048,5.21428571 L42.7857143,2.83333333 L41.9047619,2.83333333 L44.4047619,5.21428571 L45.2619048,5.21428571 Z M46.0238095,5.21428571 L43.547619,2.83333333 L42.952381,2.83333333 L45.4285714,5.21428571 L46.0238095,5.21428571 Z M46.6190476,5.21428571 L44.1428571,2.83333333 L43.7142857,2.83333333 L46.1904762,5.21428571 L46.6190476,5.21428571 Z M47.0714286,5.21428571 L44.5952381,2.83333333 L44.3095238,2.83333333 L46.7857143,5.21428571 L47.0714286,5.21428571 Z M44.7619048,2.83333333 L47.2380952,5.21428571 L47.4047619,5.21428571 L44.9285714,2.83333333 L44.7619048,2.83333333 Z M36.5,7.69047619 L38.9761905,7.69047619 L38.9761905,5.30952381 L36.5,2.92857143 L36.5,3.33333333 L38.7142857,5.47619048 L38.6428571,5.54761905 L36.5,3.5 L36.5,4.04761905 L38.3571429,5.83333333 L38.2619048,5.92857143 L36.5,4.21428571 L36.5,4.76190476 L38,6.19047619 L37.9047619,6.28571429 L36.5,4.92857143 L36.5,5.47619048 L37.6428571,6.57142857 L37.5714286,6.64285714 L36.5238095,5.64285714 L36.5238095,6.19047619 L37.2857143,6.92857143 L37.2142857,7 L36.5238095,6.35714286 L36.5238095,6.9047619 L36.9285714,7.30952381 L36.8571429,7.38095238 L36.5238095,7.07142857 L36.5238095,7.69047619 L36.5,7.69047619 Z M43.6666667,8.23809524 L43.6666667,10.2619048 L46.1428571,12.6428571 L46.1428571,10.7380952 L43.6666667,8.23809524 Z M36.5714286,10.2619048 L39.047619,12.6428571 L39.2857143,12.6428571 L36.8095238,10.2619048 L36.5714286,10.2619048 Z M36.9761905,10.2619048 L39.452381,12.6428571 L39.8571429,12.6428571 L37.3809524,10.2619048 L36.9761905,10.2619048 Z M37.547619,10.2619048 L40,12.6428571 L40.7380952,12.6428571 L38.2380952,10.2619048 L37.547619,10.2619048 Z M38.4285714,10.2619048 L40.9047619,12.6428571 L41.8095238,12.6428571 L39.3333333,10.2619048 L38.4285714,10.2619048 Z M39.5238095,10.2619048 L41.9761905,12.6428571 L43.0238095,12.6428571 L40.5714286,10.2619048 L39.5238095,10.2619048 Z M40.7380952,10.2619048 L43.2142857,12.6428571 L44.1428571,12.6428571 L41.6666667,10.2619048 L40.7380952,10.2619048 Z M41.8095238,10.2619048 L44.3095238,12.6428571 L45,12.6428571 L42.547619,10.2619048 L41.8095238,10.2619048 Z M42.7142857,10.2619048 L45.1904762,12.6428571 L45.5952381,12.6428571 L43.1190476,10.2619048 L42.7142857,10.2619048 Z M43.2619048,10.2619048 L45.7380952,12.6428571 L45.952381,12.6428571 L43.4761905,10.2619048 L43.2619048,10.2619048 Z M36.5,16.9047619 L38.9761905,19.3809524 L38.9761905,12.6666667 L38.952381,12.6904762 L36.5,10.3333333 L36.5,10.7142857 L38.7380952,12.8571429 L38.6666667,12.9285714 L36.5238095,10.8809524 L36.5238095,11.4285714 L38.3809524,13.2380952 L38.2857143,13.3333333 L36.5,11.6190476 L36.5,12.1666667 L38,13.6190476 L37.9047619,13.7142857 L36.5,12.3571429 L36.5,12.9047619 L37.6428571,14 L37.5714286,14.0714286 L36.5,13.047619 L36.5,13.5952381 L37.2857143,14.3333333 L37.2142857,14.4047619 L36.5238095,13.7380952 L36.5238095,14.2857143 L36.952381,14.6904762 L36.8809524,14.7619048 L36.547619,14.4285714 L36.547619,16.9047619 L36.5,16.9047619 Z M34.3809524,16.9047619 L36.8571429,19.3809524 L37.3333333,19.3809524 L34.8809524,16.9047619 L34.3809524,16.9047619 Z M35.452381,16.9047619 L35.0238095,16.9047619 L37.5,19.3809524 L37.9285714,19.3809524 L35.452381,16.9047619 Z M35.6190476,16.9047619 L38.1190476,19.3809524 L38.4285714,19.3809524 L35.952381,16.9047619 L35.6190476,16.9047619 Z M36.1190476,16.9047619 L38.5952381,19.3809524 L38.8095238,19.3809524 L36.3333333,16.9047619 L36.1190476,16.9047619 Z M51.8333333,0.238095238 L54.7380952,3.14285714 L54.7380952,19.7142857 L52.0952381,19.7142857 L49.1904762,16.8095238 L49.1904762,0.238095238 L51.8333333,0.238095238 Z M51.9285714,0.976190476 L54.4047619,3.45238095 L54.4047619,3.26190476 L51.9285714,0.785714286 L51.9285714,0.976190476 Z M51.9285714,1.5 L54.4047619,3.97619048 L54.4047619,3.64285714 L51.9285714,1.16666667 L51.9285714,1.5 Z M51.9285714,2.19047619 L54.4047619,4.66666667 L54.4047619,4.14285714 L51.9285714,1.66666667 L51.9285714,2.19047619 Z M51.9285714,3.14285714 L54.4047619,5.61904762 L54.4047619,4.83333333 L51.9285714,2.35714286 L51.9285714,3.14285714 Z M51.9285714,4.47619048 L54.4047619,6.95238095 L54.4047619,5.78571429 L51.9285714,3.30952381 L51.9285714,4.47619048 Z M51.9285714,6.28571429 L54.4047619,8.76190476 L54.4047619,7.0952381 L51.9285714,4.61904762 L51.9285714,6.28571429 Z M51.9285714,16.9047619 L54.4047619,19.3809524 L54.4047619,8.92857143 L51.9285714,6.45238095 L51.9285714,16.9047619 Z M50.2857143,16.9047619 L49.7380952,16.9047619 L52.2142857,19.3809524 L52.7380952,19.3809524 L50.2857143,16.9047619 Z M53.3571429,19.4047619 L50.8809524,16.9047619 L50.452381,16.9047619 L52.9285714,19.3809524 L53.3571429,19.3809524 L53.3571429,19.4047619 Z M51.0238095,16.9047619 L53.5238095,19.3809524 L53.8333333,19.3809524 L51.3571429,16.9047619 L51.0238095,16.9047619 Z M51.5238095,16.9047619 L54,19.3809524 L54.2142857,19.3809524 L51.7619048,16.9047619 L51.5238095,16.9047619 Z M77.2142857,4.16666667 C78.3571429,5.28571429 78.8809524,6.57142857 78.8809524,8.14285714 C78.8809524,11.4047619 76.3809524,13.7857143 72.9047619,13.7857143 L69.9285714,13.7857143 L69.9285714,19.7142857 L67.3095238,19.7142857 L64.4047619,16.8095238 L64.4047619,0.238095238 L70.2857143,0.238095238 C72.3333333,0.238095238 73.9761905,0.976190476 74.8809524,1.85714286 L77.2142857,4.16666667 Z M67.1428571,6.9047619 L67.3809524,7.14285714 L67.2857143,7.23809524 L67.1428571,7.0952381 L67.1428571,8.71428571 L69.5238095,8.71428571 L69.5238095,5.11904762 L67.1428571,2.73809524 L67.1428571,3.23809524 L69.1904762,5.33333333 L69.1190476,5.4047619 L67.1666667,3.42857143 L67.1666667,4 L68.8571429,5.71428571 L68.7857143,5.78571429 L67.1904762,4.16666667 L67.1904762,4.71428571 L68.5238095,6.04761905 L68.4285714,6.11904762 L67.1904762,4.88095238 L67.1904762,5.42857143 L68.1666667,6.4047619 L68.0714286,6.47619048 L67.1904762,5.5952381 L67.1904762,6.14285714 L67.8095238,6.76190476 L67.7142857,6.83333333 L67.1904762,6.30952381 L67.1904762,6.9047619 L67.1428571,6.9047619 Z M69.8095238,5 L67.5714286,2.73809524 L67.3095238,2.73809524 L69.5714286,5 L69.6666667,5 L69.8095238,5 Z M70.3333333,5 L68.0714286,2.73809524 L67.7142857,2.73809524 L69.9761905,5 L70.3333333,5 Z M71,5 L68.7380952,2.73809524 L68.2380952,2.73809524 L70.5,5 L71,5 Z M71.7619048,5 L69.5,2.73809524 L68.8809524,2.73809524 L71.1428571,5 L71.7619048,5 Z M70.3571429,2.73809524 L69.6904762,2.73809524 L71.952381,5 L72.6190476,5 L70.3571429,2.73809524 Z M73.2619048,5 L71.0714286,2.80952381 C70.9047619,2.78571429 70.6904762,2.76190476 70.5,2.76190476 L72.7380952,5 L73.2619048,5 Z M73.5238095,4.71428571 L71.7857143,2.97619048 C71.6428571,2.92857143 71.452381,2.88095238 71.2857143,2.83333333 L73.452381,5 C73.5,5 73.547619,5 73.5952381,5 C73.5714286,4.92857143 73.547619,4.83333333 73.5238095,4.71428571 Z M73.4047619,4.45238095 C73.1428571,3.85714286 72.6904762,3.4047619 72.0952381,3.11904762 L73.4047619,4.45238095 Z M76.9761905,4.4047619 L75.952381,3.35714286 C76.2380952,3.97619048 76.4285714,4.76190476 76.4285714,5.54761905 C76.4285714,5.69047619 76.4285714,5.83333333 76.4285714,5.95238095 L78.5714286,7.9047619 C78.5,6.52380952 77.9761905,5.42857143 76.9761905,4.4047619 Z M70.2380952,8.71428571 C72.2619048,8.71428571 73.6666667,7.47619048 73.6666667,5.69047619 C73.6666667,5.5952381 73.6666667,5.47619048 73.6666667,5.38095238 C73.4761905,5.35714286 73.2619048,5.33333333 73.047619,5.33333333 L69.8333333,5.33333333 L69.8333333,8.71428571 L70.2380952,8.71428571 Z M78.2380952,10.0714286 C78.452381,9.47619048 78.5714286,8.85714286 78.5714286,8.16666667 L78.5714286,8.0952381 L76.4047619,6.11904762 C76.3571429,6.78571429 76.1904762,7.4047619 75.9285714,7.95238095 L78.2380952,10.0714286 Z M75.8571429,8.07142857 C75.6428571,8.5 75.3809524,8.88095238 75.0714286,9.23809524 L77.4761905,11.4285714 C77.7619048,11.047619 78,10.6428571 78.1666667,10.1904762 L75.8571429,8.07142857 Z M76.5714286,12.3095238 C76.8809524,12.0714286 77.1666667,11.7857143 77.4285714,11.5 L75,9.30952381 C74.7380952,9.5952381 74.4285714,9.85714286 74.1190476,10.0714286 L76.5714286,12.3095238 Z M73.1190476,10.6428571 L75.5952381,12.9047619 C75.9047619,12.7619048 76.1904762,12.5952381 76.452381,12.3809524 L74,10.1428571 C73.7142857,10.3333333 73.4285714,10.5 73.1190476,10.6428571 Z M72.1428571,10.9761905 L74.6428571,13.2619048 C74.9285714,13.1904762 75.2380952,13.0714286 75.5,12.952381 L73,10.6904762 C72.7142857,10.7857143 72.4285714,10.8809524 72.1428571,10.9761905 Z M71.1904762,11.1428571 L73.7142857,13.4285714 C74,13.4047619 74.2619048,13.3571429 74.5238095,13.2857143 L72.0238095,11 C71.7380952,11.0714286 71.4761905,11.1190476 71.1904762,11.1428571 Z M72.7857143,13.4761905 L72.9047619,13.4761905 C73.1190476,13.4761905 73.3333333,13.4761905 73.5238095,13.452381 L71.0238095,11.1666667 C70.7857143,11.1904762 70.547619,11.1904762 70.3095238,11.2142857 L72.7857143,13.4761905 Z M69.4761905,11.2142857 L71.952381,13.4761905 L72.5714286,13.4761905 L70.0952381,11.2142857 L69.4761905,11.2142857 Z M69.6190476,19.4047619 L69.6190476,13.4761905 L69.6190476,13.4761905 L67.1428571,11.2142857 L67.1428571,11.2142857 L67.1428571,11.8095238 L69.3095238,13.7619048 L69.2142857,13.8333333 L67.1428571,11.952381 L67.1428571,12.5714286 L68.9047619,14.1666667 L68.8095238,14.2380952 L67.1428571,12.7380952 L67.1428571,13.3571429 L68.4761905,14.5714286 L68.4047619,14.6428571 L67.1428571,13.5 L67.1428571,14.1190476 L68.0714286,14.9761905 L68,15.047619 L67.1428571,14.2857143 L67.1428571,14.8809524 L67.6904762,15.3809524 L67.6190476,15.4761905 L67.1666667,15.0714286 L67.1666667,16.9047619 L69.6190476,19.4047619 Z M67.3333333,11.2142857 L69.8095238,13.4761905 L70.0714286,13.4761905 L67.5952381,11.2142857 L67.3333333,11.2142857 Z M67.7380952,11.2142857 L70.2142857,13.4761905 L70.5238095,13.4761905 L68.047619,11.2142857 L67.7380952,11.2142857 Z M68.2380952,11.2142857 L70.7142857,13.4761905 L71.1190476,13.4761905 L68.6428571,11.2142857 L68.2380952,11.2142857 Z M68.7857143,11.2142857 L71.2857143,13.4761905 L71.8095238,13.4761905 L69.3333333,11.2142857 L68.7857143,11.2142857 Z M64.9761905,16.9047619 L67.452381,19.3809524 L67.9761905,19.3809524 L65.5,16.9047619 L64.9761905,16.9047619 Z M66.0952381,16.9047619 L65.6666667,16.9047619 L68.1428571,19.3809524 L68.5714286,19.3809524 L66.0952381,16.9047619 Z M66.2380952,16.9047619 L68.7380952,19.3809524 L69.047619,19.3809524 L66.5714286,16.9047619 L66.2380952,16.9047619 Z M66.7380952,16.9047619 L69.2142857,19.3809524 L69.4285714,19.3809524 L66.9761905,16.9047619 L66.7380952,16.9047619 Z M94.3333333,0.238095238 L97.1190476,3.02380952 L97.1190476,12.2380952 C97.1190476,16.9047619 94.3333333,19.9761905 90.1190476,19.9761905 C87.8809524,19.9761905 86.2857143,19.3571429 84.8333333,17.9047619 L82.4285714,15.5238095 C81.1190476,14.2380952 80.4047619,12.2857143 80.4047619,9.78571429 L80.4047619,0.238095238 L83.0238095,0.238095238 L85.9285714,3.14285714 L85.9285714,12.5 C85.9285714,13.2142857 86,13.9285714 86.1904762,14.547619 C86.5714286,14.6428571 87,14.6904762 87.4285714,14.6904762 C90.0714286,14.6904762 91.6666667,12.8333333 91.6666667,9.66666667 L91.6666667,0.238095238 L94.3333333,0.238095238 Z M85.6428571,3.28571429 L83.1666667,0.80952381 L83.1666667,1 L85.6428571,3.47619048 L85.6428571,3.28571429 Z M94.4285714,0.976190476 L96.8095238,3.35714286 L96.8095238,3.16666667 L94.4285714,0.80952381 L94.4285714,0.976190476 Z M85.6428571,3.97619048 L85.6428571,3.64285714 L83.1666667,1.16666667 L83.1666667,1.5 L85.6428571,3.97619048 Z M94.4285714,1.5 L96.8095238,3.88095238 L96.8095238,3.54761905 L94.4285714,1.16666667 L94.4285714,1.5 Z M85.6428571,4.64285714 L85.6428571,4.11904762 L83.1666667,1.64285714 L83.1666667,2.16666667 L85.6428571,4.64285714 Z M94.4285714,2.19047619 L96.8095238,4.57142857 L96.8095238,4.04761905 L94.4285714,1.66666667 L94.4285714,2.19047619 Z M85.6428571,5.61904762 L85.6428571,4.83333333 L83.1666667,2.35714286 L83.1666667,3.14285714 L85.6428571,5.61904762 Z M94.4285714,3.14285714 L96.8095238,5.52380952 L96.8095238,4.73809524 L94.4285714,2.35714286 L94.4285714,3.14285714 Z M85.6428571,6.95238095 L85.6428571,5.78571429 L83.1666667,3.30952381 L83.1666667,4.47619048 L85.6428571,6.95238095 Z M94.4285714,4.47619048 L96.8095238,6.85714286 L96.8095238,5.69047619 L94.4285714,3.30952381 L94.4285714,4.47619048 Z M85.6428571,8.76190476 L85.6428571,7.0952381 L83.1666667,4.61904762 L83.1666667,6.28571429 L85.6428571,8.76190476 Z M96.8095238,7 L94.4285714,4.61904762 L94.4285714,6.28571429 L96.8095238,8.66666667 L96.8095238,7 Z M83.1428571,6.45238095 L83.1428571,9.69047619 C83.1428571,12.1190476 84.1428571,13.8095238 85.8571429,14.452381 C85.7142857,13.8333333 85.6190476,13.1904762 85.6190476,12.5238095 L85.6190476,8.95238095 L83.1428571,6.45238095 Z M96.4047619,15.0714286 C96.6666667,14.2142857 96.8095238,13.2619048 96.8095238,12.2380952 L96.8095238,8.80952381 L94.4285714,6.42857143 L94.4285714,9.76190476 C94.4285714,10.8571429 94.3095238,11.8333333 94.047619,12.6904762 L96.4047619,15.0714286 Z M94,12.8333333 C93.8333333,13.4047619 93.5952381,13.9285714 93.3095238,14.3809524 L95.6666667,16.7380952 C95.952381,16.2619048 96.2142857,15.7619048 96.3809524,15.1904762 L94,12.8333333 Z M94.7380952,17.8809524 C95.047619,17.5714286 95.3333333,17.2380952 95.5714286,16.8333333 L93.2142857,14.4761905 C92.9761905,14.8571429 92.6904762,15.1904762 92.3809524,15.5238095 L94.7380952,17.8809524 Z M91.4047619,16.2857143 L93.7857143,18.6666667 C94.0952381,18.4761905 94.4047619,18.2380952 94.6666667,17.9761905 L92.3095238,15.6190476 C92.0238095,15.8571429 91.7380952,16.0714286 91.4047619,16.2857143 Z M90.452381,16.7619048 L92.8333333,19.1428571 C93.1190476,19.0238095 93.4285714,18.8809524 93.6904762,18.6904762 L91.3095238,16.3095238 C91.047619,16.5 90.7380952,16.6428571 90.452381,16.7619048 Z M83.8095238,16.452381 L85.0714286,17.6666667 C85.3095238,17.9047619 85.5714286,18.1190476 85.8095238,18.2857143 L84.0952381,16.5714286 L83.8095238,16.452381 Z M84.7380952,16.8333333 C84.6190476,16.7857143 84.5,16.7619048 84.3809524,16.7142857 L86.3333333,18.6666667 C86.5,18.7619048 86.6666667,18.8809524 86.8571429,18.952381 L84.7380952,16.8333333 Z M89.5,17.047619 L91.9047619,19.452381 C92.1904762,19.3809524 92.452381,19.3095238 92.7142857,19.1904762 L90.3333333,16.8095238 C90.047619,16.9047619 89.7619048,16.9761905 89.5,17.047619 Z M84.9761905,16.9047619 L87.1904762,19.1190476 C87.3333333,19.1666667 87.5,19.2380952 87.6666667,19.2857143 L85.4047619,17.0238095 C85.2380952,16.9761905 85.1190476,16.9285714 84.9761905,16.9047619 Z M85.6190476,17.0714286 L87.9047619,19.3571429 C88.0714286,19.4047619 88.2380952,19.452381 88.4047619,19.4761905 L86.0714286,17.1428571 C85.9047619,17.1190476 85.7619048,17.0952381 85.6190476,17.0714286 Z M88.5714286,17.2142857 L90.9761905,19.6190476 C91.2380952,19.5952381 91.5,19.547619 91.7380952,19.5 L89.3333333,17.0952381 C89.0952381,17.1428571 88.8571429,17.1904762 88.5714286,17.2142857 Z M86.2619048,17.1904762 L88.5952381,19.5238095 C88.7857143,19.547619 88.9761905,19.5714286 89.1666667,19.5952381 L86.8095238,17.2380952 C86.6190476,17.2380952 86.452381,17.2142857 86.2619048,17.1904762 Z M87.7619048,17.2857143 L90.1428571,19.6666667 C90.3809524,19.6666667 90.6190476,19.6666667 90.8333333,19.6428571 L88.452381,17.2619048 C88.2142857,17.2619048 87.9761905,17.2619048 87.7619048,17.2857143 Z M87,17.2619048 L89.3571429,19.6190476 C89.5714286,19.6428571 89.7619048,19.6428571 89.9761905,19.6428571 L87.5952381,17.2619048 L87.4285714,17.2619048 C87.2857143,17.2857143 87.1428571,17.2857143 87,17.2619048 Z M110.095238,14.3333333 L113,17.2380952 L113,19.7380952 L102.357143,19.7380952 L99.452381,16.8333333 L99.452381,0.238095238 L102.071429,0.238095238 L104.97619,3.14285714 L104.97619,14.3095238 L110.095238,14.3095238 L110.095238,14.3333333 Z M104.666667,3.28571429 L102.190476,0.80952381 L102.190476,0.976190476 L104.666667,3.45238095 L104.666667,3.28571429 Z M104.666667,3.97619048 L104.666667,3.64285714 L102.190476,1.16666667 L102.190476,1.5 L104.666667,3.97619048 Z M104.666667,4.64285714 L104.666667,4.11904762 L102.190476,1.64285714 L102.190476,2.16666667 L104.666667,4.64285714 Z M104.666667,5.61904762 L104.666667,4.83333333 L102.190476,2.35714286 L102.190476,3.14285714 L104.666667,5.61904762 Z M104.666667,6.95238095 L104.666667,5.78571429 L102.190476,3.30952381 L102.190476,4.47619048 L104.666667,6.95238095 Z M104.666667,8.76190476 L104.666667,7.0952381 L102.190476,4.61904762 L102.190476,6.28571429 L104.666667,8.76190476 Z M102.166667,14.3333333 L104.642857,14.3333333 L104.642857,8.92857143 L102.166667,6.45238095 L102.166667,14.3333333 Z M112.666667,19.4047619 L112.666667,17.3809524 L110.190476,14.9047619 L110.190476,16.9285714 L112.666667,19.4047619 Z M100,16.9047619 L102.47619,19.3809524 L103.571429,19.3809524 L101.095238,16.9047619 L100,16.9047619 Z M101.238095,16.9047619 L103.738095,19.3809524 L104.714286,19.3809524 L102.238095,16.9047619 L101.238095,16.9047619 Z M102.380952,16.9047619 L104.880952,19.3809524 L105.761905,19.3809524 L103.261905,16.9047619 L102.380952,16.9047619 Z M103.428571,16.9047619 L105.928571,19.3809524 L106.690476,19.3809524 L104.214286,16.9047619 L103.428571,16.9047619 Z M104.380952,16.9047619 L106.880952,19.3809524 L107.571429,19.3809524 L105.071429,16.9047619 L104.380952,16.9047619 Z M105.238095,16.9047619 L107.714286,19.3809524 L108.333333,19.3809524 L105.857143,16.9047619 L105.238095,16.9047619 Z M106.02381,16.9047619 L108.52381,19.3809524 L109.071429,19.3809524 L106.571429,16.9047619 L106.02381,16.9047619 Z M106.714286,16.9047619 L109.214286,19.3809524 L109.690476,19.3809524 L107.214286,16.9047619 L106.714286,16.9047619 Z M107.357143,16.9047619 L109.857143,19.3809524 L110.285714,19.3809524 L107.809524,16.9047619 L107.357143,16.9047619 Z M107.952381,16.9047619 L110.428571,19.3809524 L110.809524,19.3809524 L108.333333,16.9047619 L107.952381,16.9047619 Z M108.5,16.9047619 L111,19.3809524 L111.309524,19.3809524 L108.809524,16.9047619 L108.5,16.9047619 Z M108.97619,16.9047619 L111.452381,19.3809524 L111.738095,19.3809524 L109.238095,16.9047619 L108.97619,16.9047619 Z M109.428571,16.9047619 L111.904762,19.3809524 L112.142857,19.3809524 L109.666667,16.9047619 L109.428571,16.9047619 Z M109.809524,16.9047619 L112.285714,19.3809524 L112.47619,19.3809524 L110.02381,16.9047619 L109.809524,16.9047619 Z M125.547619,11.7619048 C126.452381,12.6666667 126.833333,13.6428571 126.833333,15.0238095 C126.833333,17.952381 124.52381,19.9761905 121.166667,19.9761905 C118.738095,20.0238095 116.928571,19.3095238 115.785714,18.452381 L112.904762,15.5714286 L112.904762,12.8095238 L113.190476,12.6904762 C114.452381,13.8809524 116.214286,14.5238095 118.02381,14.5238095 C119.547619,14.5238095 120.761905,13.9761905 121.238095,13.1428571 C119.404762,12.2619048 117.285714,11.7619048 116.071429,10.2380952 L114.309524,8 C113.47619,6.92857143 113.071429,6.14285714 113.071429,4.85714286 C113.071429,1.97619048 115.357143,2.95331262e-12 118.690476,2.95331262e-12 C120.380952,-0.0238095238 122.095238,0.428571429 123.333333,1.21428571 L126.214286,4.0952381 L126.214286,6.71428571 L125.952381,6.83333333 C124.642857,5.85714286 123.119048,5.30952381 121.714286,5.30952381 C120.095238,5.30952381 118.904762,5.95238095 118.595238,6.95238095 C120.238095,7.54761905 121.97619,8.11904762 123.095238,9.26190476 L125.547619,11.7619048 Z M123.428571,1.78571429 L123.428571,3.92857143 L123.428571,3.92857143 L125.928571,6.42857143 L125.928571,4.28571429 L123.428571,1.78571429 Z M119.214286,2.57142857 C119.119048,2.57142857 119.02381,2.57142857 118.952381,2.57142857 C118.785714,2.57142857 118.595238,2.57142857 118.428571,2.5952381 L120.952381,5.11904762 C121.190476,5.0952381 121.452381,5.07142857 121.690476,5.07142857 L119.214286,2.57142857 Z M122.52381,5.0952381 L120.095238,2.66666667 C119.857143,2.61904762 119.619048,2.5952381 119.380952,2.57142857 L121.857143,5.04761905 C122.071429,5.04761905 122.285714,5.07142857 122.52381,5.0952381 Z M120.785714,5.11904762 L118.261905,2.5952381 C117.952381,2.64285714 117.666667,2.69047619 117.404762,2.78571429 L119.952381,5.33333333 C120.214286,5.23809524 120.5,5.16666667 120.785714,5.11904762 Z M123.285714,5.23809524 L120.952381,2.9047619 C120.738095,2.83333333 120.52381,2.76190476 120.309524,2.71428571 L122.714286,5.11904762 C122.904762,5.14285714 123.095238,5.19047619 123.285714,5.23809524 Z M119.857143,5.38095238 L117.309524,2.83333333 C116.97619,2.95238095 116.690476,3.11904762 116.452381,3.30952381 L119.02381,5.88095238 C119.261905,5.69047619 119.547619,5.52380952 119.857143,5.38095238 Z M124.047619,5.47619048 L121.833333,3.26190476 C121.642857,3.16666667 121.428571,3.07142857 121.214286,3 L123.52381,5.30952381 C123.690476,5.33333333 123.857143,5.4047619 124.047619,5.47619048 Z M118.309524,6.9047619 C118.428571,6.54761905 118.642857,6.23809524 118.928571,5.95238095 L116.357143,3.38095238 C116.02381,3.69047619 115.809524,4.04761905 115.761905,4.47619048 L118.142857,6.85714286 L118.309524,6.9047619 Z M124.738095,5.76190476 L122.785714,3.80952381 C122.595238,3.69047619 122.380952,3.54761905 122.166667,3.45238095 L124.309524,5.5952381 C124.452381,5.64285714 124.595238,5.69047619 124.738095,5.76190476 Z M123.214286,4.04761905 L125.095238,5.92857143 C125.214286,5.97619048 125.333333,6.04761905 125.47619,6.14285714 L123.333333,4 L123.214286,4.04761905 Z M115.738095,4.69047619 C115.738095,5.66666667 116.642857,6.21428571 117.857143,6.71428571 L115.738095,4.5952381 L115.738095,4.69047619 Z M116.595238,10.3333333 C117.02381,10.7857143 117.595238,11.1428571 118.261905,11.4761905 L115.595238,8.80952381 C115.452381,8.73809524 115.309524,8.64285714 115.190476,8.57142857 C115.595238,9.14285714 116.071429,9.76190476 116.595238,10.3333333 Z M116.761905,9.35714286 C116.47619,9.23809524 116.190476,9.11904762 115.952381,8.97619048 L118.595238,11.6190476 C118.857143,11.7380952 119.119048,11.8571429 119.404762,11.9761905 L116.761905,9.35714286 Z M117.02381,9.47619048 L119.666667,12.1190476 C119.880952,12.2142857 120.095238,12.2857143 120.285714,12.3809524 L117.619048,9.71428571 C117.428571,9.61904762 117.238095,9.54761905 117.02381,9.47619048 Z M117.880952,9.78571429 L120.595238,12.5 C120.761905,12.5714286 120.952381,12.6428571 121.119048,12.7380952 L118.357143,9.95238095 C118.214286,9.9047619 118.047619,9.85714286 117.880952,9.78571429 Z M121.404762,12.8333333 C121.404762,12.7857143 121.428571,12.7142857 121.452381,12.6666667 L119,10.1904762 C118.880952,10.1428571 118.761905,10.0952381 118.642857,10.0714286 L121.404762,12.8333333 Z M119.261905,10.2857143 L121.47619,12.5 C121.47619,12.452381 121.47619,12.4047619 121.47619,12.3571429 L121.47619,12.3571429 L119.571429,10.452381 L119.261905,10.2857143 Z M121.47619,12.1666667 L121.452381,12 L120.142857,10.6904762 C120.071429,10.6428571 119.97619,10.6190476 119.880952,10.5714286 L121.47619,12.1666667 Z M125.309524,12 L124,10.6904762 C124.166667,11.1428571 124.261905,11.6428571 124.261905,12.2142857 C124.261905,12.5 124.238095,12.7857143 124.190476,13.0714286 L126.5,15.3809524 C126.5,15.2619048 126.5,15.1428571 126.5,15.0238095 C126.5,13.7142857 126.142857,12.8333333 125.309524,12 Z M121.357143,11.7142857 C121.190476,11.4047619 120.904762,11.1190476 120.52381,10.9047619 L121.357143,11.7142857 Z M126.47619,15.5238095 L124.142857,13.1904762 C124.02381,13.7380952 123.833333,14.2380952 123.547619,14.6666667 L126,17.1190476 C126.261905,16.6428571 126.404762,16.0952381 126.47619,15.5238095 Z M125.166667,18.2142857 C125.47619,17.9285714 125.738095,17.5952381 125.928571,17.2380952 L123.47619,14.7857143 C123.261905,15.1428571 122.97619,15.4285714 122.666667,15.7142857 L125.166667,18.2142857 Z M121.714286,16.3571429 L124.238095,18.9047619 C124.547619,18.7142857 124.833333,18.5238095 125.095238,18.2857143 L122.595238,15.7857143 C122.309524,16 122.02381,16.2142857 121.714286,16.3571429 Z M114.119048,16.3095238 L115.97619,18.1666667 C116.142857,18.2857143 116.333333,18.4285714 116.52381,18.547619 L114.404762,16.452381 L114.119048,16.3095238 Z M120.738095,16.7857143 L123.285714,19.3333333 C123.595238,19.2380952 123.880952,19.1190476 124.142857,18.952381 L121.595238,16.4285714 C121.333333,16.5714286 121.047619,16.6904762 120.738095,16.7857143 Z M114.714286,16.5714286 L116.904762,18.7619048 C117.02381,18.8095238 117.166667,18.8809524 117.309524,18.952381 L115.047619,16.6904762 L114.714286,16.5714286 Z M115.285714,16.7619048 L117.595238,19.0714286 C117.738095,19.1190476 117.880952,19.1666667 118.047619,19.2142857 L115.690476,16.8571429 L115.285714,16.7619048 Z M119.785714,17.0238095 L122.309524,19.547619 C122.595238,19.5 122.880952,19.452381 123.142857,19.3571429 L120.619048,16.8333333 C120.333333,16.9047619 120.071429,16.9761905 119.785714,17.0238095 Z M115.904762,16.9285714 L118.285714,19.3095238 C118.452381,19.3571429 118.619048,19.4047619 118.785714,19.4285714 L116.357143,17 C116.214286,16.9761905 116.047619,16.952381 115.904762,16.9285714 Z M116.547619,17.047619 L118.97619,19.4761905 C119.166667,19.5 119.333333,19.547619 119.52381,19.5714286 L117.071429,17.1190476 C116.904762,17.0952381 116.738095,17.0714286 116.547619,17.047619 Z M122.166667,19.5714286 L119.642857,17.047619 C119.404762,17.0952381 119.142857,17.1190476 118.880952,17.1428571 L121.380952,19.6428571 C121.666667,19.6428571 121.928571,19.6190476 122.166667,19.5714286 Z M117.261905,17.1190476 L119.714286,19.5714286 C119.928571,19.5952381 120.119048,19.6190476 120.333333,19.6190476 L117.857143,17.1428571 C117.666667,17.1428571 117.47619,17.1428571 117.261905,17.1190476 Z M120.52381,19.6428571 C120.738095,19.6428571 120.952381,19.6428571 121.166667,19.6428571 L121.214286,19.6428571 L118.714286,17.1428571 C118.595238,17.1428571 118.47619,17.1428571 118.333333,17.1428571 L118.02381,17.1428571 L120.52381,19.6428571 Z M139.952381,14.3809524 L142.857143,17.2857143 L142.857143,19.7380952 L131.619048,19.7380952 L128.714286,16.8333333 L128.714286,0.238095238 L139.619048,0.238095238 L142.52381,3.14285714 L142.52381,5.45238095 L134.238095,5.45238095 L134.238095,7.11904762 L138.285714,7.11904762 L141.190476,10.0238095 L141.190476,12.3809524 L134.238095,12.3809524 L134.238095,14.3809524 L139.952381,14.3809524 L139.952381,14.3809524 Z M142.190476,3.28571429 L139.714286,0.80952381 L139.714286,2.76190476 L142.190476,5.14285714 L142.190476,3.28571429 Z M134.142857,5.11904762 L131.666667,2.73809524 L131.5,2.73809524 L133.97619,5.11904762 L134.142857,5.11904762 Z M134.619048,5.11904762 L132.142857,2.73809524 L131.857143,2.73809524 L134.333333,5.11904762 L134.619048,5.11904762 Z M135.190476,5.11904762 L132.714286,2.73809524 L132.309524,2.73809524 L134.785714,5.11904762 L135.190476,5.11904762 Z M135.904762,5.11904762 L133.428571,2.73809524 L132.880952,2.73809524 L135.357143,5.11904762 L135.904762,5.11904762 Z M136.833333,5.11904762 L134.333333,2.73809524 L133.595238,2.73809524 L136.071429,5.11904762 L136.833333,5.11904762 Z M137.761905,5.11904762 L135.261905,2.73809524 L134.52381,2.73809524 L137,5.11904762 L137.761905,5.11904762 Z M138.738095,5.11904762 L136.261905,2.73809524 L135.47619,2.73809524 L137.952381,5.11904762 L138.738095,5.11904762 Z M139.666667,5.11904762 L137.214286,2.73809524 L136.428571,2.73809524 L138.904762,5.11904762 L139.666667,5.11904762 Z M140.47619,5.11904762 L138,2.73809524 L137.357143,2.73809524 L139.833333,5.11904762 L140.47619,5.11904762 Z M141.190476,5.11904762 L138.714286,2.73809524 L138.166667,2.73809524 L140.666667,5.11904762 L141.190476,5.11904762 Z M141.642857,5.11904762 L139.190476,2.73809524 L138.880952,2.73809524 L141.380952,5.11904762 L141.642857,5.11904762 Z M142,5.11904762 L139.547619,2.73809524 L139.357143,2.73809524 L141.833333,5.11904762 L142,5.11904762 Z M131.404762,6.16666667 L131.97619,6.71428571 L131.880952,6.78571429 L131.404762,6.33333333 L131.404762,7.11904762 L133.880952,7.11904762 L133.880952,5.21428571 L131.404762,2.83333333 L131.404762,3.33333333 L133.571429,5.4047619 L133.47619,5.47619048 L131.428571,3.52380952 L131.428571,4.07142857 L133.190476,5.76190476 L133.095238,5.83333333 L131.428571,4.23809524 L131.428571,4.78571429 L132.785714,6.0952381 L132.690476,6.16666667 L131.428571,4.95238095 L131.428571,5.5 L132.404762,6.42857143 L132.309524,6.5 L131.428571,5.66666667 L131.428571,6.16666667 L131.404762,6.16666667 Z M138.380952,7.69047619 L138.380952,9.69047619 L138.380952,9.69047619 L140.880952,12.0714286 L140.880952,10.1904762 L138.380952,7.69047619 Z M133.97619,12.047619 L134.190476,12.047619 L131.714286,9.66666667 L131.5,9.66666667 L133.97619,12.047619 Z M131.880952,9.66666667 L134.357143,12.047619 L134.761905,12.047619 L132.285714,9.66666667 L131.880952,9.66666667 Z M132.47619,9.66666667 L134.952381,12.047619 L135.595238,12.047619 L133.095238,9.66666667 L132.47619,9.66666667 Z M133.285714,9.66666667 L135.761905,12.047619 L136.642857,12.047619 L134.166667,9.66666667 L133.285714,9.66666667 Z M137.761905,12.047619 L135.309524,9.66666667 L134.357143,9.66666667 L136.833333,12.047619 L137.761905,12.047619 Z M138.880952,12.047619 L136.404762,9.66666667 L135.47619,9.66666667 L137.952381,12.047619 L138.880952,12.047619 Z M139.690476,12.047619 L137.238095,9.66666667 L136.595238,9.66666667 L139.071429,12.047619 L139.690476,12.047619 Z M140.285714,12.047619 L137.809524,9.66666667 L137.380952,9.66666667 L139.857143,12.047619 L140.285714,12.047619 Z M137.952381,9.66666667 L140.452381,12.047619 L140.666667,12.047619 L138.190476,9.66666667 L137.952381,9.66666667 Z M131.404762,13.8333333 L131.714286,14.1190476 L131.619048,14.2142857 L131.404762,14.0238095 L131.404762,14.4047619 L133.880952,14.4047619 L133.880952,12.1428571 L131.404762,9.76190476 L131.404762,10.2857143 L133.571429,12.3571429 L133.5,12.4285714 L131.428571,10.452381 L131.428571,11 L133.238095,12.7142857 L133.142857,12.7857143 L131.428571,11.1428571 L131.428571,11.6904762 L132.857143,13.047619 L132.761905,13.1190476 L131.428571,11.8571429 L131.428571,12.4047619 L132.47619,13.4047619 L132.380952,13.4761905 L131.428571,12.5714286 L131.428571,13.1190476 L132.095238,13.7619048 L132,13.8333333 L131.404762,13.2619048 L131.404762,13.8333333 Z M140.047619,14.952381 L140.047619,16.9285714 L142.52381,19.4047619 L142.52381,17.4285714 L140.047619,14.952381 Z M130.404762,16.9047619 L129.285714,16.9047619 L131.761905,19.3809524 L132.904762,19.3809524 L130.404762,16.9047619 Z M131.595238,16.9047619 L130.571429,16.9047619 L133.047619,19.3809524 L134.071429,19.3809524 L131.595238,16.9047619 Z M131.761905,16.9047619 L134.261905,19.3809524 L135.166667,19.3809524 L132.666667,16.9047619 L131.761905,16.9047619 Z M132.833333,16.9047619 L135.333333,19.3809524 L136.142857,19.3809524 L133.642857,16.9047619 L132.833333,16.9047619 Z M134.52381,16.9047619 L133.809524,16.9047619 L136.285714,19.3809524 L137,19.3809524 L134.52381,16.9047619 Z M137.809524,19.4047619 L135.333333,16.9047619 L134.690476,16.9047619 L137.190476,19.3809524 L137.809524,19.3809524 L137.809524,19.4047619 Z M135.5,16.9047619 L137.97619,19.3809524 L138.547619,19.3809524 L136.047619,16.9047619 L135.5,16.9047619 Z M136.214286,16.9047619 L138.690476,19.3809524 L139.190476,19.3809524 L136.714286,16.9047619 L136.214286,16.9047619 Z M136.857143,16.9047619 L139.357143,19.3809524 L139.785714,19.3809524 L137.309524,16.9047619 L136.857143,16.9047619 Z M137.452381,16.9047619 L139.952381,19.3809524 L140.333333,19.3809524 L137.833333,16.9047619 L137.452381,16.9047619 Z M138,16.9047619 L140.5,19.3809524 L140.833333,19.3809524 L138.333333,16.9047619 L138,16.9047619 Z M138.5,16.9047619 L141,19.3809524 L141.285714,19.3809524 L138.761905,16.9047619 L138.5,16.9047619 Z M138.928571,16.9047619 L141.428571,19.3809524 L141.666667,19.3809524 L139.166667,16.9047619 L138.928571,16.9047619 Z M139.333333,16.9047619 L141.809524,19.3809524 L142.02381,19.3809524 L139.547619,16.9047619 L139.333333,16.9047619 Z M139.714286,16.9047619 L142.214286,19.3809524 L142.380952,19.3809524 L139.857143,16.9047619 L139.714286,16.9047619 Z" id="DeFi-Pulse"></path>
                </g>
            </g>
        </g>
    </g>
</svg>