<?xml version="1.0" encoding="UTF-8"?>
<svg width="211px" height="93px" viewBox="0 0 211 93" version="1.1" xmlns="http://www.w3.org/2000/svg" xmlns:xlink="http://www.w3.org/1999/xlink">
    <!-- Generator: Sketch 61.2 (89653) - https://sketch.com -->
    <title>Group 3</title>
    <desc>Created with Sketch.</desc>
    <defs>
        <rect id="path-1" x="0.588519257" y="0" width="104" height="55"></rect>
        <rect id="path-3" x="0" y="0" width="70.5" height="46"></rect>
    </defs>
    <g id="✅-Getting-Started" stroke="none" stroke-width="1" fill="none" fill-rule="evenodd">
        <g id="Buy-with-ETH---Mobile-Overflow-Copy-13" transform="translate(-32.000000, -122.000000)">
            <g id="Group-3" transform="translate(33.000000, 122.000000)">
                <rect id="Rectangle" fill="#1D144F" x="103.532749" y="8" width="15" height="79" rx="7.5"></rect>
                <rect id="Rectangle-Copy-2" fill="#1D144F" x="137.315539" y="8" width="15" height="79" rx="7.5"></rect>
                <g id="ETH" transform="translate(144.727020, 21.000000)">
                    <mask id="mask-2" fill="white">
                        <use xlink:href="#path-1"></use>
                    </mask>
                    <g id="Mask"></g>
                    <g mask="url(#mask-2)" id="eth">
                        <g transform="translate(-9.911481, 5.000000)">
                            <g>
                                <circle id="Oval" fill="#627EEA" fill-rule="nonzero" cx="22.7973662" cy="22.7973662" r="22.7973662"></circle>
                                <g id="Group" transform="translate(11.757366, 5.317366)" fill="#FFFFFF" fill-rule="nonzero">
                                    <polygon id="Path" fill-opacity="0.602" points="10.6834157 0 10.6834157 12.6382899 21.3654066 17.4114884"></polygon>
                                    <polygon id="Path" points="10.6834157 0 0 17.4114884 10.6834157 12.6382899"></polygon>
                                    <polygon id="Path" fill-opacity="0.602" points="10.6834157 25.6014423 10.6834157 34.1889251 21.3725308 19.4005586"></polygon>
                                    <polygon id="Path" points="10.6834157 34.1889251 10.6834157 25.6000174 0 19.4005586"></polygon>
                                    <polygon id="Path" fill-opacity="0.2" points="10.6834157 23.6137969 21.3654066 17.4114884 10.6834157 12.6411396"></polygon>
                                    <polygon id="Path" fill-opacity="0.602" points="0 17.4114884 10.6834157 23.6137969 10.6834157 12.6411396"></polygon>
                                </g>
                            </g>
                        </g>
                    </g>
                </g>
                <polygon id="Line" fill="#2D2CE5" fill-rule="nonzero" points="167.799737 25.6976578 179.382085 7.7002632 177.700263 6.6179154 166.117915 24.61531"></polygon>
                <path d="M163.714286,10.9035533 L158.41357,17.5 L169.015002,17.5 L163.714286,10.9035533 Z M164.842141,15.5 L162.58643,15.5 L163.714286,14.0964467 L164.842141,15.5 Z" id="Path-30" fill="#837AFF" fill-rule="nonzero" transform="translate(163.714286, 14.201777) rotate(-285.000000) translate(-163.714286, -14.201777) "></path>
                <polygon id="Line-Copy" fill="#E6AE31" fill-rule="nonzero" points="182.734388 39.3890465 209.427633 21.2656124 208.304199 19.6109535 181.610954 37.7343876"></polygon>
                <path d="M187.373062,89.6735281 C190.044333,89.6735281 192.209826,87.508035 192.209826,84.836764 C192.209826,82.165493 190.044333,80 187.373062,80 C184.701791,80 182.536298,82.165493 182.536298,84.836764 C182.536298,87.508035 184.701791,89.6735281 187.373062,89.6735281 Z M187.373062,87.6735281 C185.80636,87.6735281 184.536298,86.4034655 184.536298,84.836764 C184.536298,83.2700625 185.80636,82 187.373062,82 C188.939763,82 190.209826,83.2700625 190.209826,84.836764 C190.209826,86.4034655 188.939763,87.6735281 187.373062,87.6735281 Z" id="Oval-Copy-5" fill="#F1CD41" fill-rule="nonzero"></path>
                <rect id="Rectangle" fill="#2D2CE5" transform="translate(205.306536, 54.459534) rotate(-30.000000) translate(-205.306536, -54.459534) " x="203.306536" y="52.4595341" width="4" height="4"></rect>
                <rect id="Rectangle-Copy-3" fill="#837AFF" transform="translate(185.665530, 69.665530) rotate(-30.000000) translate(-185.665530, -69.665530) " x="184.41553" y="68.4155301" width="2.5" height="2.5"></rect>
                <rect id="Rectangle-Copy-4" fill="#F1CD41" transform="translate(181.292468, 17.200255) rotate(-30.000000) translate(-181.292468, -17.200255) " x="180.042468" y="15.9502549" width="2.5" height="2.5"></rect>
                <path d="M190.032504,8.60477573 C190.707837,6.49436102 191.474177,5.58205128 192.203157,5.58205128 C192.589127,5.58205128 192.907969,5.70542952 193.561067,6.0780369 C193.932547,6.28997518 193.865685,6.25203464 193.978953,6.31358228 C195.28872,7.02528229 196.382499,7.0747949 197.692087,6.1393745 C199.316348,4.97918844 200.1929,3.78958133 200.1929,2.5 L198.1929,2.5 C198.1929,2.99503406 197.681419,3.68918763 196.529611,4.51190755 C195.920418,4.94704557 195.628721,4.9338412 194.933845,4.55626008 C194.839471,4.50497934 194.900254,4.53947023 194.552158,4.34087335 C193.616325,3.80695904 193.035105,3.58205128 192.203157,3.58205128 C190.354359,3.58205128 189.038648,5.14837403 188.127656,7.99522427 L190.032504,8.60477573 Z" id="Path-31" fill="#2BB160" fill-rule="nonzero" transform="translate(194.160278, 5.552388) rotate(-25.000000) translate(-194.160278, -5.552388) "></path>
                <polygon id="Line-Copy-2" fill="#2BB160" fill-rule="nonzero" points="181.660468 59.4534917 208.492079 72.7125936 209.378119 70.9195701 182.546508 57.6604683"></polygon>
                <polygon id="Line-Copy-3" fill="#DF4857" fill-rule="nonzero" points="166.403085 73.3683175 177.648734 92.3698951 179.369895 91.3512655 168.124246 72.349688"></polygon>
                <g id="Dollar" transform="translate(40.815539, 26.000000)">
                    <mask id="mask-4" fill="white">
                        <use xlink:href="#path-3"></use>
                    </mask>
                    <g id="Mask"></g>
                    <g mask="url(#mask-4)">
                        <g transform="translate(10.000000, 0.000000)">
                            <rect id="Rectangle" stroke="none" fill="#2BB160" fill-rule="evenodd" x="0" y="0" width="86" height="46"></rect>
                            <path d="M71.9654494,5 C71.9654494,8.69170697 74.9581692,11.6844268 78.6498761,11.6844268 L78.6498761,34.3155732 L78.6498761,34.3155732 C74.9581692,34.3155732 71.9654494,37.308293 71.9654494,41 L14.0345506,41 C14.0345506,37.308293 11.0418308,34.3155732 7.35012386,34.3155732 L7.35012386,11.6844268 C11.0418308,11.6844268 14.0345506,8.69170697 14.0345506,5 L71.9654494,5 Z" id="Combined-Shape" stroke="none" fill="#60BE85" fill-rule="evenodd"></path>
                            <path d="M71.9654494,41 L14.0345506,41 C14.0345506,37.308293 11.0418308,34.3155732 7.35012386,34.3155732 L7.35012386,11.6844268 C11.0418308,11.6844268 14.0345506,8.69170697 14.0345506,5 L71.9654494,5 C71.9654494,8.69170697 74.9581692,11.6844268 78.6498761,11.6844268 L78.6498761,34.3155732 C74.9581692,34.3155732 71.9654494,37.308293 71.9654494,41 Z M77.0498761,13.1300471 C73.7578507,12.4858905 71.1639857,9.89202544 70.5198291,6.6 L15.4801709,6.6 C14.8360143,9.89202544 12.2421493,12.4858905 8.95012386,13.1300471 L8.95012386,32.8699529 C12.2421493,33.5141095 14.8360143,36.1079746 15.4801709,39.4 L70.5198291,39.4 C71.1639857,36.1079746 73.7578507,33.5141095 77.0498761,32.8699529 L77.0498761,13.1300471 Z" id="Combined-Shape-Copy" stroke="none" fill="#FFFFFF" fill-rule="nonzero"></path>
                            <circle id="Oval" stroke="#FFFFFF" stroke-width="1.6" fill="none" cx="43" cy="23" r="12.5"></circle>
                            <path d="M42.6056962,31.764 L42.6056962,29.3794008 C39.3949367,29.1540844 38.3246835,27.2952236 38.0993671,25.1359409 L39.6765823,25.1359409 C39.864346,26.6004979 40.3149789,27.8960675 42.6056962,28.1026076 L42.6056962,22.8827764 C40.1272152,22.4133671 38.6438819,21.5308776 38.6438819,19.2777131 C38.6438819,17.3249705 40.2586498,15.8040844 42.6056962,15.6538734 L42.6056962,13.964 L43.7135021,13.964 L43.7135021,15.6726498 C45.9666667,15.8791899 47.3748945,17.1559831 47.6189873,19.3340422 L46.1544304,19.3340422 C45.8727848,17.8882616 45.1029536,17.1372068 43.7135021,16.949443 L43.7135021,21.6435359 C46.4736287,22.1317215 47.9006329,23.014211 47.9006329,25.4363629 C47.9006329,27.5768692 46.1544304,29.2291899 43.7135021,29.3794008 L43.7135021,31.764 L42.6056962,31.764 Z M46.3421941,25.5490211 C46.3421941,24.1595696 45.7601266,23.5023966 43.7135021,23.0705401 L43.7135021,28.1026076 C45.2156118,27.9523966 46.3421941,26.9384726 46.3421941,25.5490211 Z M40.1272152,19.1275021 C40.1272152,20.3104135 40.521519,21.0239156 42.6056962,21.4557722 L42.6056962,16.9306667 C41.028481,17.0621013 40.1272152,17.9633671 40.1272152,19.1275021 Z" id="$" stroke="none" fill="#FFFFFF" fill-rule="nonzero"></path>
                        </g>
                    </g>
                </g>
                <g id="Group-2" transform="translate(0.000000, 32.500000)" fill="#1D144F" fill-rule="nonzero">
                    <polygon id="Line-9" points="41 0 33.2984449 0 33.2984449 2 41 2"></polygon>
                    <polygon id="Line-9-Copy" points="41 14 20.6310778 14 20.6310778 16 41 16"></polygon>
                    <polygon id="Line-9-Copy-2" points="41 28 -0.485036123 28 -0.485036123 30 41 30"></polygon>
                </g>
            </g>
        </g>
    </g>
</svg>