<?xml version="1.0" encoding="UTF-8"?>
<svg width="516px" height="217px" viewBox="0 0 516 217" version="1.1" xmlns="http://www.w3.org/2000/svg" xmlns:xlink="http://www.w3.org/1999/xlink">
    <title>dpi-card</title>
    <defs>
        <rect id="path-1" x="0" y="0" width="492" height="192" rx="8"></rect>
        <filter x="-4.3%" y="-7.8%" width="108.5%" height="121.9%" filterUnits="objectBoundingBox" id="filter-2">
            <feOffset dx="0" dy="6" in="SourceAlpha" result="shadowOffsetOuter1"></feOffset>
            <feGaussianBlur stdDeviation="6" in="shadowOffsetOuter1" result="shadowBlurOuter1"></feGaussianBlur>
            <feComposite in="shadowBlurOuter1" in2="SourceAlpha" operator="out" result="shadowBlurOuter1"></feComposite>
            <feColorMatrix values="0 0 0 0 0.882352941   0 0 0 0 0.882352941   0 0 0 0 0.937254902  0 0 0 1 0" type="matrix" in="shadowBlurOuter1"></feColorMatrix>
        </filter>
        <polygon id="path-3" points="0 0 99.1328156 0 99.1328156 99.4782609 0 99.4782609"></polygon>
    </defs>
    <g id="💠-V5" stroke="none" stroke-width="1" fill="none" fill-rule="evenodd">
        <g id="Home-Page---Asset-Managers-Copy" transform="translate(-754.000000, -891.000000)">
            <g id="dpi-card" transform="translate(766.000000, 897.146560)">
                <g id="Rectangle">
                    <use fill="black" fill-opacity="1" filter="url(#filter-2)" xlink:href="#path-1"></use>
                    <rect stroke="#E1E1EF" stroke-width="1" stroke-linejoin="square" fill="#FFFFFF" fill-rule="evenodd" x="0.5" y="0.5" width="491" height="191" rx="8"></rect>
                </g>
                <g id="Group" transform="translate(35.550255, 47.500000)">
                    <g id="defi_pulse_index_set" transform="translate(0.362319, 0.000000)">
                        <g id="Fill-1-Clipped" transform="translate(0.252416, 0.260870)">
                            <mask id="mask-4" fill="white">
                                <use xlink:href="#path-3"></use>
                            </mask>
                            <g id="path-1"></g>
                            <path d="M99.1328156,49.7391304 C99.1328156,77.2093913 76.9412685,99.4782609 49.5663906,99.4782609 C22.1915124,99.4782609 -3.46618357e-05,77.2093913 -3.46618357e-05,49.7391304 C-3.46618357e-05,22.2688696 22.1915124,0 49.5663906,0 C76.9412685,0 99.1328156,22.2688696 99.1328156,49.7391304" id="Fill-1" fill="#8150E6" fill-rule="nonzero" mask="url(#mask-4)"></path>
                        </g>
                        <path d="M97.5327986,63.5132174 L62.2442768,28.6662609 L42.1355594,24.8986087 L30.3668264,69.3368696 L60.0619678,98.6732174 C78.1284098,94.8634783 92.5730366,81.1834783 97.5327986,63.5132174" id="Fill-4" fill="#3C176B" fill-rule="nonzero"></path>
                        <path d="M45.5399065,65.4413565 L45.5399065,37.9439652 L52.4653413,37.9439652 C54.7932301,37.9439652 56.9308254,38.240313 58.8788207,38.8333565 C60.8254293,39.4264 62.5117275,40.3488348 63.9370225,41.6006609 C64.1325152,41.7721391 64.320729,41.9526609 64.5047833,42.1390957 C64.5287,38.4117913 63.1834739,34.6973565 61.279846,31.3384 C59.1672072,30.7387478 56.9928703,30.4333565 54.7537156,30.4333565 L37.9520841,30.4333565 L37.9520841,65.4069217 C40.5056214,65.4361391 42.9991938,65.644487 45.5399065,65.4413565" id="Fill-6" fill="#6B42BD" fill-rule="nonzero"></path>
                        <path d="M74.6262819,43.4452174 C73.421783,40.5248696 71.8155536,38.0984348 69.8086333,36.1652174 C67.8006732,34.2330435 65.4925417,32.7951304 62.8831986,31.850087 C62.3532192,31.658087 61.8180402,31.4911304 61.279742,31.3384348 C63.1833699,34.6973913 64.528596,38.4118261 64.5046793,42.1391304 C65.6603047,43.3102609 66.3986018,47.8514783 67.0918388,49.594087 L45.5398025,69.3377391 L45.5398025,65.4413913 C42.9990899,65.6445217 40.5055174,65.4361739 37.9523264,65.4069565 L37.9523264,76.848 L53.8503243,76.848 C56.4191127,76.848 59.0385076,76.3766957 61.7088554,75.4316522 C64.3785101,74.4876522 66.8069185,73.0598261 68.9954667,71.1492174 C71.1833217,69.2386087 72.9701395,66.8236522 74.3552264,63.9022609 C75.7403134,60.981913 76.4328569,57.5231304 76.4328569,53.525913 C76.4328569,49.5728696 75.8307808,46.3666087 74.6262819,43.4452174" id="Fill-8" fill="#9B74EC" fill-rule="nonzero"></path>
                        <path d="M43.6141293,61.8166261 C45.9825728,61.8166261 48.2210341,61.5202783 50.3284736,60.9272348 C52.4362598,60.3341913 54.2729906,59.4117565 55.8386656,58.1602783 C57.4043409,56.9084522 58.6389953,55.2841043 59.542283,53.2848 C60.4455703,51.286887 60.8972141,48.8604522 60.8972141,46.0048 C60.8972141,43.194713 60.4954833,41.0086261 59.6927152,38.9877565 C58.889254,36.9679304 57.7752225,35.3314087 56.350621,34.0795826 C54.9249797,32.8277565 53.2390279,31.9053217 51.2920728,31.3126261 C49.3444243,30.7195826 47.2064822,30.4232348 44.8785931,30.4232348 L37.9535051,30.4232348 L37.9535051,61.8166261 L43.6141293,61.8166261 Z M30.3656826,22.9126261 L47.1669678,22.9126261 C49.9766562,22.9126261 52.6865185,23.3849739 55.2969011,24.3289739 C57.9058975,25.2740174 60.2140293,26.7119304 62.2219895,28.6444522 C64.2292562,30.5776696 65.8354859,33.0037565 67.039638,35.9241043 C68.2441366,38.8454957 68.8462127,42.0521043 68.8462127,46.0048 C68.8462127,50.0020174 68.1536692,53.4608 66.7685822,56.3811478 C65.3834953,59.302887 63.5966779,61.7174957 61.4091692,63.6284522 C59.220621,65.5390609 56.7918663,66.9665391 54.1225583,67.9105391 C51.4518638,68.8555826 48.8324688,69.3272348 46.2636801,69.3272348 L30.3656826,69.3272348 L30.3656826,22.9126261 Z" id="Fill-10" fill="#FFFFFF" fill-rule="nonzero"></path>
                    </g>
                </g>
                <g id="Group-6" transform="translate(161.449745, 63.500000)" fill-rule="nonzero">
                    <path d="M11.16,28 C20.196,28 24.696,22.852 24.696,15.148 L24.696,14.86 C24.696,7.156 20.232,2.26 11.196,2.26 L2.772,2.26 L2.772,28 L11.16,28 Z M10.98,23.464 L8.604,23.464 L8.604,6.796 L10.908,6.796 C16.344,6.796 18.612,9.64 18.612,14.932 L18.612,15.22 C18.612,20.548 16.164,23.464 10.98,23.464 Z M35.856,28.396 C41.004,28.396 44.244,26.128 44.856,22.06 L39.924,22.06 C39.6,23.644 38.412,24.688 36,24.688 C33.156,24.688 31.464,22.888 31.32,19.756 L44.892,19.756 L44.892,18.316 C44.892,11.584 40.572,8.74 35.712,8.74 C30.24,8.74 26.028,12.592 26.028,18.532 L26.028,18.82 C26.028,24.832 30.168,28.396 35.856,28.396 Z M39.816,16.552 L31.392,16.552 C31.788,13.888 33.372,12.34 35.712,12.34 C38.196,12.34 39.636,13.708 39.816,16.552 Z M53.352,28 L53.352,18.028 L61.812,18.028 L61.812,13.636 L53.352,13.636 L53.352,6.832 L64.044,6.832 L64.044,2.26 L47.52,2.26 L47.52,28 L53.352,28 Z M68.544,6.616 C70.236,6.616 71.532,5.392 71.532,3.772 C71.532,2.152 70.236,0.928 68.544,0.928 C66.888,0.928 65.592,2.152 65.592,3.772 C65.592,5.392 66.888,6.616 68.544,6.616 Z M71.172,28 L71.172,9.172 L65.988,9.172 L65.988,28 L71.172,28 Z M87.696,28 L87.696,18.64 L90.972,18.64 C96.84,18.64 100.62,16.048 100.62,10.612 L100.62,10.468 C100.62,5.032 97.056,2.26 90.792,2.26 L81.9,2.26 L81.9,28 L87.696,28 Z M90.648,14.572 L87.696,14.572 L87.696,6.688 L90.648,6.688 C93.42,6.688 95.004,7.768 95.004,10.504 L95.004,10.648 C95.004,13.204 93.492,14.572 90.648,14.572 Z M108.972,28.396 C112.068,28.396 113.976,26.956 114.948,25.048 L114.948,28 L120.132,28 L120.132,9.172 L114.948,9.172 L114.948,20.224 C114.948,22.996 113.22,24.364 111.024,24.364 C108.792,24.364 107.748,23.14 107.748,20.584 L107.748,9.172 L102.564,9.172 L102.564,21.304 C102.564,26.236 105.3,28.396 108.972,28.396 Z M128.808,28 L128.808,0.64 L123.624,0.64 L123.624,28 L128.808,28 Z M139.14,28.396 C144.108,28.396 147.06,26.272 147.06,22.204 C147.06,18.172 144.468,16.984 139.752,16.3 C137.016,15.904 136.116,15.436 136.116,14.248 C136.116,13.096 137.088,12.304 138.78,12.304 C140.58,12.304 141.444,13.024 141.732,14.572 L146.52,14.572 C146.052,10.252 142.92,8.74 138.744,8.74 C134.892,8.74 131.292,10.684 131.292,14.608 C131.292,18.28 133.236,19.72 138.24,20.476 C140.94,20.872 142.056,21.412 142.056,22.708 C142.056,24.004 141.12,24.76 139.104,24.76 C136.836,24.76 136.008,23.788 135.792,22.096 L130.932,22.096 C131.112,26.164 134.064,28.396 139.14,28.396 Z M157.788,28.396 C162.936,28.396 166.176,26.128 166.788,22.06 L161.856,22.06 C161.532,23.644 160.344,24.688 157.932,24.688 C155.088,24.688 153.396,22.888 153.252,19.756 L166.824,19.756 L166.824,18.316 C166.824,11.584 162.504,8.74 157.644,8.74 C152.172,8.74 147.96,12.592 147.96,18.532 L147.96,18.82 C147.96,24.832 152.1,28.396 157.788,28.396 Z M161.748,16.552 L153.324,16.552 C153.72,13.888 155.304,12.34 157.644,12.34 C160.128,12.34 161.568,13.708 161.748,16.552 Z M182.196,28 L182.196,2.26 L176.328,2.26 L176.328,28 L182.196,28 Z M191.376,28 L191.376,17.128 C191.376,14.356 193.068,12.988 195.3,12.988 C197.604,12.988 198.612,14.212 198.612,16.768 L198.612,28 L203.832,28 L203.832,16.012 C203.832,10.972 201.204,8.74 197.496,8.74 C194.364,8.74 192.312,10.288 191.376,12.16 L191.376,9.172 L186.156,9.172 L186.156,28 L191.376,28 Z M214.092,28.396 C216.864,28.396 219.168,26.776 220.14,24.868 L220.14,28 L225.324,28 L225.324,0.64 L220.14,0.64 L220.14,11.98 C219.096,10.072 217.224,8.74 214.2,8.74 C209.484,8.74 205.92,12.376 205.92,18.568 L205.92,18.856 C205.92,25.12 209.52,28.396 214.092,28.396 Z M215.64,24.328 C213.048,24.328 211.248,22.492 211.248,18.748 L211.248,18.46 C211.248,14.716 212.868,12.736 215.784,12.736 C218.628,12.736 220.284,14.644 220.284,18.388 L220.284,18.676 C220.284,22.492 218.376,24.328 215.64,24.328 Z M237.384,28.396 C242.532,28.396 245.772,26.128 246.384,22.06 L241.452,22.06 C241.128,23.644 239.94,24.688 237.528,24.688 C234.684,24.688 232.992,22.888 232.848,19.756 L246.42,19.756 L246.42,18.316 C246.42,11.584 242.1,8.74 237.24,8.74 C231.768,8.74 227.556,12.592 227.556,18.532 L227.556,18.82 C227.556,24.832 231.696,28.396 237.384,28.396 Z M241.344,16.552 L232.92,16.552 C233.316,13.888 234.9,12.34 237.24,12.34 C239.724,12.34 241.164,13.708 241.344,16.552 Z M251.352,28 L255.42,21.664 L259.38,28 L265.392,28 L258.768,17.992 L264.78,9.172 L259.38,9.172 L255.924,14.824 L252.396,9.172 L246.42,9.172 L252.432,18.388 L245.988,28 L251.352,28 Z" id="DeFiPulseIndex" fill="#1D144F"></path>
                    <path d="M9.048,68 L14.976,50.84 L13.008,50.84 L7.896,65.984 L2.784,50.84 L0.72,50.84 L6.552,68 L9.048,68 Z M17.64,52.832 C18.36,52.832 18.96,52.232 18.96,51.512 C18.96,50.792 18.36,50.192 17.64,50.192 C16.92,50.192 16.32,50.792 16.32,51.512 C16.32,52.232 16.92,52.832 17.64,52.832 Z M18.672,68 L18.672,55.448 L16.68,55.448 L16.68,68 L18.672,68 Z M27.048,68.216 C29.88,68.216 31.968,66.896 32.4,64.376 L30.408,64.376 C30.144,65.84 29.016,66.56 27.072,66.56 C24.504,66.56 23.136,64.976 23.04,62.12 L32.496,62.12 L32.496,61.472 C32.496,56.984 29.76,55.232 26.856,55.232 C23.4,55.232 20.976,57.872 20.976,61.664 L20.976,61.856 C20.976,65.72 23.496,68.216 27.048,68.216 Z M30.456,60.512 L23.112,60.512 C23.448,58.28 24.816,56.888 26.856,56.888 C28.92,56.888 30.264,57.92 30.456,60.512 Z M39.288,68 L42.216,58.592 L44.832,68 L47.04,68 L50.952,55.448 L48.912,55.448 L45.96,65.552 L43.104,55.448 L41.376,55.448 L38.328,65.552 L35.4,55.448 L33.24,55.448 L37.104,68 L39.288,68 Z M62.136,68.168 C62.952,68.168 63.432,68.048 63.84,67.904 L63.84,66.224 C63.408,66.392 62.928,66.488 62.304,66.488 C61.296,66.488 60.744,65.888 60.744,64.664 L60.744,57.128 L63.672,57.128 L63.672,55.448 L60.744,55.448 L60.744,52.592 L58.752,52.592 L58.752,55.448 L56.952,55.448 L56.952,57.128 L58.752,57.128 L58.752,64.856 C58.752,66.824 59.856,68.168 62.136,68.168 Z M67.992,68 L67.992,60.392 C67.992,58.136 69.648,56.96 71.496,56.96 C73.512,56.96 74.448,57.944 74.448,60.152 L74.448,68 L76.44,68 L76.44,60.296 C76.44,56.648 74.616,55.232 72.024,55.232 C69.96,55.232 68.568,56.264 67.992,57.44 L67.992,49.448 L66,49.448 L66,68 L67.992,68 Z M84.648,68.216 C87.48,68.216 89.568,66.896 90,64.376 L88.008,64.376 C87.744,65.84 86.616,66.56 84.672,66.56 C82.104,66.56 80.736,64.976 80.64,62.12 L90.096,62.12 L90.096,61.472 C90.096,56.984 87.36,55.232 84.456,55.232 C81,55.232 78.576,57.872 78.576,61.664 L78.576,61.856 C78.576,65.72 81.096,68.216 84.648,68.216 Z M88.056,60.512 L80.712,60.512 C81.048,58.28 82.416,56.888 84.456,56.888 C86.52,56.888 87.864,57.92 88.056,60.512 Z M103.512,68.216 C106.92,68.216 109.44,66.032 109.44,63.152 C109.44,59.912 107.424,58.76 103.608,58.16 C100.104,57.632 99.48,56.768 99.48,55.088 C99.48,53.48 100.704,52.304 103.056,52.304 C105.432,52.304 106.68,53.192 107.088,55.352 L108.96,55.352 C108.624,52.304 106.488,50.624 103.056,50.624 C99.816,50.624 97.536,52.64 97.536,55.28 C97.536,58.328 99.672,59.456 103.272,60.008 C106.536,60.536 107.424,61.352 107.424,63.296 C107.424,65.24 105.72,66.536 103.512,66.536 C100.056,66.536 99.24,64.808 98.976,62.768 L96.96,62.768 C97.272,65.696 98.928,68.216 103.512,68.216 Z M117.168,68.216 C120,68.216 122.088,66.896 122.52,64.376 L120.528,64.376 C120.264,65.84 119.136,66.56 117.192,66.56 C114.624,66.56 113.256,64.976 113.16,62.12 L122.616,62.12 L122.616,61.472 C122.616,56.984 119.88,55.232 116.976,55.232 C113.52,55.232 111.096,57.872 111.096,61.664 L111.096,61.856 C111.096,65.72 113.616,68.216 117.168,68.216 Z M120.576,60.512 L113.232,60.512 C113.568,58.28 114.936,56.888 116.976,56.888 C119.04,56.888 120.384,57.92 120.576,60.512 Z M128.64,68.168 C129.456,68.168 129.936,68.048 130.344,67.904 L130.344,66.224 C129.912,66.392 129.432,66.488 128.808,66.488 C127.8,66.488 127.248,65.888 127.248,64.664 L127.248,57.128 L130.176,57.128 L130.176,55.448 L127.248,55.448 L127.248,52.592 L125.256,52.592 L125.256,55.448 L123.456,55.448 L123.456,57.128 L125.256,57.128 L125.256,64.856 C125.256,66.824 126.36,68.168 128.64,68.168 Z" id="ViewtheSet" fill="#2D2CE5"></path>
                </g>
            </g>
        </g>
    </g>
</svg>