<?xml version="1.0" encoding="UTF-8"?>
<svg width="50px" height="51px" viewBox="0 0 50 51" version="1.1" xmlns="http://www.w3.org/2000/svg" xmlns:xlink="http://www.w3.org/1999/xlink">
    <!-- Generator: Sketch 61.2 (89653) - https://sketch.com -->
    <title>Group 4</title>
    <desc>Created with Sketch.</desc>
    <g id="ðŸ¶-V3" stroke="none" stroke-width="1" fill="none" fill-rule="evenodd">
        <g id="User-Profile---Portfolio---Tokens-Copy-11" transform="translate(-248.000000, -458.000000)">
            <g id="Portfolio" transform="translate(131.500000, 112.000000)">
                <g id="Group-4" transform="translate(116.500000, 346.500000)">
                    <circle id="Oval" fill="#E0DCF4" cx="25" cy="25" r="25"></circle>
                    <path d="M19.0674038,10.5554012 C19.3129489,9.76420014 20.1533978,9.32185865 20.9445988,9.56740379 C21.6892586,9.79850511 22.1248941,10.5565799 21.968856,11.304595 L21.9325962,11.4445988 L12.9325962,40.4445988 C12.6870511,41.2357999 11.8466022,41.6781414 11.0554012,41.4325962 C10.3107414,41.2014949 9.87510595,40.4434201 10.031144,39.695405 L10.0674038,39.5554012 L19.0674038,10.5554012 Z" id="Line" fill="#1D144F" fill-rule="nonzero"></path>
                    <path d="M21.5487839,12.5 C23.7288139,12.8262678 26.0748149,12.9894017 28.5867867,12.9894017 C32.3547444,12.9894017 32.4225892,12.167702 36.2230975,12.167702 C38.7567697,12.167702 40.8653318,12.6118013 42.5487839,13.5 L38.274057,27.5 C37.1953299,26.8333333 35.4501787,26.5 33.0386037,26.5 C29.4212411,26.5 25.4590701,27.4442551 23.8822496,27.4442551 C21.6410822,27.4442551 19.4383514,27.1295034 17.274057,26.5 L21.5487839,12.5 Z" id="Rectangle" fill="#FFFFFF"></path>
                    <circle id="Oval" fill="#1D144F" cx="21.5" cy="8" r="1.95971136"></circle>
                </g>
            </g>
        </g>
    </g>
</svg>