<?xml version="1.0" encoding="UTF-8"?>
<svg width="52px" height="49px" viewBox="0 0 52 49" version="1.1" xmlns="http://www.w3.org/2000/svg" xmlns:xlink="http://www.w3.org/1999/xlink">
    <title>governance</title>
    <g id="💠-V5" stroke="none" stroke-width="1" fill="none" fill-rule="evenodd">
        <g id="Trader-Dashboard-Copy-40" transform="translate(-575.000000, -1233.000000)" fill="#9B97B3">
            <g id="Group-2" transform="translate(486.000000, 970.656250)">
                <g id="governance" transform="translate(89.630041, 262.496775)">
                    <path d="M24.1808166,0.822774369 L5.110725,14.3695156 C4.21023335,15.0091941 3.99880251,16.2577487 4.638481,17.1582404 C5.01359904,17.6863036 5.62122754,18 6.26896536,18 L44.4091485,18 C45.513718,18 46.4091485,17.1045695 46.4091485,16 C46.4091485,15.3522622 46.095452,14.7446337 45.5673888,14.3695156 L26.4972973,0.822774369 C25.8037286,0.330086853 24.8743853,0.330086853 24.1808166,0.822774369 Z" id="Path-2"></path>
                    <rect id="Rectangle" x="8.95305062" y="19.578429" width="5.93302004" height="16.4257648"></rect>
                    <rect id="Rectangle" x="5.83905692" y="37.5754877" width="39" height="3.92773689" rx="1.96386845"></rect>
                    <rect id="Rectangle-Copy-15" x="0" y="43.1126817" width="50.6781138" height="3.92773689" rx="1.96386845"></rect>
                    <rect id="Rectangle-Copy-13" x="22.3725469" y="19.578429" width="5.93302004" height="16.4257648"></rect>
                    <rect id="Rectangle-Copy-14" x="35.7920432" y="19.578429" width="5.93302004" height="16.4257648"></rect>
                </g>
            </g>
        </g>
    </g>
</svg>