<svg width="156" height="35" viewBox="0 0 156 35" fill="none" xmlns="http://www.w3.org/2000/svg">
<g clip-path="url(#clip0)">
<path d="M45.8232 2.25H52.3453V32.6321H45.8232V2.25Z" fill="#9B97B3"/>
<path d="M69.8482 10.0586C72.4571 10.0586 74.6022 10.8688 76.2835 12.4892C77.9647 14.1095 78.8053 16.7861 78.8053 20.5187V32.6282H72.6745V20.8659C72.6745 17.0176 71.1673 15.0933 68.1526 15.0933C66.5582 15.0933 65.3263 15.6287 64.4567 16.6992C63.5872 17.7699 63.1523 19.2745 63.1523 21.2132V32.6282H57.0215V10.319H62.3696L62.9349 13.0968C63.7176 12.142 64.6596 11.4041 65.7611 10.8833C66.8627 10.3335 68.225 10.0586 69.8482 10.0586Z" fill="#9B97B3"/>
<path d="M105.018 2.25V32.6321H99.6703L99.0616 29.5506C97.3513 31.7786 95.0323 32.8926 92.1047 32.8926C90.1336 32.8926 88.3653 32.4296 86.8 31.5037C85.2347 30.5488 84.0028 29.2034 83.1042 27.4671C82.2346 25.7311 81.7998 23.72 81.7998 21.4342C81.7998 19.1772 82.2346 17.1951 83.1042 15.4879C84.0028 13.7518 85.2347 12.4208 86.8 11.4948C88.3943 10.54 90.177 10.0625 92.1481 10.0625C95.0468 10.0625 97.2934 11.0753 98.8877 13.1008V2.25H105.018ZM93.5396 27.9012C95.1917 27.9012 96.5108 27.3225 97.4963 26.1651C98.4819 24.9788 98.9745 23.4308 98.9745 21.5209C98.9745 19.5823 98.4819 18.0198 97.4963 16.8335C96.5108 15.6471 95.1917 15.054 93.5396 15.054C91.8873 15.054 90.5539 15.6471 89.5393 16.8335C88.5538 18.0198 88.061 19.5678 88.061 21.4775C88.061 23.3873 88.5538 24.9353 89.5393 26.1217C90.5539 27.308 91.8873 27.9012 93.5396 27.9012Z" fill="#9B97B3"/>
<path d="M108.423 21.517C108.423 19.2022 108.887 17.1912 109.814 15.4839C110.771 13.7479 112.09 12.4168 113.771 11.4909C115.481 10.536 117.452 10.0586 119.684 10.0586C121.945 10.0586 123.931 10.5071 125.641 11.4041C127.38 12.2722 128.728 13.5164 129.685 15.1367C130.67 16.7282 131.178 18.609 131.207 20.7792C131.207 21.5604 131.149 22.2548 131.033 22.8625H114.814V23.0362C114.959 24.6564 115.481 25.9297 116.38 26.8555C117.278 27.7816 118.51 28.2444 120.076 28.2444C121.322 28.2444 122.351 27.9841 123.163 27.4632C124.003 26.9135 124.554 26.1177 124.815 25.076H130.859C130.627 26.5518 130.062 27.8828 129.163 29.0691C128.264 30.2555 127.076 31.1958 125.598 31.8903C124.119 32.5559 122.424 32.8886 120.511 32.8886C118.017 32.8886 115.858 32.4256 114.032 31.4997C112.235 30.5738 110.843 29.2572 109.858 27.5501C108.901 25.814 108.423 23.803 108.423 21.517ZM125.076 18.8694C124.873 17.5094 124.308 16.4679 123.38 15.7444C122.482 14.9921 121.337 14.6159 119.945 14.6159C118.612 14.6159 117.481 15.0066 116.554 15.7878C115.655 16.5401 115.119 17.5673 114.945 18.8694H125.076Z" fill="#9B97B3"/>
<path d="M139.842 21.2578L131.928 10.3203H138.929L143.581 16.9175L148.321 10.3203H154.887L147.017 21.2578L155.321 32.6295H148.321L143.19 25.6415L138.103 32.6295H131.537L139.842 21.2578Z" fill="#9B97B3"/>
<path fill-rule="evenodd" clip-rule="evenodd" d="M17.5703 35C27.2741 35 35.1406 27.1649 35.1406 17.5C35.1406 7.83501 27.2741 0 17.5703 0C7.86648 0 0 7.83501 0 17.5C0 27.1649 7.86648 35 17.5703 35ZM17.5703 28.9925C24.6671 28.9925 30.4202 23.277 30.4202 16.2264C30.4202 9.17572 24.6671 6.26865 17.5703 6.26865C10.4735 6.26865 4.72038 9.17572 4.72038 16.2264C4.72038 23.277 10.4735 28.9925 17.5703 28.9925Z" fill="#9B97B3"/>
<path fill-rule="evenodd" clip-rule="evenodd" d="M9.96573 18.2814C10.7189 18.2814 11.4047 17.9938 11.9185 17.5231C12.1982 18.0211 12.5019 18.5488 12.8179 19.0771C13.4892 20.2 14.2336 21.3555 14.9333 22.2413C15.2809 22.6814 15.6435 23.0885 16.0037 23.3952C16.3159 23.6612 16.8237 24.0276 17.4396 24.0276C18.0503 24.0276 18.5611 23.6662 18.8772 23.4035C19.2431 23.0995 19.6156 22.6951 19.9754 22.256C20.6994 21.3724 21.4767 20.2185 22.181 19.0963C22.5283 18.5427 22.8621 17.99 23.168 17.4712C23.6874 17.9727 24.3954 18.2814 25.1758 18.2814C26.769 18.2814 28.0605 16.9951 28.0605 15.4083C28.0605 13.8215 26.769 12.5352 25.1758 12.5352C23.8775 12.5352 22.7795 13.3894 22.4175 14.5644C22.3463 14.6926 22.2688 14.8312 22.1857 14.9785C21.7213 15.8026 21.0867 16.8974 20.4019 17.9889C19.713 19.0867 18.9905 20.1531 18.3501 20.9347C18.0276 21.3281 17.7517 21.6174 17.5331 21.7991C17.4992 21.8272 17.4696 21.8504 17.4439 21.8696C17.4214 21.8523 17.3959 21.8317 17.3673 21.8073C17.1573 21.6285 16.892 21.3417 16.5821 20.9493C15.9664 20.17 15.2765 19.1054 14.6204 18.008C13.9681 16.9173 13.3662 15.823 12.9263 14.9993C12.8668 14.8878 12.8103 14.7814 12.7571 14.6808C12.4337 13.4463 11.3066 12.5352 9.96573 12.5352C8.37257 12.5352 7.08105 13.8215 7.08105 15.4083C7.08105 16.9951 8.37257 18.2814 9.96573 18.2814Z" fill="#9B97B3"/>
</g>
<defs>
<clipPath id="clip0">
<rect width="155.321" height="35" fill="white"/>
</clipPath>
</defs>
</svg>
