<?xml version="1.0" encoding="UTF-8"?>
<svg width="83px" height="83px" viewBox="0 0 83 83" version="1.1" xmlns="http://www.w3.org/2000/svg" xmlns:xlink="http://www.w3.org/1999/xlink">
    <title>Issue</title>
    <defs>
        <circle id="path-1" cx="41.696949" cy="41.9015614" r="41.5"></circle>
    </defs>
    <g id="Issue" stroke="none" stroke-width="1" fill="none" fill-rule="evenodd">
        <mask id="mask-2" fill="white">
            <use xlink:href="#path-1"></use>
        </mask>
        <use id="Mask" fill="#2BB160" fill-rule="nonzero" xlink:href="#path-1"></use>
        <path d="M37.4231074,26.0736971 C37.6884469,23.7469538 39.7897451,22.0758558 42.1164884,22.3411953 C44.4432317,22.6065348 46.1143297,24.7078331 45.8489902,27.0345764 C43.4543472,48.0330316 32.7200048,59.2734679 14.4392186,59.2734679 C12.0973946,59.2734679 10.1989712,57.3750445 10.1989712,55.0332206 C10.1989712,52.6913966 12.0973946,50.7929732 14.4392186,50.7929732 C28.0905707,50.7929732 35.4874484,43.0473536 37.4231074,26.0736971 Z" id="Path-94-Copy-3" fill="#FFFFFF" fill-rule="nonzero" mask="url(#mask-2)"></path>
        <path d="M63.5435073,26.0736971 C63.8088468,23.7469538 65.9101451,22.0758558 68.2368884,22.3411953 C70.5636317,22.6065348 72.2347297,24.7078331 71.9693902,27.0345764 C69.5747472,48.0330316 58.8404047,59.2734679 40.5596185,59.2734679 C38.2177946,59.2734679 36.3193712,57.3750445 36.3193712,55.0332206 C36.3193712,52.6913966 38.2177946,50.7929732 40.5596185,50.7929732 C54.2109706,50.7929732 61.6078484,43.0473536 63.5435073,26.0736971 Z" id="Path-94-Copy-2" fill="#012D12" fill-rule="nonzero" mask="url(#mask-2)" transform="translate(54.158228, 40.793484) scale(-1, 1) translate(-54.158228, -40.793484) "></path>
        <path d="M39.8473139,14.9181118 L30.3871731,27.9582716 C29.7385559,28.8523462 29.9375384,30.1029451 30.8316131,30.7515623 C31.1730925,30.9992926 31.5841634,31.1326969 32.0060384,31.1326969 L50.4679872,31.1326969 C51.5725567,31.1326969 52.4679872,30.2372664 52.4679872,29.1326969 C52.4679872,28.7268081 52.3444913,28.330526 52.1139057,27.996496 L43.1120977,14.9563363 C42.4845912,14.0473206 41.238994,13.8191123 40.3299783,14.4466188 C40.1435488,14.5753138 39.9803385,14.7347465 39.8473139,14.9181118 Z" id="Path-95" fill="#012D12" mask="url(#mask-2)"></path>
    </g>
</svg>