<?xml version="1.0" encoding="UTF-8"?>
<svg width="222px" height="218px" viewBox="0 0 222 218" version="1.1" xmlns="http://www.w3.org/2000/svg" xmlns:xlink="http://www.w3.org/1999/xlink">
    <!-- Generator: Sketch 61.2 (89653) - https://sketch.com -->
    <title>Ledger</title>
    <desc>Created with Sketch.</desc>
    <g id="ðŸ¶-V3" stroke="none" stroke-width="1" fill="none" fill-rule="evenodd">
        <g id="Sign-In---Default-Copy-(1)-Copy-4" transform="translate(-609.000000, -407.000000)">
            <g id="Ledger" transform="translate(609.500000, 408.000000)">
                <rect id="Body" stroke="#1D144F" fill="#FFFFFF" x="0" y="4" width="221" height="65"></rect>
                <rect id="Display" fill="#1D144F" x="88.5" y="23.043773" width="110" height="26.912454"></rect>
                <path d="M109.036,40.688 L110.86,39.368 L108.82,36.92 L111.724,36.368 L111.1,34.232 L108.364,35.432 L108.676,32.312 L106.276,32.312 L106.588,35.432 L103.852,34.232 L103.204,36.368 L106.084,36.92 L104.044,39.368 L105.892,40.688 L107.428,37.856 L109.036,40.688 Z M119.332,40.688 L121.156,39.368 L119.116,36.92 L122.02,36.368 L121.396,34.232 L118.66,35.432 L118.972,32.312 L116.572,32.312 L116.884,35.432 L114.148,34.232 L113.5,36.368 L116.38,36.92 L114.34,39.368 L116.188,40.688 L117.724,37.856 L119.332,40.688 Z M129.628,40.688 L131.452,39.368 L129.412,36.92 L132.316,36.368 L131.692,34.232 L128.956,35.432 L129.268,32.312 L126.868,32.312 L127.18,35.432 L124.444,34.232 L123.796,36.368 L126.676,36.92 L124.636,39.368 L126.484,40.688 L128.02,37.856 L129.628,40.688 Z M139.924,40.688 L141.748,39.368 L139.708,36.92 L142.612,36.368 L141.988,34.232 L139.252,35.432 L139.564,32.312 L137.164,32.312 L137.476,35.432 L134.74,34.232 L134.092,36.368 L136.972,36.92 L134.932,39.368 L136.78,40.688 L138.316,37.856 L139.924,40.688 Z M150.22,40.688 L152.044,39.368 L150.004,36.92 L152.908,36.368 L152.284,34.232 L149.548,35.432 L149.86,32.312 L147.46,32.312 L147.772,35.432 L145.036,34.232 L144.388,36.368 L147.268,36.92 L145.228,39.368 L147.076,40.688 L148.612,37.856 L150.22,40.688 Z M160.516,40.688 L162.34,39.368 L160.3,36.92 L163.204,36.368 L162.58,34.232 L159.844,35.432 L160.156,32.312 L157.756,32.312 L158.068,35.432 L155.332,34.232 L154.684,36.368 L157.564,36.92 L155.524,39.368 L157.372,40.688 L158.908,37.856 L160.516,40.688 Z M170.812,40.688 L172.636,39.368 L170.596,36.92 L173.5,36.368 L172.876,34.232 L170.14,35.432 L170.452,32.312 L168.052,32.312 L168.364,35.432 L165.628,34.232 L164.98,36.368 L167.86,36.92 L165.82,39.368 L167.668,40.688 L169.204,37.856 L170.812,40.688 Z M181.108,40.688 L182.932,39.368 L180.892,36.92 L183.796,36.368 L183.172,34.232 L180.436,35.432 L180.748,32.312 L178.348,32.312 L178.66,35.432 L175.924,34.232 L175.276,36.368 L178.156,36.92 L176.116,39.368 L177.964,40.688 L179.5,37.856 L181.108,40.688 Z" id="********" fill="#FFFFFF" fill-rule="nonzero"></path>
                <g id="Cover" transform="translate(0.456227, 4.000000)" fill="#FFFFFF" stroke="#1D144F">
                    <path d="M32.5,3.41060513e-13 C41.4003021,3.41060513e-13 49.4649914,3.57768352 55.3343871,9.37336967 L55.3443597,9.36367618 L211.614958,165.634275 L165.653018,211.596216 L10.1711076,56.1151586 C3.90773916,50.1908804 -5.54223334e-13,41.8017909 -5.54223334e-13,32.5 C-5.54223334e-13,14.5507456 14.5507456,3.41060513e-13 32.5,3.41060513e-13 Z" id="Combined-Shape"></path>
                    <circle id="Oval" cx="32.5" cy="32.5" r="18"></circle>
                    <circle id="Oval-Copy" cx="32.5" cy="32.5" r="16.0520479"></circle>
                </g>
                <rect id="left-switch" stroke="#1D144F" fill="#FFFFFF" x="52.5" y="0" width="24" height="4"></rect>
                <rect id="right-switch" stroke="#1D144F" fill="#FFFFFF" x="150.5" y="0" width="24" height="4"></rect>
            </g>
        </g>
    </g>
</svg>