<?xml version="1.0" encoding="UTF-8"?>
<svg width="60px" height="60px" viewBox="0 0 60 60" version="1.1" xmlns="http://www.w3.org/2000/svg" xmlns:xlink="http://www.w3.org/1999/xlink">
    <!-- Generator: Sketch 61.2 (89653) - https://sketch.com -->
    <title>long_short</title>
    <desc>Created with Sketch.</desc>
    <g id="long_short" stroke="none" stroke-width="1" fill="none" fill-rule="evenodd">
        <g id="Group-2" transform="translate(30.000000, 30.000000) scale(1, -1) rotate(-270.000000) translate(-30.000000, -30.000000) translate(7.500000, 7.500000)" fill-rule="nonzero">
            <path d="M1.21747748,9.78744255 L12.4955829,1.54575016 C12.9414927,1.21989299 13.5671334,1.31721489 13.8929906,1.76312469 C14.0181465,1.9343907 14.0855994,2.14101855 14.0855994,2.35314128 L14.0855994,18.8365261 C14.0855994,19.3888108 13.6378842,19.8365261 13.0855994,19.8365261 C12.8734767,19.8365261 12.6668489,19.7690731 12.4955829,19.6439172 L1.21747748,11.4022248 C0.771567678,11.0763676 0.674245785,10.4507269 1.00010295,10.0048171 C1.06092412,9.92158811 1.13424851,9.84826372 1.21747748,9.78744255 Z" id="Triangle" fill="#DF4857"></path>
            <path d="M43.0711712,35.5963724 L31.7930658,43.8380648 C31.347156,44.163922 30.7215152,44.0666001 30.3956581,43.6206903 C30.2705022,43.4494243 30.2030492,43.2427964 30.2030492,43.0306737 L30.2030492,26.5472889 C30.2030492,25.9950042 30.6507645,25.5472889 31.2030492,25.5472889 C31.4151719,25.5472889 31.6217998,25.6147418 31.7930658,25.7398978 L43.0711712,33.9815902 C43.517081,34.3074473 43.6144029,34.9330881 43.2885457,35.3789979 C43.2277245,35.4622269 43.1544001,35.5355512 43.0711712,35.5963724 Z" id="Triangle-Copy" fill="#2BB160"></path>
            <rect id="Rectangle" fill="#DF4857" x="10.8558559" y="6.09483367" width="33.3201663" height="9" rx="2"></rect>
            <rect id="Rectangle-Copy" fill="#2BB160" x="0.112626473" y="30.2889813" width="33.3201663" height="9" rx="2"></rect>
        </g>
    </g>
</svg>