<?xml version="1.0" encoding="UTF-8"?>
<svg width="51px" height="51px" viewBox="0 0 51 51" version="1.1" xmlns="http://www.w3.org/2000/svg" xmlns:xlink="http://www.w3.org/1999/xlink">
    <!-- Generator: Sketch 61.2 (89653) - https://sketch.com -->
    <title>Group 8</title>
    <desc>Created with Sketch.</desc>
    <g id="ðŸ¶-V3" stroke="none" stroke-width="1" fill="none" fill-rule="evenodd">
        <g id="User-Profile---Portfolio---Tokens-Copy-11" transform="translate(-788.000000, -458.000000)">
            <g id="Portfolio" transform="translate(131.500000, 112.000000)">
                <g id="Group-8" transform="translate(657.429688, 346.500000)">
                    <circle id="Oval-Copy" fill="#E0DCF4" cx="25" cy="25" r="25"></circle>
                    <polygon id="Line-2" fill="#1D144F" fill-rule="nonzero" points="26.4175594 28.1853263 28.1853263 26.4175594 33.9530933 32.1853263 32.1853263 33.9530933"></polygon>
                    <circle id="Oval" fill-opacity="0.5" fill="#FFFFFF" cx="22" cy="22" r="8.18532634"></circle>
                    <path d="M22,12.3146737 C16.650942,12.3146737 12.3146737,16.650942 12.3146737,22 C12.3146737,27.349058 16.650942,31.6853263 22,31.6853263 C27.349058,31.6853263 31.6853263,27.349058 31.6853263,22 C31.6853263,16.650942 27.349058,12.3146737 22,12.3146737 Z M22,15.3146737 C25.6922038,15.3146737 28.6853263,18.3077962 28.6853263,22 C28.6853263,25.6922038 25.6922038,28.6853263 22,28.6853263 C18.3077962,28.6853263 15.3146737,25.6922038 15.3146737,22 C15.3146737,18.3077962 18.3077962,15.3146737 22,15.3146737 Z" id="Oval" fill="#837AFF" fill-rule="nonzero"></path>
                    <polygon id="Rectangle" fill="#FFFFFF" points="20.9413999 18.5638135 22.9413999 18.5638135 25.9413999 22 23.9413999 22"></polygon>
                    <path d="M30.7711128,30.7711128 C31.5110535,30.031172 32.6865377,29.9922278 33.4723251,30.65428 L33.5995399,30.7711128 L37.5995399,34.7711128 C38.3805885,35.5521614 38.3805885,36.8184913 37.5995399,37.5995399 C36.8595991,38.3394807 35.684115,38.3784249 34.8983275,37.7163727 L34.7711128,37.5995399 L30.7711128,33.5995399 C29.9900642,32.8184913 29.9900642,31.5521614 30.7711128,30.7711128 Z" id="Line-2-Copy" fill="#837AFF" fill-rule="nonzero"></path>
                </g>
            </g>
        </g>
    </g>
</svg>