<?xml version="1.0" encoding="UTF-8"?>
<svg width="24px" height="24px" viewBox="0 0 24 24" version="1.1" xmlns="http://www.w3.org/2000/svg" xmlns:xlink="http://www.w3.org/1999/xlink">
    <!-- Generator: Sketch 59.1 (86144) - https://sketch.com -->
    <title>red-x</title>
    <desc>Created with Sketch.</desc>
    <g id="red-x" stroke="none" stroke-width="1" fill="none" fill-rule="evenodd">
        <g id="Group" transform="translate(0.000000, 0.000000)">
            <circle id="Oval-2" fill="#DF4857" cx="12" cy="12" r="12"></circle>
            <path d="M16.7928932,5.79289322 L5.79289322,16.7928932 C5.40236893,17.1834175 5.40236893,17.8165825 5.79289322,18.2071068 C6.18341751,18.5976311 6.81658249,18.5976311 7.20710678,18.2071068 L18.2071068,7.20710678 C18.5976311,6.81658249 18.5976311,6.18341751 18.2071068,5.79289322 C17.8165825,5.40236893 17.1834175,5.40236893 16.7928932,5.79289322 Z" id="Line-Copy-3" fill="#FFFFFF" fill-rule="nonzero"></path>
            <path d="M18.2071068,16.7928932 L7.20710678,5.79289322 C6.81658249,5.40236893 6.18341751,5.40236893 5.79289322,5.79289322 C5.40236893,6.18341751 5.40236893,6.81658249 5.79289322,7.20710678 L16.7928932,18.2071068 C17.1834175,18.5976311 17.8165825,18.5976311 18.2071068,18.2071068 C18.5976311,17.8165825 18.5976311,17.1834175 18.2071068,16.7928932 Z" id="Line-Copy-2" fill="#FFFFFF" fill-rule="nonzero"></path>
        </g>
    </g>
</svg>