<?xml version="1.0" encoding="UTF-8"?>
<svg width="84px" height="84px" viewBox="0 0 84 84" version="1.1" xmlns="http://www.w3.org/2000/svg" xmlns:xlink="http://www.w3.org/1999/xlink">
    <title>Redeem</title>
    <g id="Redeem" stroke="none" stroke-width="1" fill="none" fill-rule="evenodd">
        <circle id="Mask" fill="#DF4857" fill-rule="nonzero" cx="42" cy="42" r="42"></circle>
        <path d="M37.6746663,21.5329591 C37.9432026,19.1781828 40.0698178,17.4869511 42.4245941,17.7554875 C44.7793705,18.0240238 46.4706021,20.1506389 46.2020658,22.5054153 C43.7785716,43.756864 32.9148998,55.1327272 14.4138631,55.1327272 C12.0438244,55.1327272 10.1225285,53.2114312 10.1225285,50.8413925 C10.1225285,48.4713538 12.0438244,46.5500579 14.4138631,46.5500579 C28.2296894,46.5500579 35.7156861,38.7111176 37.6746663,21.5329591 Z" id="Path-94-Copy-3" fill="#FFFFFF" fill-rule="nonzero"></path>
        <path d="M65.2382909,21.5329591 C65.5068273,19.1781828 67.6334424,17.4869511 69.9882188,17.7554875 C72.3429951,18.0240238 74.0342268,20.1506389 73.7656904,22.5054153 C71.3421963,43.756864 60.4785244,55.1327272 41.9774878,55.1327272 C39.6074491,55.1327272 37.6861531,53.2114312 37.6861531,50.8413925 C37.6861531,48.4713538 39.6074491,46.5500579 41.9774878,46.5500579 C55.793314,46.5500579 63.2793107,38.7111176 65.2382909,21.5329591 Z" id="Path-94-Copy-2" fill="#270206" fill-rule="nonzero" transform="translate(55.739936, 36.430093) scale(-1, 1) translate(-55.739936, -36.430093) "></path>
        <path d="M10.7699572,43.7315628 L1.14809995,56.9946376 C0.499482736,57.8887123 0.698465303,59.1393111 1.59253996,59.7879284 C1.93401936,60.0356587 2.34509033,60.169063 2.76696532,60.169063 L21.544512,60.169063 C22.6490815,60.169063 23.544512,59.2736325 23.544512,58.169063 C23.544512,57.7631742 23.421016,57.366892 23.1904304,57.0328621 L14.034741,43.7697873 C13.4072345,42.8607716 12.1616373,42.6325633 11.2526216,43.2600698 C11.0661921,43.3887647 10.9029818,43.5481975 10.7699572,43.7315628 Z" id="Path-95" fill="#FFFFFF" transform="translate(12.100285, 50.806630) rotate(-90.000000) translate(-12.100285, -50.806630) "></path>
        <path d="M72.4633917,43.7315628 L62.8415344,56.9946376 C62.1929172,57.8887123 62.3918998,59.1393111 63.2859744,59.7879284 C63.6274538,60.0356587 64.0385248,60.169063 64.4603998,60.169063 L83.2379464,60.169063 C84.3425159,60.169063 85.2379464,59.2736325 85.2379464,58.169063 C85.2379464,57.7631742 85.1144505,57.366892 84.8838649,57.0328621 L75.7281754,43.7697873 C75.100669,42.8607716 73.8550717,42.6325633 72.9460561,43.2600698 C72.7596265,43.3887647 72.5964162,43.5481975 72.4633917,43.7315628 Z" id="Path-95-Copy" fill="#270206" transform="translate(73.793719, 50.806630) rotate(-270.000000) translate(-73.793719, -50.806630) "></path>
    </g>
</svg>