<?xml version="1.0" encoding="UTF-8"?>
<svg width="397px" height="107px" viewBox="0 0 397 107" version="1.1" xmlns="http://www.w3.org/2000/svg" xmlns:xlink="http://www.w3.org/1999/xlink">
    <title>set-categories</title>
    <defs>
        <circle id="path-1" cx="34.5" cy="34.5" r="34.5"></circle>
        <circle id="path-3" cx="34.5" cy="34.5" r="34.5"></circle>
    </defs>
    <g id="set-categories" stroke="none" stroke-width="1" fill="none" fill-rule="evenodd">
        <g id="Group" transform="translate(164.000000, 30.000000)">
            <mask id="mask-2" fill="white">
                <use xlink:href="#path-1"></use>
            </mask>
            <use id="Mask" fill="#837AFF" fill-rule="nonzero" xlink:href="#path-1"></use>
            <rect id="Rectangle-23" fill="#2D2CE5" fill-rule="nonzero" mask="url(#mask-2)" x="33" y="11" width="2" height="20" rx="1"></rect>
            <circle id="Oval-2" fill="#FFFFFF" fill-rule="nonzero" mask="url(#mask-2)" cx="34" cy="9" r="4"></circle>
            <path d="M33.9750595,13 C34.0226477,13 33.9902301,5 33.9750595,5 C31.7796947,5 30,6.790861 30,9 C30,11.209139 31.7796947,13 33.9750595,13 Z" id="Oval-2-Copy" fill="#EDF4FB" fill-rule="nonzero" mask="url(#mask-2)"></path>
            <rect id="Rectangle-21" fill="#FFFFFF" fill-rule="nonzero" mask="url(#mask-2)" x="14" y="19" width="41" height="27" rx="6"></rect>
            <path d="M20,19 L34,19 L34,19 L34,46 L20,46 C16.6862915,46 14,43.3137085 14,40 L14,25 C14,21.6862915 16.6862915,19 20,19 Z" id="Rectangle-21-Copy-2" fill="#EDF4FB" fill-rule="nonzero" mask="url(#mask-2)"></path>
            <rect id="Rectangle-21-Copy" fill="#1D144F" fill-rule="nonzero" mask="url(#mask-2)" x="19" y="24" width="32" height="12" rx="4"></rect>
            <path d="M25,31.7933956 C27.209139,31.7933956 29,32.7108736 29,30.6790116 C29,28.6471496 27.209139,27 25,27 C22.790861,27 21,28.6471496 21,30.6790116 C21,32.7108736 22.790861,31.7933956 25,31.7933956 Z" id="Oval" fill="#FFFFFF" fill-rule="nonzero" mask="url(#mask-2)"></path>
            <path d="M44,31.7933956 C46.209139,31.7933956 48,32.7108736 48,30.6790116 C48,28.6471496 46.209139,27 44,27 C41.790861,27 40,28.6471496 40,30.6790116 C40,32.7108736 41.790861,31.7933956 44,31.7933956 Z" id="Oval-Copy" fill="#FFFFFF" fill-rule="nonzero" mask="url(#mask-2)"></path>
            <rect id="Rectangle-22" fill="#1D144F" fill-rule="nonzero" mask="url(#mask-2)" x="10" y="46" width="50" height="40" rx="12"></rect>
            <path d="M34,46 L48,46 C54.627417,46 60,51.372583 60,58 L60,74 C60,80.627417 54.627417,86 48,86 L34,86 L34,86 L34,46 Z" id="Rectangle-22-Copy" fill="#2D2CE5" fill-rule="nonzero" mask="url(#mask-2)"></path>
            <path d="M34.5,44 C37.5375661,44 40,42.2279664 40,40.4136303 C40,37.2329621 37.5375661,40.4136303 34.5,40.4136303 C31.4624339,40.4136303 29,37.2329621 29,40.4136303 C29,42.2279664 31.4624339,44 34.5,44 Z" id="Oval-19" fill="#1D144F" fill-rule="nonzero" mask="url(#mask-2)"></path>
        </g>
        <g id="Group-2" transform="translate(307.000000, 30.000000)">
            <mask id="mask-4" fill="white">
                <use xlink:href="#path-3"></use>
            </mask>
            <use id="Mask" fill="#837AFF" fill-rule="nonzero" xlink:href="#path-3"></use>
            <g id="Handshake" mask="url(#mask-4)" fill-rule="nonzero">
                <g transform="translate(8.000000, 18.000000)">
                    <path d="M23.39,28.29 C23.1519162,28.0849692 23.0481617,27.7642089 23.1210667,27.4585843 C23.1939718,27.1529598 23.431346,26.9135739 23.7363445,26.8380923 C24.041343,26.7626108 24.3629674,26.8636548 24.57,27.1 L29.16,31.56 C29.746578,32.1455208 30.6335181,32.3085905 31.39,31.97 L31.71,31.83 C32.131941,31.6373227 32.4331788,31.2507092 32.5168564,30.7944671 C32.600534,30.3382251 32.4561021,29.8698729 32.13,29.54 L27.71,25.25 C27.3813906,24.9213906 27.3813906,24.3886094 27.71,24.06 C28.0386094,23.7313906 28.5713906,23.7313906 28.9,24.06 L34.19,29.23 C34.7860285,29.829792 35.6948561,29.9899378 36.46,29.63 L36.76,29.49 C37.1788872,29.2933115 37.4756549,28.9048438 37.5552818,28.4489794 C37.6349088,27.9931149 37.4874053,27.5270453 37.16,27.2 L32,22.2 C31.6686292,21.8631063 31.6731064,21.3213709 32.01,20.99 C32.3468937,20.6586292 32.8886291,20.6631063 33.22,21 L37.79,25.45 C38.1891396,25.8593773 38.7832315,26.0120482 39.3302897,25.8458267 C39.8773478,25.6796052 40.2860796,25.2222302 40.39,24.66 C40.4954782,23.7908186 40.1970103,22.9212087 39.58,22.3 L28.78,11.57 C26.8029928,9.6001753 24.1207787,8.50208764 21.33,8.51978425 L11.6,8.51978425 L5.33,14.62 L20.47,30.46 C21.818478,31.7144882 23.4742842,32.5906856 25.27,33 C25.7594028,33.0764766 26.2427871,32.8309817 26.469741,32.3906912 C26.6966948,31.9504007 26.6162178,31.4142556 26.27,31.06 L23.39,28.29 Z" id="Hand" fill="#1D144F"></path>
                    <path d="M2.0045429,6.42464646 L16.7345429,6.42464646 C17.8391124,6.42464646 18.7345429,7.32007696 18.7345429,8.42464646 L18.7345429,11.9146465 C18.7345429,13.019216 17.8391124,13.9146465 16.7345429,13.9146465 L2.0045429,13.9146465 C0.899973405,13.9146465 0.00454290488,13.019216 0.00454290488,11.9146465 L0.00454290488,8.42464646 C0.00454290488,7.32007696 0.899973405,6.42464646 2.0045429,6.42464646 Z" id="Collar-2" fill="#2D2CE5" transform="translate(9.369543, 10.169646) rotate(-45.000000) translate(-9.369543, -10.169646) "></path>
                    <path d="M49,14.07 L39.15,21.87 L28.61,11.56 C27.5070394,10.440692 25.727246,10.3621717 24.53,11.38 L21.65,13.78 C20.6929021,14.5729649 19.2897382,14.5080036 18.41,13.63 L18.41,13.63 C17.9413139,13.1643373 17.6853216,12.526059 17.7023537,11.8655908 C17.7193859,11.2051226 18.0079359,10.5808869 18.5,10.14 L22.76,6.3 C25.6237956,3.72863563 29.9509345,3.68155499 32.87,6.19 L32.87,6.19 C34.6131789,7.6906925 36.8398634,8.51104995 39.14,8.5 L42.4,8.5 L49,14.07 Z" id="Thumb" fill="#FFFFFF"></path>
                    <path d="M42.8941991,0.794990283 L46.3841991,0.794990283 C47.4887686,0.794990283 48.3841991,1.69042078 48.3841991,2.79499028 L48.3841991,17.5249903 C48.3841991,18.6295598 47.4887686,19.5249903 46.3841991,19.5249903 L42.8941991,19.5249903 C41.7896296,19.5249903 40.8941991,18.6295598 40.8941991,17.5249903 L40.8941991,2.79499028 C40.8941991,1.69042078 41.7896296,0.794990283 42.8941991,0.794990283 Z" id="Collar" fill="#2D2CE5" transform="translate(44.639199, 10.159990) rotate(-45.000000) translate(-44.639199, -10.159990) "></path>
                </g>
            </g>
        </g>
        <g id="Group-3" transform="translate(21.000000, 30.000000)" fill-rule="nonzero">
            <circle id="Oval" fill="#837AFF" cx="34.255077" cy="34.255077" r="34.255077"></circle>
            <rect id="Rectangle-13" fill="#FFFFFF" x="14" y="12" width="42" height="42" rx="6"></rect>
            <path d="M20,12 L50,12 C53.3137085,12 56,14.6862915 56,18 L56,22 L56,22 L14,22 L14,18 C14,14.6862915 16.6862915,12 20,12 Z" id="Rectangle-13-Copy" fill="#2D2CE5"></path>
            <circle id="Oval-13" fill="#1D144F" cx="20" cy="17" r="3"></circle>
            <circle id="Oval-13-Copy" fill="#E0DCF4" cx="28" cy="17" r="3"></circle>
            <path d="M49.1799637,29.7200444 L51.4304295,31.7038297 L45.5281105,38.399598 C43.0225861,41.2419403 39.1868892,42.5077615 35.4950113,41.7325406 L35.1789512,41.6610838 L31.9796202,40.8859103 C29.5844092,40.305569 27.0634492,40.9399508 25.2305998,42.5695917 L25.0222172,42.7620316 L20.7928372,46.8182165 L18.7163129,44.6530267 L22.945693,40.5968418 C25.4508576,38.1942648 28.9753421,37.1898885 32.3590772,37.8965349 L32.6860571,37.970272 L35.8853881,38.7454454 C38.497574,39.3783581 41.2407436,38.5640733 43.0836791,36.6275742 L43.2776447,36.4158128 L49.1799637,29.7200444 Z" id="Line" fill="#1D144F"></path>
        </g>
        <rect id="Rectangle" fill="#2BB160" x="73" y="9" width="28" height="13" rx="6.5"></rect>
        <path d="M170.085712,20.9157303 L170.085712,17.6151685 L171.851615,17.6151685 L173.47847,20.9157303 L175.786658,20.9157303 L173.867803,17.1235955 C174.386914,16.8707865 174.794786,16.5032772 175.091421,16.0210674 C175.388055,15.5388577 175.536373,14.9840824 175.536373,14.3567416 C175.536373,13.7013109 175.388055,13.1254682 175.091421,12.6292135 C174.794786,12.1329588 174.375326,11.7514045 173.833041,11.4845506 C173.290756,11.2176966 172.66736,11.0842697 171.962853,11.0842697 L171.962853,11.0842697 L168,11.0842697 L168,20.9157303 L170.085712,20.9157303 Z M171.795996,15.8595506 L170.085712,15.8595506 L170.085712,12.8398876 L171.795996,12.8398876 C172.287297,12.8398876 172.678947,12.9756554 172.970947,13.247191 C173.262947,13.5187266 173.408946,13.8885768 173.408946,14.3567416 C173.408946,14.8155431 173.262947,15.1807116 172.970947,15.4522472 C172.678947,15.7237828 172.287297,15.8595506 171.795996,15.8595506 L171.795996,15.8595506 Z M179.559901,21 C180.310757,21 180.971232,20.8478464 181.541327,20.5435393 C182.111421,20.2392322 182.551738,19.8085206 182.862278,19.2514045 C183.172817,18.6942884 183.328087,18.0458801 183.328087,17.3061798 C183.328087,16.5758427 183.172817,15.9297753 182.862278,15.3679775 C182.551738,14.8061798 182.111421,14.3731273 181.541327,14.0688202 C180.971232,13.7645131 180.310757,13.6123596 179.559901,13.6123596 C178.809044,13.6123596 178.148569,13.7645131 177.578474,14.0688202 C177.00838,14.3731273 176.568063,14.8061798 176.257523,15.3679775 C175.946984,15.9297753 175.791714,16.5758427 175.791714,17.3061798 C175.791714,18.0365169 175.946984,18.6825843 176.257523,19.244382 C176.568063,19.8061798 177.00838,20.2392322 177.578474,20.5435393 C178.148569,20.8478464 178.809044,21 179.559901,21 Z M179.559901,19.3848315 C179.02225,19.3848315 178.593521,19.1928839 178.273711,18.8089888 C177.953902,18.4250936 177.793998,17.9241573 177.793998,17.3061798 C177.793998,16.6882022 177.953902,16.1872659 178.273711,15.8033708 C178.593521,15.4194757 179.02225,15.2275281 179.559901,15.2275281 C180.106821,15.2275281 180.540185,15.4194757 180.859994,15.8033708 C181.179803,16.1872659 181.339708,16.6882022 181.339708,17.3061798 C181.339708,17.9241573 181.179803,18.4250936 180.859994,18.8089888 C180.540185,19.1928839 180.106821,19.3848315 179.559901,19.3848315 Z M188.144185,21 C188.774534,21 189.339993,20.8455056 189.840564,20.5365169 C190.341135,20.2275281 190.732786,19.7921348 191.015515,19.2303371 C191.298245,18.6685393 191.43961,18.0224719 191.43961,17.2921348 C191.43961,16.5430712 191.298245,15.8899813 191.015515,15.3328652 C190.732786,14.7757491 190.341135,14.3497191 189.840564,14.0547753 C189.339993,13.7598315 188.769899,13.6123596 188.130281,13.6123596 C187.240377,13.6123596 186.521965,13.9447566 185.975045,14.6095506 L185.975045,14.6095506 L185.975045,11.0842697 L184.014476,11.0842697 L184.014476,20.9157303 L185.724759,20.9157303 L185.919426,19.9325843 C186.160441,20.2602996 186.466346,20.5201311 186.837139,20.7120787 C187.207932,20.9040262 187.643614,21 188.144185,21 Z M187.685329,19.3848315 C187.156948,19.3848315 186.735171,19.1928839 186.419997,18.8089888 C186.104822,18.4250936 185.947235,17.9194757 185.947235,17.2921348 C185.947235,16.6741573 186.104822,16.1755618 186.419997,15.7963483 C186.735171,15.4171348 187.156948,15.2275281 187.685329,15.2275281 C188.213709,15.2275281 188.640121,15.4194757 188.964565,15.8033708 C189.289009,16.1872659 189.451231,16.6882022 189.451231,17.3061798 C189.451231,17.9241573 189.289009,18.4250936 188.964565,18.8089888 C188.640121,19.1928839 188.213709,19.3848315 187.685329,19.3848315 Z M195.61609,21 C196.366947,21 197.027422,20.8478464 197.597517,20.5435393 C198.167611,20.2392322 198.607928,19.8085206 198.918468,19.2514045 C199.229007,18.6942884 199.384277,18.0458801 199.384277,17.3061798 C199.384277,16.5758427 199.229007,15.9297753 198.918468,15.3679775 C198.607928,14.8061798 198.167611,14.3731273 197.597517,14.0688202 C197.027422,13.7645131 196.366947,13.6123596 195.61609,13.6123596 C194.865234,13.6123596 194.204759,13.7645131 193.634664,14.0688202 C193.064569,14.3731273 192.624252,14.8061798 192.313713,15.3679775 C192.003174,15.9297753 191.847904,16.5758427 191.847904,17.3061798 C191.847904,18.0365169 192.003174,18.6825843 192.313713,19.244382 C192.624252,19.8061798 193.064569,20.2392322 193.634664,20.5435393 C194.204759,20.8478464 194.865234,21 195.61609,21 Z M195.61609,19.3848315 C195.07844,19.3848315 194.64971,19.1928839 194.329901,18.8089888 C194.010092,18.4250936 193.850188,17.9241573 193.850188,17.3061798 C193.850188,16.6882022 194.010092,16.1872659 194.329901,15.8033708 C194.64971,15.4194757 195.07844,15.2275281 195.61609,15.2275281 C196.16301,15.2275281 196.596375,15.4194757 196.916184,15.8033708 C197.235993,16.1872659 197.395898,16.6882022 197.395898,17.3061798 C197.395898,17.9241573 197.235993,18.4250936 196.916184,18.8089888 C196.596375,19.1928839 196.16301,19.3848315 195.61609,19.3848315 Z M206.916857,21 C207.639904,21 208.291109,20.8642322 208.870474,20.5926966 C209.449838,20.321161 209.901743,19.94897 210.226187,19.4761236 C210.550631,19.0032772 210.712853,18.4672285 210.712853,17.8679775 C210.712853,17.25 210.576123,16.7560861 210.302663,16.386236 C210.029203,16.0163858 209.669997,15.7401685 209.225045,15.5575843 C208.780093,15.375 208.233173,15.2228464 207.584285,15.1011236 C206.944666,14.9794007 206.471905,14.8740637 206.166001,14.7851124 C205.860096,14.696161 205.623716,14.5791199 205.456859,14.4339888 C205.290002,14.2888577 205.206573,14.085206 205.206573,13.8230337 C205.206573,13.4578652 205.345621,13.1769663 205.623716,12.9803371 C205.90181,12.7837079 206.272604,12.6853933 206.736095,12.6853933 C207.236666,12.6853933 207.639904,12.8141386 207.945808,13.0716292 C208.251713,13.3291199 208.427839,13.6685393 208.474189,14.0898876 L208.474189,14.0898876 L210.518186,14.0898876 C210.508916,13.5 210.339742,12.9709738 210.010663,12.502809 C209.681584,12.0346442 209.231997,11.6671348 208.661903,11.4002809 C208.091808,11.133427 207.449872,11 206.736095,11 C206.040858,11 205.417462,11.1287453 204.865907,11.386236 C204.314352,11.6437266 203.883305,11.997191 203.572765,12.4466292 C203.262226,12.8960674 203.106956,13.406367 203.106956,13.9775281 C203.106956,14.6048689 203.243686,15.1081461 203.517146,15.4873596 C203.790606,15.866573 204.145178,16.1521536 204.58086,16.3441011 C205.016542,16.5360487 205.554192,16.6928839 206.19381,16.8146067 C206.842698,16.9456929 207.322412,17.0557116 207.632951,17.1446629 C207.943491,17.2336142 208.184506,17.3553371 208.355998,17.5098315 C208.52749,17.6643258 208.613236,17.8726592 208.613236,18.1348315 C208.613236,18.5093633 208.457966,18.8019663 208.147427,19.0126404 C207.836888,19.2233146 207.435967,19.3286517 206.944666,19.3286517 C206.351397,19.3286517 205.876318,19.1811798 205.51943,18.886236 C205.162541,18.5912921 204.965558,18.2003745 204.928478,17.7134831 L204.928478,17.7134831 L202.884481,17.6853933 C202.89375,18.3127341 203.069877,18.8792135 203.412861,19.3848315 C203.755845,19.8904494 204.230923,20.2860487 204.838097,20.5716292 C205.445271,20.8572097 206.138191,21 206.916857,21 Z M215.000571,21 C215.61238,21 216.154665,20.8899813 216.627426,20.6699438 C217.100188,20.4499064 217.480251,20.1479401 217.767615,19.7640449 C218.05498,19.3801498 218.235742,18.9494382 218.309901,18.4719101 L218.309901,18.4719101 L216.377141,18.4719101 C216.293712,18.8089888 216.119903,19.0641386 215.855713,19.2373596 C215.591523,19.4105805 215.260126,19.497191 214.861523,19.497191 C214.360953,19.497191 213.966985,19.3473783 213.67962,19.0477528 C213.392255,18.7481273 213.225398,18.3361423 213.179049,17.8117978 L213.179049,17.8117978 L213.179049,17.755618 L218.365519,17.755618 C218.402599,17.5589888 218.421138,17.3342697 218.421138,17.0814607 C218.411869,16.3792135 218.251964,15.7682584 217.941425,15.2485955 C217.630885,14.7289326 217.199838,14.3263109 216.648283,14.0407303 C216.096728,13.7551498 215.459428,13.6123596 214.736381,13.6123596 C214.022604,13.6123596 213.394573,13.7645131 212.852288,14.0688202 C212.310002,14.3731273 211.888225,14.803839 211.586956,15.3609551 C211.285686,15.9180712 211.135051,16.571161 211.135051,17.3202247 C211.135051,18.0599251 211.290321,18.7083333 211.60086,19.2654494 C211.9114,19.8225655 212.356352,20.2509363 212.935716,20.5505618 C213.51508,20.8501873 214.203365,21 215.000571,21 Z M216.460569,16.4634831 L213.220763,16.4634831 C213.276382,16.0421348 213.450192,15.707397 213.742191,15.4592697 C214.034191,15.2111423 214.393397,15.0870787 214.819809,15.0870787 C215.264761,15.0870787 215.633237,15.2064607 215.925237,15.4452247 C216.217236,15.6839888 216.39568,16.0234082 216.460569,16.4634831 L216.460569,16.4634831 Z M223.195523,20.9157303 L223.195523,19.244382 L222.180476,19.244382 C221.930191,19.244382 221.751747,19.1882022 221.645144,19.0758427 C221.53854,18.9634831 221.485239,18.7808989 221.485239,18.5280899 L221.485239,18.5280899 L221.485239,15.3679775 L223.112094,15.3679775 L223.112094,13.6966292 L221.485239,13.6966292 L221.485239,11.6741573 L219.52467,11.6741573 L219.52467,13.6966292 L218.342766,13.6966292 L218.342766,15.3679775 L219.52467,15.3679775 L219.52467,18.8511236 C219.52467,20.2275281 220.206002,20.9157303 221.568667,20.9157303 L221.568667,20.9157303 L223.195523,20.9157303 Z M226.760194,21 C227.399812,21 227.962955,20.9040262 228.449621,20.7120787 C228.936287,20.5201311 229.31635,20.2462547 229.58981,19.8904494 C229.86327,19.5346442 230,19.1226592 230,18.6544944 C230,17.914794 229.742762,17.3927903 229.228287,17.0884831 C228.713811,16.784176 227.974542,16.5758427 227.01048,16.4634831 C226.556258,16.4166667 226.231814,16.3745318 226.037147,16.3370787 C225.842481,16.2996255 225.684894,16.238764 225.564386,16.1544944 C225.443878,16.0702247 225.383624,15.9438202 225.383624,15.7752809 C225.383624,15.5411985 225.49718,15.3539326 225.72429,15.2134831 C225.951401,15.0730337 226.250353,15.002809 226.621147,15.002809 C227.019749,15.002809 227.346511,15.0894195 227.601431,15.2626404 C227.856352,15.4358614 227.997717,15.6582397 228.025526,15.9297753 L228.025526,15.9297753 L229.888762,15.9297753 C229.842413,15.1994382 229.520286,14.6282772 228.922382,14.2162921 C228.324478,13.8043071 227.53886,13.593633 226.565528,13.5842697 C225.962989,13.5842697 225.429973,13.6825843 224.966482,13.8792135 C224.50299,14.0758427 224.143784,14.3544007 223.888864,14.7148876 C223.633944,15.0753745 223.506483,15.4897004 223.506483,15.9578652 C223.506483,16.42603 223.631626,16.8005618 223.881912,17.0814607 C224.132197,17.3623596 224.465911,17.5683521 224.883053,17.6994382 C225.300196,17.8305243 225.823941,17.9382022 226.45429,18.0224719 C226.917781,18.0786517 227.251495,18.127809 227.455431,18.1699438 C227.659368,18.2120787 227.816955,18.2799625 227.928193,18.3735955 C228.039431,18.4672285 228.09505,18.6076779 228.09505,18.7949438 C228.09505,19.0477528 227.974542,19.2420412 227.733526,19.377809 C227.492511,19.5135768 227.163432,19.5814607 226.746289,19.5814607 C226.310607,19.5814607 225.953719,19.4831461 225.675624,19.2865169 C225.397529,19.0898876 225.244577,18.832397 225.216767,18.5140449 L225.216767,18.5140449 L223.353531,18.5140449 C223.390611,19.2818352 223.71969,19.8881086 224.340768,20.3328652 C224.961847,20.7776217 225.768322,21 226.760194,21 Z" id="RoboSets" fill="#1D144F" fill-rule="nonzero"></path>
        <path d="M14.1021457,20.9182561 L14.1021457,17.7166213 L15.9940769,17.7166213 C16.6947921,17.7166213 17.3137573,17.5871935 17.8509723,17.3283379 C18.3881873,17.0694823 18.803945,16.7016349 19.0982454,16.2247956 C19.3925458,15.7479564 19.539696,15.191644 19.539696,14.5558583 C19.539696,13.9200727 19.3925458,13.3614896 19.0982454,12.880109 C18.803945,12.3987284 18.3881873,12.0286104 17.8509723,11.7697548 C17.3137573,11.5108992 16.6947921,11.3814714 15.9940769,11.3814714 L15.9940769,11.3814714 L12,11.3814714 L12,20.9182561 L14.1021457,20.9182561 Z M15.7978766,16.013624 L14.1021457,16.013624 L14.1021457,13.0844687 L15.7978766,13.0844687 C16.2930487,13.0844687 16.6854493,13.2161671 16.9750782,13.479564 C17.2647072,13.7429609 17.4095217,14.1017257 17.4095217,14.5558583 C17.4095217,15.0009083 17.2647072,15.3551317 16.9750782,15.6185286 C16.6854493,15.8819255 16.2930487,16.013624 15.7978766,16.013624 L15.7978766,16.013624 Z M23.3706974,21 C24.1274698,21 24.7931493,20.8524069 25.3677358,20.5572207 C25.9423223,20.2620345 26.3861086,19.8442325 26.6990948,19.3038147 C27.0120809,18.7633969 27.168574,18.1344233 27.168574,17.4168937 C27.168574,16.7084469 27.0120809,16.0817439 26.6990948,15.5367847 C26.3861086,14.9918256 25.9423223,14.571753 25.3677358,14.2765668 C24.7931493,13.9813806 24.1274698,13.8337875 23.3706974,13.8337875 C22.6139249,13.8337875 21.9482454,13.9813806 21.3736589,14.2765668 C20.7990724,14.571753 20.3552861,14.9918256 20.0423,15.5367847 C19.7293138,16.0817439 19.5728207,16.7084469 19.5728207,17.4168937 C19.5728207,18.1253406 19.7293138,18.7520436 20.0423,19.2970027 C20.3552861,19.8419619 20.7990724,20.2620345 21.3736589,20.5572207 C21.9482454,20.8524069 22.6139249,21 23.3706974,21 Z M23.3706974,19.4332425 C22.8288109,19.4332425 22.3967032,19.2470481 22.0743742,18.8746594 C21.7520452,18.5022707 21.5908806,18.0163488 21.5908806,17.4168937 C21.5908806,16.8174387 21.7520452,16.3315168 22.0743742,15.9591281 C22.3967032,15.5867393 22.8288109,15.400545 23.3706974,15.400545 C23.9219267,15.400545 24.3587059,15.5867393 24.6810349,15.9591281 C25.0033639,16.3315168 25.1645284,16.8174387 25.1645284,17.4168937 C25.1645284,18.0163488 25.0033639,18.5022707 24.6810349,18.8746594 C24.3587059,19.2470481 23.9219267,19.4332425 23.3706974,19.4332425 Z M29.836388,20.9182561 L29.836388,17.4850136 C29.836388,16.9218892 29.9671882,16.4768392 30.2287886,16.1498638 C30.4903889,15.8228883 30.9014752,15.6594005 31.4620474,15.6594005 L31.4620474,15.6594005 L32.2468485,15.6594005 L32.2468485,13.9155313 L31.9105052,13.9155313 C31.3779616,13.9155313 30.952861,14.0040872 30.6352034,14.1811989 C30.3175458,14.3583106 30.051274,14.6194369 29.836388,14.9645777 L29.836388,14.9645777 L29.6542021,13.9155313 L27.860371,13.9155313 L27.860371,20.9182561 L29.836388,20.9182561 Z M36.4282074,20.9182561 L36.4282074,19.2970027 L35.4051632,19.2970027 C35.1529057,19.2970027 34.9730554,19.2425068 34.8656124,19.133515 C34.7581694,19.0245232 34.7044479,18.8474114 34.7044479,18.6021798 L34.7044479,18.6021798 L34.7044479,15.5367847 L36.3441216,15.5367847 L36.3441216,13.9155313 L34.7044479,13.9155313 L34.7044479,11.9536785 L32.7284309,11.9536785 L32.7284309,18.9155313 C32.7284309,20.2506812 33.4151319,20.9182561 34.7885338,20.9182561 L34.7885338,20.9182561 L36.4282074,20.9182561 Z M38.8297497,20.9182561 L38.8297497,15.5367847 L40.637595,15.5367847 L40.637595,13.9155313 L38.8297497,13.9155313 L38.8297497,13.5885559 C38.8297497,13.2070845 39.0259499,13.0163488 39.4183505,13.0163488 L39.4183505,13.0163488 L40.637595,13.0163488 L40.637595,11.3814714 L39.0259499,11.3814714 C38.306549,11.3814714 37.7646625,11.5472298 37.4002906,11.8787466 C37.0359186,12.2102634 36.8537327,12.684832 36.8537327,13.3024523 L36.8537327,13.3024523 L36.8537327,20.9182561 L38.8297497,20.9182561 Z M44.2303532,21 C44.9871256,21 45.6528051,20.8524069 46.2273916,20.5572207 C46.8019781,20.2620345 47.2457644,19.8442325 47.5587506,19.3038147 C47.8717367,18.7633969 48.0282298,18.1344233 48.0282298,17.4168937 C48.0282298,16.7084469 47.8717367,16.0817439 47.5587506,15.5367847 C47.2457644,14.9918256 46.8019781,14.571753 46.2273916,14.2765668 C45.6528051,13.9813806 44.9871256,13.8337875 44.2303532,13.8337875 C43.4735807,13.8337875 42.8079012,13.9813806 42.2333147,14.2765668 C41.6587282,14.571753 41.2149419,14.9918256 40.9019557,15.5367847 C40.5889696,16.0817439 40.4324765,16.7084469 40.4324765,17.4168937 C40.4324765,18.1253406 40.5889696,18.7520436 40.9019557,19.2970027 C41.2149419,19.8419619 41.6587282,20.2620345 42.2333147,20.5572207 C42.8079012,20.8524069 43.4735807,21 44.2303532,21 Z M44.2303532,19.4332425 C43.6884667,19.4332425 43.256359,19.2470481 42.9340299,18.8746594 C42.6117009,18.5022707 42.4505364,18.0163488 42.4505364,17.4168937 C42.4505364,16.8174387 42.6117009,16.3315168 42.9340299,15.9591281 C43.256359,15.5867393 43.6884667,15.400545 44.2303532,15.400545 C44.7815825,15.400545 45.2183616,15.5867393 45.5406907,15.9591281 C45.8630197,16.3315168 46.0241842,16.8174387 46.0241842,17.4168937 C46.0241842,18.0163488 45.8630197,18.5022707 45.5406907,18.8746594 C45.2183616,19.2470481 44.7815825,19.4332425 44.2303532,19.4332425 Z M50.6960438,20.9182561 L50.6960438,11.3814714 L48.7200268,11.3814714 L48.7200268,20.9182561 L50.6960438,20.9182561 Z M52.6631426,13.1662125 C52.990143,13.1662125 53.2610863,13.061762 53.4759723,12.852861 C53.6908583,12.64396 53.7983013,12.3851045 53.7983013,12.0762943 C53.7983013,11.7674841 53.6908583,11.5108992 53.4759723,11.3065395 C53.2610863,11.1021798 52.990143,11 52.6631426,11 C52.3361421,11 52.0628632,11.1021798 51.8433058,11.3065395 C51.6237483,11.5108992 51.5139696,11.7674841 51.5139696,12.0762943 C51.5139696,12.3851045 51.6237483,12.64396 51.8433058,12.852861 C52.0628632,13.061762 52.3361421,13.1662125 52.6631426,13.1662125 Z M53.6441439,20.9182561 L53.6441439,13.9155313 L51.6681269,13.9155313 L51.6681269,20.9182561 L53.6441439,20.9182561 Z M58.1338176,21 C58.8905901,21 59.5562696,20.8524069 60.1308561,20.5572207 C60.7054426,20.2620345 61.1492289,19.8442325 61.462215,19.3038147 C61.7752012,18.7633969 61.9316942,18.1344233 61.9316942,17.4168937 C61.9316942,16.7084469 61.7752012,16.0817439 61.462215,15.5367847 C61.1492289,14.9918256 60.7054426,14.571753 60.1308561,14.2765668 C59.5562696,13.9813806 58.8905901,13.8337875 58.1338176,13.8337875 C57.3770451,13.8337875 56.7113657,13.9813806 56.1367792,14.2765668 C55.5621927,14.571753 55.1184063,14.9918256 54.8054202,15.5367847 C54.492434,16.0817439 54.335941,16.7084469 54.335941,17.4168937 C54.335941,18.1253406 54.492434,18.7520436 54.8054202,19.2970027 C55.1184063,19.8419619 55.5621927,20.2620345 56.1367792,20.5572207 C56.7113657,20.8524069 57.3770451,21 58.1338176,21 Z M58.1338176,19.4332425 C57.5919311,19.4332425 57.1598234,19.2470481 56.8374944,18.8746594 C56.5151654,18.5022707 56.3540009,18.0163488 56.3540009,17.4168937 C56.3540009,16.8174387 56.5151654,16.3315168 56.8374944,15.9591281 C57.1598234,15.5867393 57.5919311,15.400545 58.1338176,15.400545 C58.6850469,15.400545 59.1218261,15.5867393 59.4441551,15.9591281 C59.7664841,16.3315168 59.9276486,16.8174387 59.9276486,17.4168937 C59.9276486,18.0163488 59.7664841,18.5022707 59.4441551,18.8746594 C59.1218261,19.2470481 58.6850469,19.4332425 58.1338176,19.4332425 Z M65.734667,21 C66.379325,21 66.9469043,20.9069028 67.437405,20.7207084 C67.9279057,20.5345141 68.3109633,20.2688465 68.586578,19.9237057 C68.8621927,19.5785649 69,19.1789282 69,18.7247956 C69,18.0072661 68.7407354,17.5009083 68.2222061,17.2057221 C67.7036768,16.9105359 66.9585829,16.7084469 65.9869244,16.599455 C65.5291238,16.5540418 65.2021234,16.5131698 65.0059231,16.4768392 C64.8097228,16.4405086 64.650894,16.3814714 64.5294367,16.2997275 C64.4079794,16.2179837 64.3472508,16.0953678 64.3472508,15.9318801 C64.3472508,15.7048138 64.4617009,15.5231608 64.6906012,15.386921 C64.9195016,15.2506812 65.2208091,15.1825613 65.5945239,15.1825613 C65.9962673,15.1825613 66.3256035,15.2665758 66.5825324,15.4346049 C66.8394613,15.602634 66.9819401,15.818347 67.0099687,16.0817439 L67.0099687,16.0817439 L68.8878856,16.0817439 C68.8411712,15.373297 68.5165065,14.8192552 67.9138914,14.4196185 C67.3112763,14.0199818 66.519468,13.8156222 65.5384667,13.8065395 C64.9311801,13.8065395 64.3939651,13.9019074 63.9268216,14.0926431 C63.4596781,14.2833787 63.0976419,14.5535876 62.840713,14.9032698 C62.5837841,15.2529519 62.4553196,15.6548592 62.4553196,16.1089918 C62.4553196,16.5631244 62.5814484,16.9264305 62.8337058,17.1989101 C63.0859633,17.4713896 63.4223067,17.671208 63.8427358,17.7983651 C64.2631649,17.9255223 64.7910371,18.0299728 65.4263523,18.1117166 C65.8934957,18.1662125 66.2298391,18.2138965 66.4353822,18.2547684 C66.6409253,18.2956403 66.7997541,18.3614896 66.9118686,18.4523161 C67.023983,18.5431426 67.0800402,18.6793824 67.0800402,18.8610354 C67.0800402,19.106267 66.9585829,19.2947321 66.7156683,19.4264305 C66.4727537,19.558129 66.1410818,19.6239782 65.7206527,19.6239782 C65.2815378,19.6239782 64.9218373,19.5286104 64.6415512,19.3378747 C64.3612651,19.147139 64.2071077,18.897366 64.1790791,18.5885559 L64.1790791,18.5885559 L62.3011623,18.5885559 C62.3385337,19.3333333 62.6702056,19.9214351 63.2961779,20.352861 C63.9221502,20.784287 64.7349799,21 65.734667,21 Z" id="Portfolios" fill="#1D144F" fill-rule="nonzero"></path>
        <path d="M80.6815531,18.9490085 L80.6815531,14.3597734 L83.6964234,18.9490085 L84.3378851,18.9490085 L84.3378851,13 L83.656332,13 L83.656332,17.5892351 L80.6414618,13 L80,13 L80,18.9490085 L80.6815531,18.9490085 Z M86.9868306,19 C87.4518904,19 87.8447857,18.8597734 88.1655166,18.5793201 C88.4862474,18.2988669 88.6867042,17.9376771 88.766887,17.4957507 L88.766887,17.4957507 L88.1013704,17.4957507 C88.0318787,17.7733711 87.8942317,17.990085 87.6884294,18.1458924 C87.4826271,18.3016997 87.2327243,18.3796034 86.938721,18.3796034 C86.5591894,18.3796034 86.2518223,18.2521246 86.0166197,17.9971671 C85.781417,17.7422096 85.6584702,17.4022663 85.6477792,16.9773371 L85.6477792,16.9773371 L85.6477792,16.917847 L88.8230149,16.917847 C88.8337059,16.7818697 88.8390514,16.6827195 88.8390514,16.6203966 C88.8283604,16.2011331 88.7401594,15.8356941 88.5744484,15.5240793 C88.4087375,15.2124646 88.1815531,14.9745042 87.8928953,14.8101983 C87.6042375,14.6458924 87.2728156,14.5637394 86.8986296,14.5637394 C86.5190981,14.5637394 86.1823306,14.6558074 85.8883273,14.8399433 C85.594324,15.0240793 85.3658033,15.2832861 85.2027651,15.6175637 C85.0397269,15.9518414 84.9582078,16.3399433 84.9582078,16.7818697 C84.9582078,17.2181303 85.0423996,17.6048159 85.2107834,17.9419263 C85.3791671,18.2790368 85.6157061,18.5396601 85.9204004,18.723796 C86.2250948,18.907932 86.5805715,19 86.9868306,19 Z M88.1574983,16.3399433 L85.6878705,16.3399433 C85.7199436,15.9943343 85.8535815,15.713881 86.0887841,15.4985836 C86.3239868,15.2832861 86.596608,15.1756374 86.9066479,15.1756374 C87.2541063,15.1756374 87.5414277,15.2776204 87.7686121,15.4815864 C87.9957965,15.6855524 88.1254252,15.9716714 88.1574983,16.3399433 L88.1574983,16.3399433 Z M90.1810186,18.9575071 L90.902663,18.9490085 L91.9290018,15.7280453 L92.9152493,18.9490085 L93.6368938,18.9490085 L95,14.6147309 L94.3344834,14.6147309 L93.2680533,18.1416431 L92.2497327,14.6147309 L91.6403441,14.6147309 L90.5658956,18.1416431 L89.5475751,14.6147309 L88.8580037,14.6147309 L90.1810186,18.9575071 Z" id="New" fill="#FFFFFF" fill-rule="nonzero"></path>
        <path d="M311.081433,21 C311.813276,21 312.472404,20.8683015 313.058817,20.6049046 C313.64523,20.3415077 314.102632,19.9804723 314.431023,19.5217984 C314.759414,19.0631244 314.92361,18.5431426 314.92361,17.9618529 C314.92361,17.3623978 314.785216,16.8832879 314.508429,16.5245232 C314.231642,16.1657584 313.868067,15.8978202 313.417702,15.7207084 C312.967337,15.5435967 312.413763,15.3960036 311.756981,15.2779292 C311.109581,15.1598547 310.631068,15.0576748 310.321442,14.9713896 C310.011816,14.8851045 309.77256,14.7715713 309.603673,14.6307902 C309.434786,14.4900091 309.350342,14.2924614 309.350342,14.0381471 C309.350342,13.6839237 309.491082,13.4114441 309.77256,13.2207084 C310.054038,13.0299728 310.429342,12.9346049 310.898472,12.9346049 C311.405133,12.9346049 311.813276,13.0594914 312.122902,13.3092643 C312.432528,13.5590372 312.610798,13.8882834 312.657711,14.2970027 L312.657711,14.2970027 L314.726575,14.2970027 C314.717192,13.7247956 314.54596,13.2116258 314.212877,12.7574932 C313.879795,12.3033606 313.424738,11.9468665 312.847708,11.6880109 C312.270678,11.4291553 311.620933,11.2997275 310.898472,11.2997275 C310.194777,11.2997275 309.563797,11.424614 309.005532,11.6743869 C308.447267,11.9241599 308.010976,12.26703 307.696658,12.7029973 C307.382341,13.1389646 307.225183,13.6339691 307.225183,14.1880109 C307.225183,14.7965486 307.363576,15.2847411 307.640363,15.6525886 C307.91715,16.020436 308.276034,16.2974569 308.717017,16.4836512 C309.157999,16.6698456 309.70219,16.82198 310.34959,16.9400545 C311.006372,17.0672116 311.491922,17.1739328 311.806239,17.260218 C312.120556,17.3465032 312.364504,17.4645777 312.538082,17.6144414 C312.711661,17.7643052 312.79845,17.9663942 312.79845,18.2207084 C312.79845,18.5840145 312.641291,18.8678474 312.326974,19.0722071 C312.012656,19.2765668 311.606859,19.3787466 311.109581,19.3787466 C310.509094,19.3787466 310.028236,19.2356948 309.667005,18.9495913 C309.305775,18.6634877 309.106395,18.284287 309.068864,17.8119891 L309.068864,17.8119891 L307,17.7847411 C307.009383,18.3932788 307.187652,18.9427793 307.534808,19.4332425 C307.881965,19.9237057 308.362823,20.3074478 308.977384,20.5844687 C309.591945,20.8614896 310.293294,21 311.081433,21 Z M319.164973,21 C319.924964,21 320.593475,20.8524069 321.170505,20.5572207 C321.747535,20.2620345 322.193209,19.8442325 322.507526,19.3038147 C322.821843,18.7633969 322.979002,18.1344233 322.979002,17.4168937 C322.979002,16.7084469 322.821843,16.0817439 322.507526,15.5367847 C322.193209,14.9918256 321.747535,14.571753 321.170505,14.2765668 C320.593475,13.9813806 319.924964,13.8337875 319.164973,13.8337875 C318.404982,13.8337875 317.736472,13.9813806 317.159442,14.2765668 C316.582411,14.571753 316.136738,14.9918256 315.82242,15.5367847 C315.508103,16.0817439 315.350945,16.7084469 315.350945,17.4168937 C315.350945,18.1253406 315.508103,18.7520436 315.82242,19.2970027 C316.136738,19.8419619 316.582411,20.2620345 317.159442,20.5572207 C317.736472,20.8524069 318.404982,21 319.164973,21 Z M319.164973,19.4332425 C318.620782,19.4332425 318.186837,19.2470481 317.863137,18.8746594 C317.539437,18.5022707 317.377587,18.0163488 317.377587,17.4168937 C317.377587,16.8174387 317.539437,16.3315168 317.863137,15.9591281 C318.186837,15.5867393 318.620782,15.400545 319.164973,15.400545 C319.718547,15.400545 320.157184,15.5867393 320.480884,15.9591281 C320.804583,16.3315168 320.966433,16.8174387 320.966433,17.4168937 C320.966433,18.0163488 320.804583,18.5022707 320.480884,18.8746594 C320.157184,19.2470481 319.718547,19.4332425 319.164973,19.4332425 Z M327.121848,21 C328.097639,21 328.892815,20.7570391 329.507376,20.2711172 C330.121936,19.7851953 330.494895,19.1153497 330.626251,18.2615804 L330.626251,18.2615804 L328.585535,18.2615804 C328.510474,18.6248865 328.343933,18.91099 328.085911,19.119891 C327.827889,19.328792 327.506535,19.4332425 327.121848,19.4332425 C326.605805,19.4332425 326.192971,19.2470481 325.883345,18.8746594 C325.573719,18.5022707 325.418906,18.0163488 325.418906,17.4168937 C325.418906,16.8174387 325.573719,16.3315168 325.883345,15.9591281 C326.192971,15.5867393 326.605805,15.400545 327.121848,15.400545 C327.497153,15.400545 327.81147,15.5027248 328.0648,15.7070845 C328.318131,15.9114441 328.487017,16.1861944 328.571461,16.5313351 L328.571461,16.5313351 L330.626251,16.5313351 C330.485512,15.6866485 330.110208,15.0258856 329.500339,14.5490463 C328.890469,14.0722071 328.102331,13.8337875 327.135922,13.8337875 C326.385314,13.8337875 325.726186,13.9813806 325.158538,14.2765668 C324.590891,14.571753 324.1546,14.989555 323.849665,15.5299728 C323.54473,16.0703906 323.392263,16.6993642 323.392263,17.4168937 C323.392263,18.1253406 323.54473,18.7520436 323.849665,19.2970027 C324.1546,19.8419619 324.588545,20.2620345 325.151501,20.5572207 C325.714458,20.8524069 326.37124,21 327.121848,21 Z M332.29209,13.1662125 C332.620481,13.1662125 332.892577,13.061762 333.108377,12.852861 C333.324177,12.64396 333.432076,12.3851045 333.432076,12.0762943 C333.432076,11.7674841 333.324177,11.5108992 333.108377,11.3065395 C332.892577,11.1021798 332.620481,11 332.29209,11 C331.963699,11 331.689258,11.1021798 331.468766,11.3065395 C331.248275,11.5108992 331.13803,11.7674841 331.13803,12.0762943 C331.13803,12.3851045 331.248275,12.64396 331.468766,12.852861 C331.689258,13.061762 331.963699,13.1662125 332.29209,13.1662125 Z M333.277264,20.9182561 L333.277264,13.9155313 L331.292843,13.9155313 L331.292843,20.9182561 L333.277264,20.9182561 Z M336.660119,21 C337.20431,21 337.668749,20.8955495 338.053436,20.6866485 C338.438122,20.4777475 338.761822,20.1734787 339.024535,19.773842 C339.00577,20.5367847 339.451444,20.9182561 340.361556,20.9182561 L340.361556,20.9182561 L341.374878,20.9182561 L341.374878,19.2970027 L341.149695,19.2970027 C340.990191,19.2970027 340.872908,19.2652134 340.797848,19.2016349 C340.722787,19.1380563 340.685256,19.0199818 340.685256,18.8474114 L340.685256,18.8474114 L340.685256,16.3814714 C340.685256,15.55495 340.406124,14.9237057 339.847859,14.4877384 C339.289594,14.0517711 338.499109,13.8337875 337.476406,13.8337875 C336.500615,13.8337875 335.717167,14.0313351 335.126063,14.4264305 C334.534959,14.8215259 334.206568,15.3778383 334.14089,16.0953678 L334.14089,16.0953678 L336.054941,16.0953678 C336.101854,15.8319709 336.242593,15.6230699 336.477158,15.4686649 C336.711723,15.3142598 337.011967,15.2370572 337.377888,15.2370572 C337.790723,15.2370572 338.119114,15.3301544 338.363062,15.5163488 C338.607009,15.7025431 338.728983,15.9545867 338.728983,16.2724796 L338.728983,16.2724796 L338.728983,16.613079 L337.293445,16.613079 C336.214445,16.613079 335.391122,16.815168 334.823474,17.219346 C334.255826,17.6235241 333.972003,18.1980018 333.972003,18.9427793 C333.972003,19.5967302 334.218296,20.1030881 334.710883,20.4618529 C335.20347,20.8206176 335.853215,21 336.660119,21 Z M337.040114,19.6103542 C336.711723,19.6103542 336.451356,19.537693 336.259013,19.3923706 C336.066669,19.2470481 335.970497,19.0517711 335.970497,18.8065395 C335.970497,18.5158946 336.085434,18.291099 336.315308,18.1321526 C336.545182,17.9732062 336.866536,17.893733 337.279371,17.893733 L337.279371,17.893733 L338.728983,17.893733 L338.728983,18.0299728 C338.719601,18.5113533 338.564788,18.8950954 338.264544,19.1811989 C337.964301,19.4673025 337.556158,19.6103542 337.040114,19.6103542 Z M343.730338,20.9182561 L343.730338,11.3814714 L341.745917,11.3814714 L341.745917,20.9182561 L343.730338,20.9182561 Z M351.636035,21 C352.367878,21 353.027006,20.8683015 353.613419,20.6049046 C354.199832,20.3415077 354.657234,19.9804723 354.985625,19.5217984 C355.314016,19.0631244 355.478212,18.5431426 355.478212,17.9618529 C355.478212,17.3623978 355.339818,16.8832879 355.063032,16.5245232 C354.786245,16.1657584 354.422669,15.8978202 353.972304,15.7207084 C353.521939,15.5435967 352.968365,15.3960036 352.311583,15.2779292 C351.664183,15.1598547 351.18567,15.0576748 350.876044,14.9713896 C350.566418,14.8851045 350.327162,14.7715713 350.158275,14.6307902 C349.989388,14.4900091 349.904945,14.2924614 349.904945,14.0381471 C349.904945,13.6839237 350.045684,13.4114441 350.327162,13.2207084 C350.60864,13.0299728 350.983944,12.9346049 351.453074,12.9346049 C351.959735,12.9346049 352.367878,13.0594914 352.677504,13.3092643 C352.98713,13.5590372 353.1654,13.8882834 353.212313,14.2970027 L353.212313,14.2970027 L355.281177,14.2970027 C355.271794,13.7247956 355.100562,13.2116258 354.767479,12.7574932 C354.434397,12.3033606 353.979341,11.9468665 353.402311,11.6880109 C352.82528,11.4291553 352.175535,11.2997275 351.453074,11.2997275 C350.749379,11.2997275 350.118399,11.424614 349.560134,11.6743869 C349.001869,11.9241599 348.565578,12.26703 348.251261,12.7029973 C347.936943,13.1389646 347.779785,13.6339691 347.779785,14.1880109 C347.779785,14.7965486 347.918178,15.2847411 348.194965,15.6525886 C348.471752,16.020436 348.830636,16.2974569 349.271619,16.4836512 C349.712601,16.6698456 350.256792,16.82198 350.904192,16.9400545 C351.560974,17.0672116 352.046524,17.1739328 352.360841,17.260218 C352.675159,17.3465032 352.919106,17.4645777 353.092685,17.6144414 C353.266263,17.7643052 353.353052,17.9663942 353.353052,18.2207084 C353.353052,18.5840145 353.195893,18.8678474 352.881576,19.0722071 C352.567259,19.2765668 352.161461,19.3787466 351.664183,19.3787466 C351.063696,19.3787466 350.582838,19.2356948 350.221608,18.9495913 C349.860377,18.6634877 349.660997,18.284287 349.623467,17.8119891 L349.623467,17.8119891 L347.554602,17.7847411 C347.563985,18.3932788 347.742254,18.9427793 348.089411,19.4332425 C348.436567,19.9237057 348.917426,20.3074478 349.531986,20.5844687 C350.146547,20.8614896 350.847896,21 351.636035,21 Z M359.818093,21 C360.437345,21 360.986227,20.8932788 361.46474,20.6798365 C361.943253,20.4663942 362.32794,20.1734787 362.6188,19.8010899 C362.909661,19.4287012 363.092622,19.0108992 363.167683,18.5476839 L363.167683,18.5476839 L361.21141,18.5476839 C361.126966,18.8746594 360.951042,19.1221617 360.683638,19.2901907 C360.416234,19.4582198 360.080806,19.5422343 359.677354,19.5422343 C359.170693,19.5422343 358.771932,19.3969119 358.481072,19.106267 C358.190211,18.8156222 358.021324,18.4159855 357.974411,17.9073569 L357.974411,17.9073569 L357.974411,17.852861 L363.223978,17.852861 C363.261509,17.6621253 363.280274,17.4441417 363.280274,17.1989101 C363.270891,16.5177112 363.109041,15.9250681 362.794724,15.4209809 C362.480407,14.9168937 362.044116,14.5263397 361.485851,14.2493188 C360.927586,13.9722979 360.282532,13.8337875 359.550689,13.8337875 C358.828228,13.8337875 358.192557,13.9813806 357.643674,14.2765668 C357.094792,14.571753 356.667883,14.989555 356.362949,15.5299728 C356.058014,16.0703906 355.905547,16.7039055 355.905547,17.4305177 C355.905547,18.1480472 356.062705,18.7770209 356.377023,19.3174387 C356.69134,19.8578565 357.141705,20.2733878 357.728118,20.5640327 C358.31453,20.8546776 359.011189,21 359.818093,21 Z M361.295853,16.599455 L358.016633,16.599455 C358.072928,16.1907357 358.248852,15.8660309 358.544404,15.6253406 C358.839956,15.3846503 359.203532,15.2643052 359.635132,15.2643052 C360.085497,15.2643052 360.458456,15.380109 360.754008,15.6117166 C361.04956,15.8433243 361.230175,16.1725704 361.295853,16.599455 L361.295853,16.599455 Z M368.112742,20.9182561 L368.112742,19.2970027 L367.085347,19.2970027 C366.832016,19.2970027 366.651401,19.2425068 366.543501,19.133515 C366.435601,19.0245232 366.381651,18.8474114 366.381651,18.6021798 L366.381651,18.6021798 L366.381651,15.5367847 L368.028298,15.5367847 L368.028298,13.9155313 L366.381651,13.9155313 L366.381651,11.9536785 L364.39723,11.9536785 L364.39723,13.9155313 L363.200948,13.9155313 L363.200948,15.5367847 L364.39723,15.5367847 L364.39723,18.9155313 C364.39723,20.2506812 365.086852,20.9182561 366.466095,20.9182561 L366.466095,20.9182561 L368.112742,20.9182561 Z M371.72078,21 C372.368179,21 372.938173,20.9069028 373.430759,20.7207084 C373.923346,20.5345141 374.308033,20.2688465 374.58482,19.9237057 C374.861607,19.5785649 375,19.1789282 375,18.7247956 C375,18.0072661 374.739633,17.5009083 374.218898,17.2057221 C373.698164,16.9105359 372.949901,16.7084469 371.97411,16.599455 C371.514362,16.5540418 371.185971,16.5131698 370.988937,16.4768392 C370.791902,16.4405086 370.632398,16.3814714 370.510424,16.2997275 C370.38845,16.2179837 370.327463,16.0953678 370.327463,15.9318801 C370.327463,15.7048138 370.4424,15.5231608 370.672274,15.386921 C370.902147,15.2506812 371.204736,15.1825613 371.580041,15.1825613 C371.983493,15.1825613 372.314229,15.2665758 372.572251,15.4346049 C372.830273,15.602634 372.973357,15.818347 373.001505,16.0817439 L373.001505,16.0817439 L374.887409,16.0817439 C374.840496,15.373297 374.51445,14.8192552 373.909272,14.4196185 C373.304094,14.0199818 372.508918,13.8156222 371.523745,13.8065395 C370.913876,13.8065395 370.374376,13.9019074 369.905246,14.0926431 C369.436115,14.2833787 369.07254,14.5535876 368.814518,14.9032698 C368.556496,15.2529519 368.427486,15.6548592 368.427486,16.1089918 C368.427486,16.5631244 368.554151,16.9264305 368.807481,17.1989101 C369.060811,17.4713896 369.398585,17.671208 369.820802,17.7983651 C370.243019,17.9255223 370.773137,18.0299728 371.411154,18.1117166 C371.880284,18.1662125 372.218058,18.2138965 372.424475,18.2547684 C372.630892,18.2956403 372.790397,18.3614896 372.902988,18.4523161 C373.015579,18.5431426 373.071875,18.6793824 373.071875,18.8610354 C373.071875,19.106267 372.949901,19.2947321 372.705953,19.4264305 C372.462005,19.558129 372.128923,19.6239782 371.706706,19.6239782 C371.265723,19.6239782 370.904493,19.5286104 370.623015,19.3378747 C370.341537,19.147139 370.186724,18.897366 370.158576,18.5885559 L370.158576,18.5885559 L368.272673,18.5885559 C368.310203,19.3333333 368.643285,19.9214351 369.27192,20.352861 C369.900554,20.784287 370.716841,21 371.72078,21 Z" id="SocialSets" fill="#1D144F" fill-rule="nonzero"></path>
    </g>
</svg>