<?xml version="1.0" encoding="UTF-8"?>
<svg width="27px" height="25px" viewBox="0 0 27 25" version="1.1" xmlns="http://www.w3.org/2000/svg" xmlns:xlink="http://www.w3.org/1999/xlink">
    <title>Group 2</title>
    <g id="💠-V5" stroke="none" stroke-width="1" fill="none" fill-rule="evenodd">
        <g id="Set-Landing---James-Set---Performance-and-Annual-Fee-Copy-19" transform="translate(-159.000000, -112.000000)" fill="#DF4857" fill-rule="nonzero">
            <g id="Group-2" transform="translate(159.026080, 112.953253)">
                <path d="M10.762056,0.545535533 C10.1660415,0.893210681 9.67009968,1.38915249 9.32242454,1.98516703 L0.545535533,17.0312625 C-0.5675856,18.9394701 0.0769593777,21.388741 1.98516703,22.5018622 C2.59691127,22.858713 3.29243259,23.0467466 4.00065114,23.0467466 L21.5544291,23.0467466 C23.7635681,23.0467466 25.5544291,21.2558856 25.5544291,19.0467466 C25.5544291,18.338528 25.3663956,17.6430067 25.0095447,17.0312625 L16.2326557,1.98516703 C15.1195346,0.0769593777 12.6702637,-0.5675856 10.762056,0.545535533 Z M14.5050979,2.99290909 L23.2819869,18.0390045 C23.4604123,18.3448766 23.5544291,18.6926373 23.5544291,19.0467466 C23.5544291,20.1513161 22.6589986,21.0467466 21.5544291,21.0467466 L4.00065114,21.0467466 C3.64654186,21.0467466 3.2987812,20.9527298 2.99290909,20.7743044 C2.03880526,20.2177438 1.71653277,18.9931083 2.27309333,18.0390045 L11.0499823,2.99290909 C11.2238199,2.69490182 11.4717908,2.44693091 11.7697981,2.27309333 C12.7239019,1.71653277 13.9485374,2.03880526 14.5050979,2.99290909 Z" id="Path-29-Copy"></path>
                <path d="M13.4379195,14.7015903 L13.6339195,7.51959027 L12.3459195,7.51959027 L12.5419195,14.7015903 L13.4379195,14.7015903 Z M12.9759195,17.5995903 C13.4659195,17.5995903 13.8719195,17.2075903 13.8719195,16.7035903 C13.8719195,16.1995903 13.4659195,15.8075903 12.9759195,15.8075903 C12.4859195,15.8075903 12.0799195,16.1995903 12.0799195,16.7035903 C12.0799195,17.2075903 12.4859195,17.5995903 12.9759195,17.5995903 Z" id="!"></path>
            </g>
        </g>
    </g>
</svg>