<svg xmlns="http://www.w3.org/2000/svg" xmlns:xlink="http://www.w3.org/1999/xlink" viewBox="0 0 100 100"><defs><style>.a{fill:url(#a);}.b{fill:url(#b);}</style><linearGradient id="a" x1="50" y1="0.67" x2="50" y2="98.48" gradientUnits="userSpaceOnUse"><stop offset="0" stop-color="#c32034"/><stop offset="1" stop-color="#200e22"/></linearGradient><linearGradient id="b" x1="50" y1="86.92" x2="50" y2="11.38" gradientUnits="userSpaceOnUse"><stop offset="0" stop-color="#f37336"/><stop offset="1" stop-color="#f7b519"/></linearGradient></defs><rect class="a" width="100" height="100"/><path class="b" d="M50,9.84A40.16,40.16,0,1,1,9.84,50,40.2,40.2,0,0,1,50,9.84ZM46.37,17.3A32.68,32.68,0,0,0,18.79,39.61c-3.62,11.22-1.57,21.55,5.47,31,.16-.16.25-.23.32-.31Q35.32,59.56,46.05,48.82a1.34,1.34,0,0,0,.31-.85q0-15,0-30Zm7.25-.11v.73q0,15,0,30.05a1.21,1.21,0,0,0,.39.94Q64.65,59.52,75.27,70.15l.49.47c7.38-10.07,9.41-21,4.82-32.62C75.81,25.92,66.5,19.25,53.62,17.19Zm0,65.49C59,82.35,67.36,78.89,70.4,75.8c-5.61-5.6-11.21-11.21-16.75-16.75ZM46.34,59,29.53,75.78a32.71,32.71,0,0,0,16.81,6.93Z"/></svg>