<?xml version="1.0" encoding="UTF-8"?>
<svg width="24px" height="24px" viewBox="0 0 24 24" version="1.1" xmlns="http://www.w3.org/2000/svg" xmlns:xlink="http://www.w3.org/1999/xlink">
    <!-- Generator: Sketch 61.2 (89653) - https://sketch.com -->
    <title>BAL</title>
    <desc>Created with Sketch.</desc>
    <g id="BAL" stroke="none" stroke-width="1" fill="none" fill-rule="evenodd">
        <g id="eth">
            <circle id="Oval" stroke="#E0DCF4" stroke-width="0.3" fill="#FFFFFF" cx="12" cy="12" r="11.85"></circle>
            <path d="M12,12.3130787 C7.89491327,12.3130787 4.56000613,13.4666145 4.56000613,15.0827842 C4.56000613,16.698954 7.89491327,17.8524898 12,17.8524898 C16.1050867,17.8524898 19.4399939,16.698954 19.4399939,15.0827842 C19.4399939,13.4666145 16.1050867,12.3130787 12,12.3130787 Z M12,12.6130787 C15.9433097,12.6130787 19.1399939,13.7188035 19.1399939,15.0827842 C19.1399939,16.4467649 15.9433097,17.5524898 12,17.5524898 C8.05669027,17.5524898 4.86000613,16.4467649 4.86000613,15.0827842 C4.86000613,13.7188035 8.05669027,12.6130787 12,12.6130787 Z" id="Oval-Copy-5" fill="#FFFFFF" fill-rule="nonzero"></path>
            <ellipse id="Oval-Copy-2" stroke="#FFFFFF" stroke-width="0.3" fill="#000000" cx="12" cy="15.0827842" rx="7.28999387" ry="2.61970553"></ellipse>
            <ellipse id="Oval-Copy" stroke="#FFFFFF" stroke-width="0.3" fill="#000000" cx="12" cy="10.7860182" rx="5.84038977" ry="2.11829119"></ellipse>
            <path d="M12,8.51772702 C8.69550751,8.51772702 6.00961023,9.44677198 6.00961023,10.7860182 C6.00961023,12.1252644 8.69550751,13.0543094 12,13.0543094 C15.3044925,13.0543094 17.9903898,12.1252644 17.9903898,10.7860182 C17.9903898,9.44677198 15.3044925,8.51772702 12,8.51772702 Z M12,8.81772702 C15.1427155,8.81772702 17.6903898,9.698961 17.6903898,10.7860182 C17.6903898,11.8730754 15.1427155,12.7543094 12,12.7543094 C8.85728451,12.7543094 6.30961023,11.8730754 6.30961023,10.7860182 C6.30961023,9.698961 8.85728451,8.81772702 12,8.81772702 Z" id="Oval-Copy-4" fill="#FFFFFF" fill-rule="nonzero"></path>
            <ellipse id="Oval" stroke="#FFFFFF" stroke-width="0.3" fill="#000000" cx="12" cy="7.23558179" rx="4.54058172" ry="1.66869093"></ellipse>
            <path d="M12,5.41689086 C9.41337167,5.41689086 7.30941828,6.14464293 7.30941828,7.23558179 C7.30941828,8.32652065 9.41337167,9.05427272 12,9.05427272 C14.5866283,9.05427272 16.6905817,8.32652065 16.6905817,7.23558179 C16.6905817,6.14464293 14.5866283,5.41689086 12,5.41689086 Z M12,5.71689086 C14.4248513,5.71689086 16.3905817,6.39683195 16.3905817,7.23558179 C16.3905817,8.07433163 14.4248513,8.75427272 12,8.75427272 C9.57514867,8.75427272 7.60941828,8.07433163 7.60941828,7.23558179 C7.60941828,6.39683195 9.57514867,5.71689086 12,5.71689086 Z" id="Oval-Copy-3" fill="#FFFFFF" fill-rule="nonzero"></path>
        </g>
    </g>
</svg>