
        <svg xmlns="http://www.w3.org/2000/svg" xmlns:xlink="http://www.w3.org/1999/xlink" version="1.1" width="3171.4285714285716" 
        height="1250.8999018164716" viewBox="0 0 3171.4285714285716 1250.8999018164716">
			
			<g transform="scale(8.571428571428571) translate(10, 10)">
				<defs id="SvgjsDefs1727"></defs><g id="SvgjsG1728" featureKey="1p4tPl-0" transform="matrix(-1.5362945413680011,0,0,1.5362945413680011,244.18648769455083,-41.378574782143495)" fill="#eaa159"><path xmlns="http://www.w3.org/2000/svg" fill-rule="evenodd" clip-rule="evenodd" fill="#eaa159" d="M82.84,39.78c0.394,0.739,0.645,1.619,0.754,2.638  c0.049,0.448,0.074,1.252,0.074,2.41c0,0.261-0.03,0.591-0.091,0.991c-0.019,0.461-0.09,1.122-0.211,1.983  c-0.084,0.588-0.142,1.036-0.173,1.346c0.024,0.333,0.073,0.58,0.146,0.737c0.079,0.176,0.373,0.552,0.882,1.128  c0.268,0.285,0.749,0.497,1.446,0.636c0.824,0.158,1.304,0.273,1.438,0.346c0.436,0.226,0.806,0.558,1.109,1.001  c0.17,0.449,0.284,0.831,0.347,1.146c0.005,0.019,0.038,0.276,0.099,0.773c0.098,0.576,0.221,1.107,0.372,1.592  c0.079,0.248,0.169,0.479,0.265,0.691c-0.072,0.019-0.148,0.027-0.228,0.027c-1.363,0-2.422-0.561-3.175-1.684  c-0.17-0.26-0.397-0.684-0.682-1.272c-0.065-0.128-0.124-0.239-0.173-0.336c-0.006-0.019-0.009-0.03-0.009-0.037  c-0.019-0.334-0.37-0.8-1.056-1.401c-0.818-0.715-1.261-1.127-1.328-1.236c-0.303-0.461-0.505-0.913-0.609-1.355  c-0.042-0.193-0.072-0.415-0.091-0.663c0-0.031,0-0.059,0-0.083c-0.005-0.085-0.012-0.17-0.017-0.254  c-0.007-0.092-0.011-0.18-0.011-0.265c0-0.363,0.049-0.918,0.146-1.665c0.036-0.297,0.066-0.561,0.091-0.791  c0.066-0.46,0.118-0.942,0.153-1.445c-0.061-0.801-0.215-1.59-0.463-2.366c-0.612-1.916-1.652-2.874-3.121-2.874  c-0.272,0-0.533,0.055-0.78,0.164c0.163,1.485,0.245,2.304,0.245,2.456c0,0.618-0.177,1.573-0.528,2.865  c-0.352,1.279-0.527,2.235-0.527,2.865c0,1.164,0.467,2.341,1.401,3.529c0.563,0.704,0.889,1.124,0.973,1.265  c0.291,0.448,0.438,0.879,0.438,1.292c0,0.411-0.503,1.7-1.51,3.865c-0.51,1.098-1.063,2.244-1.656,3.438  c-0.37,0.789-0.57,1.649-0.601,2.583c-0.018,0.522-0.012,1.189,0.018,2.002c-0.023,0.618-0.218,1.052-0.581,1.301  c-0.438,0.304-1.24,0.455-2.41,0.455c-0.758,0-1.507-0.062-2.247-0.182c-0.94-0.159-1.41-0.364-1.41-0.619  c0-0.563,0.279-1.389,0.837-2.475c0.321-0.618,0.934-1.676,1.838-3.174c0.715-1.188,1.382-2.38,2.001-3.575  c0.006-0.072,0.019-0.146,0.036-0.219c0.012-0.103,0.018-0.202,0.018-0.299c0-0.449-0.212-0.855-0.636-1.22  c-0.243-0.206-0.725-0.506-1.446-0.9c-0.298-0.157-0.561-0.306-0.791-0.445c-0.098,0.291-0.228,0.573-0.392,0.847  c-0.321,0.521-0.857,1.121-1.61,1.8c-0.903,0.771-1.582,1.38-2.037,1.829c-0.801,0.782-1.429,1.576-1.883,2.383  c-0.655,1.146-1.155,2.295-1.501,3.446c-0.182,0.607-0.373,1.316-0.573,2.129c-0.193,0.534-0.507,0.895-0.937,1.083  c-0.479,0.194-1.337,0.29-2.574,0.29h-1.792c-0.886-0.036-1.328-0.169-1.328-0.399c0-0.66,0.428-1.606,1.282-2.838  c0.588-0.843,1.529-2.007,2.82-3.493c1.067-1.219,1.843-2.116,2.329-2.692c0.042-0.049,0.081-0.094,0.118-0.137  c0.169-0.2,0.293-0.354,0.372-0.463c0.177-0.219,0.333-0.425,0.473-0.619c-0.254-1.995-1.264-3.29-3.028-3.884  c-0.982-0.328-2.599-0.491-4.848-0.491c-0.485,0-1.468,0.173-2.947,0.519c-1.39,0.351-2.102,0.497-2.139,0.437  c-0.703,0.242-1.238,0.421-1.609,0.536c-0.987,0.315-1.716,0.474-2.183,0.474c-0.558,0-1.162-0.094-1.811-0.281  c-0.648-0.189-1.134-0.283-1.455-0.283c-0.096,0-0.229,0.052-0.396,0.155c-1.695,2.634-3.184,4.828-4.466,6.585  c0.103,0.274,0.234,0.505,0.396,0.691c0.321,0.37,0.804,0.592,1.447,0.664c0.351,0.037,0.833,0.069,1.446,0.1  c0.442,0.098,0.663,0.373,0.663,0.828c0,0.4-0.163,1.371-0.491,2.911c-0.351,1.637-0.609,2.455-0.772,2.455  c-0.655,0-1.701-0.869-3.138-2.61c-0.75-0.902-1.326-1.647-1.728-2.237c-0.396,0.465-0.759,0.863-1.092,1.196  c-0.059,0.175-0.123,0.36-0.191,0.559c-0.315,0.916-0.631,1.525-0.946,1.828c-1.091,0.146-1.892,0.252-2.401,0.318  c-0.91,0.115-1.677,0.173-2.302,0.173c-0.606,0-0.909-0.175-0.909-0.527c0-0.145,0.761-1.233,2.283-3.265  c1.516-2.031,2.273-3.084,2.273-3.156c0-0.164-0.121-0.37-0.363-0.618c-0.024-0.024-0.289-0.264-0.792-0.719  c-0.77-0.698-1.155-1.316-1.155-1.855c0-0.4,0.197-0.822,0.591-1.265c0.218-0.237,0.652-0.622,1.301-1.156  c0.619-0.49,1.055-0.891,1.31-1.2c0.394-0.466,0.591-0.934,0.591-1.4c0-0.442-1.477-1.355-4.43-2.738  c-2.893-1.358-4.718-2.037-5.476-2.037c-0.449,0-0.822,0.213-1.119,0.637c-0.279,0.394-0.419,0.85-0.419,1.364  c0,0.23,0.07,0.649,0.209,1.255c0.14,0.619,0.209,1.067,0.209,1.347c0,0.643-0.376,1.285-1.128,1.928  c-0.758,0.655-1.553,0.982-2.383,0.982c-0.297,0-0.782-0.388-1.455-1.163c-0.376-0.389-0.88-0.914-1.51-1.574  c-1.613-1.686-2.638-2.684-3.074-2.992c-0.995-0.723-1.859-1.625-2.593-2.711c-0.491-0.734-0.815-1.388-0.973-1.965  c-0.467,0.206-0.931,0.388-1.392,0.546c-1.419,0.491-2.701,0.736-3.848,0.736c-1.109,0-2.238-0.569-3.383-1.71  c-1.013-1-1.628-1.952-1.847-2.855c0.606,0.455,1.355,0.897,2.247,1.328c1.171,0.563,2.116,0.846,2.838,0.846  c0.716,0,1.716-0.386,3.002-1.155c0.655-0.395,1.304-0.828,1.946-1.301v-0.064c-1.849,0.194-3.711-0.293-5.585-1.464  c-1.868-1.17-3.071-2.601-3.611-4.293c1.552,1.225,2.665,2.016,3.338,2.374c1.007,0.521,2.128,0.782,3.366,0.782  c0.716,0,1.683-0.094,2.901-0.282c0.764-0.115,3.984-1.713,9.66-4.793c0.582-0.322,1.191-0.655,1.828-1  c0.006-0.006,0.016-0.015,0.027-0.027c0.928-0.903,1.649-1.589,2.165-2.056c3.02-2.753,5.321-4.129,6.903-4.129  c0.958,0,1.998,0.254,3.12,0.764c0.673,0.309,1.75,0.873,3.229,1.691c1.456,0.758,2.853,1.322,4.193,1.692  c1.844,0.516,3.859,0.773,6.049,0.773c1.212,0,3.574-0.27,7.085-0.81c3.523-0.54,5.713-0.81,6.568-0.81  c3.279,0,6.356,0.746,9.232,2.238c1.952,1.001,3.559,2.199,4.821,3.593C79.482,36.515,81.754,37.754,82.84,39.78z"></path></g><g id="SvgjsG1729" featureKey="dYASrj-0" transform="matrix(2.1916061682492662,0,0,2.1916061682492662,-1.3144796387656392,72.7270046217727)" fill="#ffffff"><path d="M14.24 12.34 c0.32 0 0.49978 0.18 0.49978 0.5 l0 2.3 l0 4.36 c0 0.32 -0.18 0.5 -0.5 0.5 l-2 0 c-0.32 0 -0.5 -0.18 -0.5 -0.5 l0 -1.1344 c-0.9438 1.2558 -2.3972 1.9144 -4.26 1.9144 c-3.9 0 -6.88 -3.16 -6.88 -7.28 s3.06 -7.28 7.28 -7.28 c3.18 0 5.88 1.96 6.7 4.52 c0.12 0.34 -0.06 0.56 -0.42 0.56 l-2.36 0 c-0.28 0 -0.44 -0.12 -0.58 -0.36 c-0.58 -0.9 -1.86 -1.6 -3.34 -1.6 c-2.48 0 -4.08 1.66 -4.08 4.16 c0 2.7 1.72 4.36 4.08 4.36 c1.503 0 3.006 -0.6274 3.5742 -2.22 l-3.014 0 c-0.32 0 -0.5 -0.18 -0.5 -0.5 l0 -1.8 c0 -0.32 0.18 -0.5 0.5 -0.5 l5.8 0 z M23.52 20.28 c-4.22 0 -7.28 -3.16 -7.28 -7.28 s3.06 -7.28 7.28 -7.28 c3.2 0 5.92 2 6.74 4.92 c0.08 0.34 -0.1 0.56 -0.44 0.56 l-2.36 0 c-0.28 0 -0.44 -0.14 -0.56 -0.4 c-0.56 -1.22 -1.86 -1.96 -3.38 -1.96 c-2.48 0 -4.08 1.66 -4.08 4.16 s1.6 4.16 4.08 4.16 c1.52 0 2.82 -0.74 3.38 -1.96 c0.12 -0.26 0.28 -0.4 0.56 -0.4 l2.36 0 c0.34 0 0.52 0.2 0.44 0.52 c-0.78 2.92 -3.52 4.96 -6.74 4.96 z M42.78 6 c3.86 0 6.8 3.04 6.8 7 s-2.94 7 -6.8 7 l-5 0 l-0.5 0 c-0.32 0 -0.5 -0.18 -0.5 -0.5 l0 -13 c0 -0.32 0.18 -0.5 0.5 -0.5 l2.7 0 l2.8 0 z M42.78 16.92 c2.2 0 3.72 -1.52 3.72 -3.92 s-1.52 -3.92 -3.72 -3.92 l-2.8 0 l0 7.84 l2.8 0 z M51.78 8.8 c-0.32 0 -0.5 -0.18 -0.5 -0.5 l0 -1.8 c0 -0.32 0.18 -0.5 0.5 -0.5 l2 0 c0.32 0 0.5 0.18 0.5 0.5 l0 1.8 c0 0.32 -0.18 0.5 -0.5 0.5 l-2 0 z M51.78 20 c-0.32 0 -0.5 -0.18 -0.5 -0.5 l0 -9 c0 -0.32 0.18 -0.5 0.5 -0.5 l2 0 c0.32 0 0.5 0.18 0.5 0.5 l0 9 c0 0.32 -0.18 0.5 -0.5 0.5 l-2 0 z M66.24000000000001 10 c0.32 0 0.5 0.17961 0.5 0.4996 l0 9 c0 3.36 -2.7 4.78 -5.14 4.78 c-2.46 0 -4.74 -1.16 -5.04 -3.56 c-0.02 -0.34 0.18 -0.52 0.5 -0.52 l2.02 0 c0.3 0 0.44 0.16 0.54 0.44 c0.22 0.6 0.88 1 1.98 1 c1.34 0 2.22 -0.72 2.22 -2.14 l0 -0.90881 c-0.6702 0.7998 -1.6674 1.289 -3.06 1.289 c-2.62 0 -4.78 -2.3 -4.78 -5.08 s2.16 -5.08 4.78 -5.08 c1.3926 0 2.3898 0.4892 3.06 1.289 l0 -0.50881 c0 -0.32 0.18 -0.5 0.5 -0.5 l1.92 0 z M61.400000000000006 17.1196 c1.42 0 2.42 -0.94 2.42 -2.32 s-1 -2.32 -2.42 -2.32 s-2.42 0.94 -2.42 2.32 s1 2.32 2.42 2.32 z M69.44 8.8 c-0.32 0 -0.5 -0.18 -0.5 -0.5 l0 -1.8 c0 -0.32 0.18 -0.5 0.5 -0.5 l2 0 c0.32 0 0.5 0.18 0.5 0.5 l0 1.8 c0 0.32 -0.18 0.5 -0.5 0.5 l-2 0 z M69.44 20 c-0.32 0 -0.5 -0.18 -0.5 -0.5 l0 -9 c0 -0.32 0.18 -0.5 0.5 -0.5 l2 0 c0.32 0 0.5 0.18 0.5 0.5 l0 9 c0 0.32 -0.18 0.5 -0.5 0.5 l-2 0 z M79.04 10 c0.32 0 0.5 0.18 0.5 0.5 l0 1.88 c0 0.32 -0.18 0.5 -0.5 0.5 l-1.1 0 l0 6.62 c0 0.32 -0.18 0.5 -0.5 0.5 l-2 0 c-0.32 0 -0.5 -0.18 -0.5 -0.5 l0 -6.62 l-1.1 0 c-0.32 0 -0.5 -0.18 -0.5 -0.5 l0 -1.88 c0 -0.32 0.18 -0.5 0.5 -0.5 l1.1 0 l0 -2.7 c0 -0.32 0.18 -0.5 0.5 -0.5 l2 0 c0.32 0 0.5 0.18 0.5 0.5 l0 2.7 l1.1 0 z M85.08 9.72 c2.2 0 4.16 1.28 4.16 3.98 l0 5.8 c0 0.32 -0.18 0.5 -0.5 0.5 l-1.92 0 c-0.32 0 -0.5 -0.18 -0.5 -0.5 l0 -0.28561 c-0.5362 0.6276 -1.3234 1.0656 -2.58 1.0656 c-1.76 0 -3.3 -1.04 -3.3 -3.12 s1.54 -3.12 3.3 -3.12 c1.2566 0 2.0438 0.3546 2.58 0.76262 l0 -0.9026 c0 -0.98 -0.4 -1.42 -1.24 -1.42 c-0.62 0 -1 0.24 -1.16 0.58 c-0.12 0.28 -0.22 0.44 -0.52 0.44 l-1.96 0 c-0.32 0 -0.52 -0.18 -0.5 -0.52 c0.26 -2.16 2.1 -3.26 4.14 -3.26 z M84.8 18.16 c0.98 0 1.52 -0.42 1.52 -1 c0 -0.62 -0.54 -1 -1.52 -1 c-0.92 0 -1.36 0.42 -1.36 1 s0.44 1 1.36 1 z M91.67999999999999 20 c-0.32 0 -0.5 -0.18 -0.5 -0.5 l0 -13.4 c0 -0.32 0.18 -0.5 0.5 -0.5 l2 0 c0.32 0 0.5 0.18 0.5 0.5 l0 13.4 c0 0.32 -0.18 0.5 -0.5 0.5 l-2 0 z M113.3 19.44 c0.12 0.36 -0.06002 0.56 -0.42002 0.56 l-2.46 0 c-0.28 0 -0.48 -0.12 -0.56 -0.42 l-0.5262 -1.78 l-4.9076 0 l-0.5262 1.78 c-0.08 0.3 -0.28 0.42 -0.56 0.42 l-2.46 0 c-0.36 0 -0.54 -0.2 -0.42 -0.56 l4.24 -13.02 c0.08 -0.28 0.3 -0.42 0.58 -0.42 l3.2 0 c0.28 0 0.5 0.14 0.58 0.42 z M105.3132 14.8 l3.1336 0 l-1.5668 -5.3 z M117.28 13 c0 1.48 5.22 0.1 5.22 4 c0 2.3 -1.96 3.28 -4.16 3.28 c-2.04 0 -3.88 -0.92 -4.12 -3.04 c-0.04 -0.34 0.16 -0.52 0.48 -0.52 l1.96 0 c0.3 0 0.4 0.16 0.54 0.42 c0.16 0.34 0.54 0.54 1.14 0.54 c0.84 0 1.16 -0.28 1.16 -0.68 c0 -1.44 -5.22 -0.12 -5.22 -4 c0 -2.26 1.96 -3.28 4.06 -3.28 c1.86 0 3.68 0.92 3.92 3.04 c0.04 0.34 -0.16 0.52 -0.48 0.52 l-1.96 0 c-0.3 0 -0.4 -0.16 -0.54 -0.44 c-0.14 -0.32 -0.48 -0.52 -0.94 -0.52 c-0.74 0 -1.06 0.28 -1.06 0.68 z M127 13 c0 1.48 5.22 0.1 5.22 4 c0 2.3 -1.96 3.28 -4.16 3.28 c-2.04 0 -3.88 -0.92 -4.12 -3.04 c-0.04 -0.34 0.16 -0.52 0.48 -0.52 l1.96 0 c0.3 0 0.4 0.16 0.54 0.42 c0.16 0.34 0.54 0.54 1.14 0.54 c0.84 0 1.16 -0.28 1.16 -0.68 c0 -1.44 -5.22 -0.12 -5.22 -4 c0 -2.26 1.96 -3.28 4.06 -3.28 c1.86 0 3.68 0.92 3.92 3.04 c0.04 0.34 -0.16 0.52 -0.48 0.52 l-1.96 0 c-0.3 0 -0.4 -0.16 -0.54 -0.44 c-0.14 -0.32 -0.48 -0.52 -0.94 -0.52 c-0.74 0 -1.06 0.28 -1.06 0.68 z M138.88000000000002 9.72 c2.92 0 5.04 2.26 5.04 5.28 c0 0.26 -0.02 0.5 -0.04 0.74 c-0.04 0.32 -0.24 0.46 -0.54 0.46 l-2.44 0 l-4.2388 0 c0.3634 1.1882 1.2966 1.66 2.3388 1.66 c0.56 0 1.12 -0.2 1.48 -0.5 c0.2 -0.16 0.36 -0.26 0.62 -0.26 l1.92 -0.02 c0.36 0 0.56 0.24 0.4 0.56 c-0.78 1.74 -2.42 2.64 -4.46 2.64 c-3.32 0 -5.44 -2.3 -5.44 -5.28 s2.2 -5.28 5.36 -5.28 z M136.64860000000002 13.92 l4.285 0 c-0.3092 -1.138 -1.1914 -1.54 -2.0736 -1.54 c-1.1244 0 -1.9024 0.5426 -2.2114 1.54 z M150.48000000000002 10 c0.32 0 0.5 0.18 0.5 0.5 l0 1.88 c0 0.32 -0.18 0.5 -0.5 0.5 l-1.1 0 l0 6.62 c0 0.32 -0.18 0.5 -0.5 0.5 l-2 0 c-0.32 0 -0.5 -0.18 -0.5 -0.5 l0 -6.62 l-1.1 0 c-0.32 0 -0.5 -0.18 -0.5 -0.5 l0 -1.88 c0 -0.32 0.18 -0.5 0.5 -0.5 l1.1 0 l0 -2.7 c0 -0.32 0.18 -0.5 0.5 -0.5 l2 0 c0.32 0 0.5 0.18 0.5 0.5 l0 2.7 l1.1 0 z M155.08000000000004 13 c0 1.48 5.22 0.1 5.22 4 c0 2.3 -1.96 3.28 -4.16 3.28 c-2.04 0 -3.88 -0.92 -4.12 -3.04 c-0.04 -0.34 0.16 -0.52 0.48 -0.52 l1.96 0 c0.3 0 0.4 0.16 0.54 0.42 c0.16 0.34 0.54 0.54 1.14 0.54 c0.84 0 1.16 -0.28 1.16 -0.68 c0 -1.44 -5.22 -0.12 -5.22 -4 c0 -2.26 1.96 -3.28 4.06 -3.28 c1.86 0 3.68 0.92 3.92 3.04 c0.04 0.34 -0.16 0.52 -0.48 0.52 l-1.96 0 c-0.3 0 -0.4 -0.16 -0.54 -0.44 c-0.14 -0.32 -0.48 -0.52 -0.94 -0.52 c-0.74 0 -1.06 0.28 -1.06 0.68 z"></path></g>
			</g>
		</svg>
	