<?xml version="1.0" encoding="UTF-8"?>
<svg width="24px" height="22px" viewBox="0 0 24 22" version="1.1" xmlns="http://www.w3.org/2000/svg" xmlns:xlink="http://www.w3.org/1999/xlink">
    <!-- Generator: Sketch 61.2 (89653) - https://sketch.com -->
    <title>Group</title>
    <desc>Created with Sketch.</desc>
    <g id="💰-Buy-and-Sell" stroke="none" stroke-width="1" fill="none" fill-rule="evenodd">
        <g id="Buy-With-ERC-20-2-(11)-Copy-3" transform="translate(-601.000000, -372.000000)" fill="#FFFFFF">
            <g id="Buy-Modal" transform="translate(492.000000, 150.000000)">
                <g id="Group-3" transform="translate(0.000000, 0.375000)">
                    <g id="Group-Copy" transform="translate(75.000000, 201.500000)">
                        <g id="Group" transform="translate(32.500000, 20.196506)">
                            <path d="M20.7431904,13.4421531 C23.5083998,14.2387028 25.2847766,15.4764596 25.2847766,16.8664525 C25.2847766,19.2694288 19.9758233,21.217426 13.4268974,21.217426 C6.87797162,21.217426 1.56901829,19.2694288 1.56901829,16.8664525 C1.56901829,15.4764596 3.34539508,14.2387028 6.1106045,13.4421531 C8.14754004,14.0052181 10.6810697,14.3387386 13.4268974,14.3387386 C16.1401821,14.3387386 18.646171,14.0130769 20.6703803,13.4624692 Z" id="Combined-Shape"></path>
                            <path d="M18.6100968,6.51351689 C21.3934024,7.14948714 23.24589,8.28240151 23.24589,9.57407469 C23.24589,11.5638746 18.8497773,13.1769261 13.4268974,13.1769261 C8.00401762,13.1769261 3.60790493,11.5638746 3.60790493,9.57407469 C3.60790493,8.28240151 5.46039252,7.14948714 8.24369806,6.51351689 C9.69264179,6.92162598 11.4855747,7.16312028 13.4268974,7.16312028 C15.2685521,7.16312028 16.9766625,6.94578622 18.3833975,6.57491201 Z" id="Combined-Shape"></path>
                            <ellipse id="Oval" cx="13.4268974" cy="3.54472074" rx="7.11189344" ry="2.70328201"></ellipse>
                        </g>
                    </g>
                </g>
            </g>
        </g>
    </g>
</svg>