<?xml version="1.0" encoding="UTF-8"?>
<svg width="28px" height="30px" viewBox="0 0 28 30" version="1.1" xmlns="http://www.w3.org/2000/svg" xmlns:xlink="http://www.w3.org/1999/xlink">
    <!-- Generator: Sketch 61.2 (89653) - https://sketch.com -->
    <title>Bitmap</title>
    <desc>Created with Sketch.</desc>
    <g id="💰-Buy-and-Sell" stroke="none" stroke-width="1" fill="none" fill-rule="evenodd">
        <g id="Buy-With-ERC-20-2-(11)-Copy-3" transform="translate(-600.000000, -446.000000)" fill="#FFFFFF">
            <g id="Buy-Modal" transform="translate(492.000000, 150.000000)">
                <g id="Group-3" transform="translate(0.000000, 0.375000)">
                    <g id="Group-Copy-2" transform="translate(75.000000, 277.625000)">
                        <g id="Bitmap" transform="translate(28.000000, 14.625000)">
                            <g id="Tabloid---59" transform="translate(1.000000, -3.125000)">
                                <path d="M12.2859429,8.2086 C11.8979143,8.14834286 11.8815429,8.14131429 12.0642,8.1132 C12.4141714,8.05937143 13.2405429,8.13274286 13.8099429,8.26817143 C15.1393714,8.5842 16.3491429,9.39368571 17.6404286,10.8314571 L17.9834571,11.2134 L18.4741714,11.1344571 C20.5416857,10.8022286 22.6449429,11.0663143 24.4040571,11.8789714 C24.888,12.1025143 25.6511143,12.5475429 25.7464286,12.6618857 C25.7767714,12.6984 25.8325714,12.933 25.8702857,13.1833714 C26.001,14.0495143 25.9356,14.7133714 25.6706571,15.2093143 C25.5264857,15.4791429 25.5184286,15.5646 25.6153714,15.7956 C25.6927714,15.9798857 25.9084286,16.1162571 26.1220286,16.1159143 C26.5591714,16.1154 27.0297429,15.4086857 27.2478,14.4253714 L27.3343714,14.0347714 L27.5059714,14.2290857 C28.4469429,15.2952857 29.1860571,16.7492571 29.3130857,17.7842571 L29.3461714,18.0540857 L29.1879429,17.8087714 C28.9157143,17.3866286 28.6422,17.0993143 28.2919714,16.8675429 C27.6606,16.4497714 26.9929714,16.3075714 25.2249429,16.2144 C23.6281714,16.1303143 22.7244,15.9938571 21.8282571,15.7016571 C20.3035714,15.2046 19.5349714,14.5425429 17.7239143,12.1663714 C16.9194857,11.1108857 16.4222571,10.527 15.9276857,10.0567714 C14.8038,8.98817143 13.6995429,8.42785714 12.2859429,8.2086 Z" id="Path" fill-rule="nonzero"></path>
                                <path d="M26.1066,10.5650571 C26.1467143,9.85782857 26.2426286,9.39137143 26.4354857,8.96537143 C26.5117714,8.79668571 26.5833429,8.65868571 26.5943143,8.65868571 C26.6053714,8.65868571 26.5722,8.78314286 26.5206,8.93528571 C26.3804571,9.34868571 26.3574,9.91422857 26.454,10.5720857 C26.5765714,11.4069429 26.6462571,11.5273714 27.5286,12.4290857 C27.9424286,12.8520857 28.4238,13.3855714 28.5983143,13.6146 L28.9155429,14.031 L28.5983143,13.7334 C28.2102857,13.3694571 27.3179143,12.6596571 27.1207714,12.5581714 C26.9886,12.4902 26.9689714,12.4913143 26.8874571,12.5724857 C26.8122857,12.6472286 26.7965143,12.7596 26.7860571,13.2907714 C26.7698571,14.1186 26.6569714,14.6499429 26.3846571,15.1812 C26.2374,15.4686 26.2141714,15.4072286 26.3474571,15.0828857 C26.4469714,14.8407429 26.4570857,14.7342857 26.4563143,13.9328571 C26.4547714,12.3227143 26.2636286,11.9356286 25.1425714,11.2724571 C24.8586,11.1044571 24.3906857,10.8622286 24.1027714,10.7340857 C23.8148571,10.6059429 23.5861714,10.4943429 23.5944857,10.4859429 C23.6262,10.4544 24.7194857,10.7735143 25.1595429,10.9427143 C25.8140571,11.1945429 25.9221429,11.2271143 26.0016,11.1967714 C26.0549143,11.1764571 26.0807143,11.0212286 26.1066,10.5650571 Z" id="Path" fill-rule="nonzero"></path>
                                <path d="M13.0398,13.3195714 C12.252,12.2350286 11.7645429,10.572 11.8700571,9.32888571 L11.9027143,8.9442 L12.0820286,8.97694286 C12.4188,9.03831429 12.9994286,9.25448571 13.2713143,9.41957143 C14.0174571,9.87274286 14.3404286,10.4693143 14.6690571,12.0012857 C14.7653143,12.45 14.8916571,12.9578571 14.9497714,13.1297143 C15.0432857,13.4064857 15.3967714,14.0527714 15.6842571,14.4726 C15.8912571,14.7749143 15.7536857,14.9181429 15.2961429,14.8768286 C14.5972286,14.8137429 13.6505143,14.1603429 13.0398,13.3195714 Z" id="Path" fill-rule="nonzero"></path>
                                <path d="M25.1509714,21.3918857 C21.4692857,19.9094571 20.1726,18.6228 20.1726,16.4517429 C20.1726,16.1322 20.1835714,15.8708571 20.1970286,15.8708571 C20.2104,15.8708571 20.3528571,15.9762857 20.5135714,16.1051143 C21.2601429,16.704 22.0961143,16.9596857 24.4105714,17.2974 C25.7724857,17.4960857 26.5389429,17.6565429 27.2459143,17.8910571 C29.493,18.6362571 30.8833714,20.1486857 31.2149143,22.2086571 C31.3112571,22.8072 31.2547714,23.9297143 31.0985143,24.5212286 C30.9751714,24.9885429 30.5988857,25.8307714 30.4991143,25.8630857 C30.4714286,25.8720857 30.4442571,25.7659714 30.4372286,25.6217143 C30.3993429,24.8481429 30.0084857,24.0951429 29.352,23.5309714 C28.6056,22.8896571 27.6028286,22.3790571 25.1509714,21.3918857 Z" id="Path" fill-rule="nonzero"></path>
                                <path d="M22.5663429,22.0076571 C22.5201429,21.7332 22.4401714,21.3826286 22.3885714,21.2286857 L22.2945429,20.9487429 L22.4690571,21.1446 C22.7105143,21.4156286 22.9014,21.7624286 23.0630571,22.2243429 C23.1864857,22.5769714 23.2003714,22.6818 23.1994709,23.2547143 C23.1984857,23.8171714 23.1830571,23.9350286 23.0691429,24.2523429 C22.8894,24.7527429 22.6663714,25.1076 22.2921429,25.4884286 C21.6195429,26.1728571 20.7549429,26.5518857 19.5072,26.7090857 C19.2902571,26.7363429 18.6581143,26.7823714 18.1023429,26.8112571 C16.7017714,26.8841143 15.78,27.0345429 14.9517429,27.3253714 C14.8326,27.3672857 14.7263143,27.3926571 14.7155143,27.3818571 C14.682,27.3485143 15.2459143,27.0123429 15.7117714,26.7880286 C16.3685143,26.4715714 17.0223429,26.2989429 18.4872,26.055 C19.2108857,25.9344857 19.9581429,25.7882571 20.1479143,25.7300571 C21.9399429,25.1806286 22.8611143,23.7627429 22.5663429,22.0076571 Z" id="Path" fill-rule="nonzero"></path>
                                <path d="M24.2540571,25.005 C23.7648857,23.9534571 23.6526,22.9381714 23.9205429,21.9913714 C23.9492571,21.8901429 23.9952857,21.8073429 24.0230571,21.8073429 C24.0507429,21.8073429 24.1662,21.8697429 24.2795143,21.9460286 C24.5049429,22.0977429 24.9570857,22.3533429 26.1614571,23.01 C27.6644571,23.8294286 28.5214286,24.4639714 29.1041143,25.1889429 C29.6144571,25.8238286 29.9303143,26.5468286 30.0822857,27.4285714 C30.1683429,27.9280286 30.1179429,29.1298286 29.9898,29.6328 C29.5856571,31.2185143 28.6464857,32.4642 27.3069429,33.1910571 C27.1106571,33.2975143 26.9345143,33.3849429 26.9154,33.3852865 C26.8963714,33.3857143 26.9678571,33.2039143 27.0743143,32.9812286 C27.525,32.0392286 27.5762571,31.1229429 27.2356286,30.1030286 C27.027,29.4786 26.6016857,28.7166 25.7429143,27.4288286 C24.7444286,25.9314857 24.4997143,25.533 24.2540571,25.005 Z" id="Path" fill-rule="nonzero"></path>
                                <path d="M10.4251714,30.6786857 C11.7914571,29.5251429 13.4914286,28.7055429 15.0398571,28.4540571 C15.7072286,28.3456286 16.8189429,28.3886571 17.4369429,28.5468 C18.4274571,28.8003429 19.3135714,29.3681143 19.7744571,30.0445714 C20.2248,30.7057714 20.418,31.2818571 20.6191714,32.5638 C20.6985429,33.0694286 20.7848571,33.5772857 20.811,33.6922286 C20.9620286,34.3566 21.2560286,34.8876 21.6203143,35.1543429 C22.1989714,35.5777714 23.1953143,35.6041714 24.1754571,35.2218 C24.3418286,35.1569143 24.4862571,35.1120857 24.4964571,35.1222 C24.5319429,35.1575143 24.0384,35.4878571 23.6902286,35.6617714 C23.2217143,35.8958571 22.8491143,35.9862857 22.3541143,35.9862857 C21.4564286,35.9862857 20.7111429,35.5296 20.0892857,34.5984857 C19.9668857,34.4152286 19.6918286,33.8663143 19.4779714,33.3787714 C18.8214,31.8810857 18.4971429,31.4249143 17.7347143,30.9256286 C17.0712857,30.4911429 16.2156,30.4133143 15.5719714,30.7289143 C14.7264,31.1435143 14.4905143,32.2240286 15.0960857,32.9088 C15.3367714,33.1809429 15.7856571,33.4157143 16.1526,33.4614 C16.8392571,33.5467714 17.4293143,33.0244286 17.4293143,32.3311714 C17.4293143,31.8810857 17.2563429,31.6242 16.8207429,31.4276571 C16.2259714,31.1592 15.5865429,31.473 15.5896286,32.0317714 C15.5909143,32.2700571 15.6947143,32.4197143 15.9335143,32.5278 C16.0867714,32.5971429 16.0903714,32.6026286 15.9654,32.5766571 C15.4195714,32.4635143 15.2916857,31.8054857 15.7305429,31.3686857 C16.2574286,30.8442857 17.3469429,31.0757143 17.721,31.7915143 C17.8782,32.0921143 17.8964571,32.6909143 17.7594,33.0524571 C17.4527143,33.8617714 16.5585429,34.2873429 15.6513429,34.0557429 C15.0337714,33.8980286 14.7822857,33.7273714 14.0376,32.9603143 C12.7436571,31.6274571 12.2412857,31.3692 10.3758857,31.0779429 L10.0184571,31.0221429 L10.4251714,30.6786857 Z" id="Path" fill-rule="nonzero"></path>
                                <path d="M0.668031429,0.821031429 C4.98917143,6.06565714 11.6512286,14.2313143 11.982,14.6884286 C12.255,15.0659143 12.1522286,15.4052571 11.6844,15.6712286 C11.4242571,15.8190857 10.8894,15.969 10.6216286,15.969 C10.3187143,15.969 9.97748571,15.8231143 9.729,15.5874 C9.55337143,15.4208571 8.84451429,14.3622857 7.20805714,11.8231714 C5.95602857,9.88037143 4.90817143,8.26868571 4.87954286,8.24168571 C4.81345714,8.17928571 4.81457143,8.18134286 7.08042857,12.2355429 C8.5032,14.7812571 8.98345714,15.6812571 8.98345714,15.8016 C8.98345714,16.0464 8.91668571,16.1751429 8.61462857,16.512 C8.11122857,17.0736 7.88614286,17.7047143 7.72371429,19.0108286 C7.54157143,20.4749143 7.02942857,21.5091429 5.61008571,23.2792286 C4.77934286,24.3153429 4.6434,24.5052857 4.43374286,24.9228857 C4.16965714,25.4488286 4.09705714,25.7433429 4.06765714,26.4074571 C4.03654286,27.1096286 4.09714286,27.5631429 4.3116,28.2344571 C4.4994,28.8222 4.69542857,29.2103143 5.1966,29.9864571 C5.62911429,30.6563143 5.87811429,31.1541429 5.87811429,31.3488857 C5.87811429,31.5037714 5.90768571,31.5039429 6.57788571,31.3526571 C8.18168571,30.9905143 9.48394286,30.3534857 10.2163714,29.5729714 C10.6696286,29.0898 10.7760857,28.8229714 10.7795143,28.1609143 C10.7817429,27.7278 10.7665714,27.6371143 10.6494857,27.3880286 C10.4589429,26.9825143 10.1119714,26.6454 9.3474,26.1226286 C8.34557143,25.4377714 7.9176,24.8864571 7.7994,24.1281429 C7.70245714,23.5060286 7.815,23.0670857 8.36922857,21.9054857 C8.94282857,20.7030857 9.08502857,20.1907714 9.1812,18.9788571 C9.24325714,18.1958571 9.32931429,17.8870286 9.55422857,17.6391429 C9.78891429,17.3807143 10.0001143,17.2932 10.5807429,17.2138286 C11.5273714,17.0845714 12.1302,16.8396 12.6256286,16.383 C13.0554857,15.987 13.2353143,15.6053143 13.2629143,15.0307714 L13.2839143,14.5953429 L13.0436571,14.3153143 C12.1738286,13.3010571 0.0855,0.0237685714 0.0319714286,0.0237685714 C0.0205371429,0.0237685714 0.306771429,0.38256 0.668031429,0.821031429 Z M6.36642857,27.2019429 C6.56305714,26.8536 6.45857143,26.4058286 6.1296,26.1870857 C5.8188,25.9804286 5.33588571,26.0778 5.33588571,26.3471143 C5.33588571,26.4293143 5.3814,26.4891429 5.48382857,26.5418571 C5.65628571,26.6305714 5.6688,26.7304286 5.53311429,26.9343429 C5.39562857,27.1409143 5.40677143,27.3225429 5.5644,27.4458857 C5.81845714,27.6448286 6.17802857,27.5354571 6.36642857,27.2019429 Z" id="Shape"></path>
                                <path d="M13.8812571,17.4422571 C13.4369143,17.5788 13.0049143,18.0498 12.8712,18.5436 C12.7896,18.8449714 12.8358857,19.3734 12.9581143,19.5366857 C13.1555143,19.8002571 13.3464,19.8697714 13.8633429,19.8660857 C14.8753714,19.8590571 15.7551429,19.425 15.8574,18.8823429 C15.9413143,18.4375714 15.5549143,17.8211143 15.0226286,17.5505143 C14.748,17.4109714 14.1638571,17.3555143 13.8812571,17.4422571 Z M15.0643714,18.3673714 C15.2204571,18.1456286 15.1521429,17.9059714 14.8867714,17.7438857 C14.3812286,17.4352286 13.6168286,17.6906571 13.6168286,18.1681714 C13.6168286,18.4058571 14.0154857,18.6652286 14.3808857,18.6652286 C14.6240571,18.6652286 14.9568857,18.5202 15.0643714,18.3673714 Z" id="Shape"></path>
                            </g>
                        </g>
                    </g>
                </g>
            </g>
        </g>
    </g>
</svg>