<?xml version="1.0" encoding="UTF-8"?>
<svg width="44px" height="41px" viewBox="0 0 44 41" version="1.1" xmlns="http://www.w3.org/2000/svg" xmlns:xlink="http://www.w3.org/1999/xlink">
    <!-- Generator: Sketch 53.2 (72643) - https://sketchapp.com -->
    <title>metamask</title>
    <desc>Created with Sketch.</desc>
    <g id="⚖️-V1.5" stroke="none" stroke-width="1" fill="none" fill-rule="evenodd">
        <g id="Choose-your-wallet---Fortmatic" transform="translate(-751.000000, -285.000000)" fill-rule="nonzero">
            <g id="metamask" transform="translate(751.500000, 285.500000)">
                <polygon id="Path" fill="#E2761B" points="40.8543056 0.0840277778 24.1327778 12.5033333 27.225 5.17611111"></polygon>
                <g id="Group" transform="translate(0.336111, 0.000000)" fill="#E4761B">
                    <polygon id="Path" points="1.91583333 0.0840277778 18.5029167 12.6209722 15.5619444 5.17611111"></polygon>
                    <polygon id="Path" points="34.5018056 28.8719444 30.0483333 35.695 39.5770833 38.3166667 42.3163889 29.0231944"></polygon>
                    <polygon id="Path" points="0.15125 29.0231944 2.87375 38.3166667 12.4025 35.695 7.94902778 28.8719444"></polygon>
                    <polygon id="Path" points="11.8647222 17.3433333 9.20944444 21.3598611 18.6709722 21.78 18.3348611 11.6126389"></polygon>
                    <polygon id="Path" points="30.5693056 17.3433333 24.0151389 11.495 23.7966667 21.78 33.2413889 21.3598611"></polygon>
                    <polygon id="Path" points="12.4025 35.695 18.0827778 32.9220833 13.1755556 29.0904167"></polygon>
                    <polygon id="Path" points="24.35125 32.9220833 30.0483333 35.695 29.2584722 29.0904167"></polygon>
                </g>
                <g id="Group" transform="translate(12.604167, 32.770833)" fill="#D7C1B3">
                    <polygon id="Path" points="17.7802778 2.92416667 12.0831944 0.15125 12.5369444 3.86527778 12.4865278 5.42819444"></polygon>
                    <polygon id="Path" points="0.134444444 2.92416667 5.42819444 5.42819444 5.39458333 3.86527778 5.81472222 0.15125"></polygon>
                </g>
                <polygon id="Path" fill="#233447" points="18.1163889 26.6368056 13.3772222 25.2419444 16.7215278 23.7126389"></polygon>
                <polygon id="Path" fill="#233447" points="24.9898611 26.6368056 26.3847222 23.7126389 29.7458333 25.2419444"></polygon>
                <g id="Group" transform="translate(8.234722, 21.343056)" fill="#CD6116">
                    <polygon id="Path" points="4.50388889 14.3519444 5.31055556 7.52888889 0.0504166667 7.68013889"></polygon>
                    <polygon id="Path" points="21.3430556 7.52888889 22.1497222 14.3519444 26.6031944 7.68013889"></polygon>
                    <polygon id="Path" points="25.3427778 0.0168055556 15.8980556 0.436944444 16.7719444 5.29375 18.1668056 2.36958333 21.5279167 3.89888889"></polygon>
                    <polygon id="Path" points="5.1425 3.89888889 8.50361111 2.36958333 9.88166667 5.29375 10.7723611 0.436944444 1.31083333 0.0168055556"></polygon>
                </g>
                <g id="Group" transform="translate(9.411111, 21.343056)" fill="#E4751F">
                    <polygon id="Path" points="0.134444444 0.0168055556 4.10055556 7.74736111 3.96611111 3.89888889"></polygon>
                    <polygon id="Path" points="20.3515278 3.89888889 20.1834722 7.74736111 24.1663889 0.0168055556"></polygon>
                    <polygon id="Path" points="9.59597222 0.436944444 8.70527778 5.29375 9.81444444 11.0244444 10.0665278 3.47875"></polygon>
                    <polygon id="Path" points="14.7216667 0.436944444 14.2679167 3.46194444 14.4695833 11.0244444 15.5955556 5.29375"></polygon>
                </g>
                <polygon id="Path" fill="#F6851B" points="25.0066667 26.6368056 23.8806944 32.3675 24.6873611 32.9220833 29.5945833 29.0904167 29.7626389 25.2419444"></polygon>
                <polygon id="Path" fill="#F6851B" points="13.3772222 25.2419444 13.5116667 29.0904167 18.4188889 32.9220833 19.2255556 32.3675 18.1163889 26.6368056"></polygon>
                <polygon id="Path" fill="#C0AD9E" points="25.0906944 38.1990278 25.1411111 36.6361111 24.7209722 36.2663889 18.3852778 36.2663889 17.99875 36.6361111 18.0323611 38.1990278 12.7386111 35.695 14.5872222 37.2075 18.3348611 39.8123611 24.7713889 39.8123611 28.5358333 37.2075 30.3844444 35.695"></polygon>
                <polygon id="Path" fill="#161616" points="24.6873611 32.9220833 23.8806944 32.3675 19.2255556 32.3675 18.4188889 32.9220833 17.99875 36.6361111 18.3852778 36.2663889 24.7209722 36.2663889 25.1411111 36.6361111"></polygon>
                <g id="Group" fill="#763D16">
                    <polygon id="Path" points="41.5601389 13.31 42.9886111 6.45333333 40.8543056 0.0840277778 24.6873611 12.0831944 30.9054167 17.3433333 39.6947222 19.9145833 41.6441667 17.6458333 40.8038889 17.0408333 42.1483333 15.8140278 41.1063889 15.0073611 42.4508333 13.9822222"></polygon>
                    <polygon id="Path" points="0.134444444 6.45333333 1.56291667 13.31 0.655416667 13.9822222 1.99986111 15.0073611 0.974722222 15.8140278 2.31916667 17.0408333 1.47888889 17.6458333 3.41152778 19.9145833 12.2008333 17.3433333 18.4188889 12.0831944 2.25194444 0.0840277778"></polygon>
                </g>
                <polygon id="Path" fill="#F6851B" points="39.6947222 19.9145833 30.9054167 17.3433333 33.5775 21.3598611 29.5945833 29.0904167 34.8379167 29.0231944 42.6525 29.0231944"></polygon>
                <polygon id="Path" fill="#F6851B" points="12.2008333 17.3433333 3.41152778 19.9145833 0.487361111 29.0231944 8.28513889 29.0231944 13.5116667 29.0904167 9.54555556 21.3598611"></polygon>
                <polygon id="Path" stroke="#F6851B" fill="#F6851B" stroke-linecap="round" stroke-linejoin="round" points="24.1327778 21.78 24.6873611 12.0831944 27.2418056 5.17611111 15.8980556 5.17611111 18.4188889 12.0831944 19.0070833 21.78 19.20875 24.8386111 19.2255556 32.3675 23.8806944 32.3675 23.9143056 24.8386111"></polygon>
            </g>
        </g>
    </g>
</svg>